<svg width="149" height="136" viewBox="0 0 149 136" fill="none" xmlns="http://www.w3.org/2000/svg">
<g id="fluent:food-20-filled" opacity="0.5">
<path id="Vector" d="M46.045 10H45.928C45.3848 10.0115 44.8481 10.1213 44.344 10.324C43.6151 10.6126 42.9742 11.0866 42.4848 11.6991C41.9954 12.3116 41.6746 13.0413 41.554 13.816C41.41 14.662 37 42.355 37 55C37 63.55 40.978 71.173 47.17 76.105C49.42 77.914 50.5 79.876 50.5 81.514V86.014C50.5 86.176 50.491 86.338 50.473 86.5C50.23 88.84 49.114 99.361 48.061 110.179C47.026 120.844 46 132.229 46 136C46 140.774 47.8964 145.352 51.2721 148.728C54.6477 152.104 59.2261 154 64 154C68.7739 154 73.3523 152.104 76.7279 148.728C80.1036 145.352 82 140.774 82 136C82 132.22 80.974 120.844 79.939 110.179C79.1695 102.286 78.3655 94.3954 77.527 86.509L77.5 86.014V81.514C77.5 79.867 78.58 77.914 80.83 76.105C84.0015 73.5769 86.5626 70.3667 88.3233 66.713C90.0839 63.0593 90.9988 59.0558 91 55C91 42.328 86.563 14.509 86.446 13.807C86.3136 12.9611 85.9427 12.1706 85.3768 11.5281C84.8109 10.8857 84.0734 10.418 83.251 10.18C82.8735 10.0695 82.4832 10.009 82.09 10H81.91H81.919C80.7198 10.0095 79.573 10.4925 78.7284 11.3439C77.8839 12.1952 77.41 13.3458 77.41 14.545V50.545C77.4224 51.13 77.3195 51.7118 77.107 52.257C76.8946 52.8023 76.5769 53.3004 76.172 53.7228C75.7671 54.1453 75.2829 54.4839 74.7472 54.7192C74.2114 54.9546 73.6345 55.0821 73.0495 55.0945C72.4645 55.1069 71.8827 55.004 71.3374 54.7915C70.7922 54.5791 70.2941 54.2614 69.8717 53.8565C69.4492 53.4516 69.1106 52.9674 68.8753 52.4317C68.6399 51.8959 68.5124 51.319 68.5 50.734V14.5C68.5 13.3065 68.0259 12.1619 67.182 11.318C66.3381 10.4741 65.1935 10 64 10C62.8065 10 61.6619 10.4741 60.818 11.318C59.9741 12.1619 59.5 13.3065 59.5 14.5V50.5L59.509 50.788C59.4768 51.9695 58.9765 53.0899 58.1182 53.9026C57.26 54.7153 56.114 55.1537 54.9325 55.1215C53.751 55.0893 52.6306 54.589 51.8179 53.7307C51.0052 52.8725 50.5668 51.7265 50.599 50.545V14.554C50.599 13.3478 50.1204 12.1908 49.2683 11.337C48.4163 10.4832 47.2512 10.0024 46.045 10ZM104.5 50.5C104.5 39.7587 108.767 29.4574 116.362 21.8622C123.957 14.267 134.259 10 145 10C146.193 10 147.338 10.4741 148.182 11.318C149.026 12.1619 149.5 13.3065 149.5 14.5V77.302L149.68 79.318C150.381 87.4045 151.065 95.4925 151.732 103.582C152.848 117.145 154 132.031 154 136C154 140.774 152.104 145.352 148.728 148.728C145.352 152.104 140.774 154 136 154C131.226 154 126.648 152.104 123.272 148.728C119.896 145.352 118 140.774 118 136C118 132.04 119.152 117.145 120.268 103.582C120.826 96.733 121.393 90.109 121.816 85.204L122.086 82H118C114.42 82 110.986 80.5777 108.454 78.0459C105.922 75.5142 104.5 72.0804 104.5 68.5V50.5Z" fill="#E6E6E6"/>
</g>
</svg>
