<svg width="380" height="385" viewBox="0 0 380 385" fill="none" xmlns="http://www.w3.org/2000/svg">
<path d="M0.5 100C0.5 45.0477 45.0477 0.5 100 0.5H280C334.952 0.5 379.5 45.0477 379.5 100V384.5H0.5V100Z" fill="#FAFAFA"/>
<path d="M0.5 100C0.5 45.0477 45.0477 0.5 100 0.5H280C334.952 0.5 379.5 45.0477 379.5 100V384.5H0.5V100Z" stroke="#E6E6E6"/>
<path d="M0.5 100C0.5 45.0477 45.0477 0.5 100 0.5H280C334.952 0.5 379.5 45.0477 379.5 100V384.5H0.5V100Z" stroke="white" stroke-opacity="0.4"/>
<g clip-path="url(#clip0_1714_1757)">
<path d="M190.004 180.3C205.151 180.3 217.431 179.119 217.431 177.662C217.431 176.206 205.151 175.025 190.004 175.025C174.857 175.025 162.577 176.206 162.577 177.662C162.577 179.119 174.857 180.3 190.004 180.3Z" fill="#E1E1E1"/>
<path d="M190.004 159.81C266.774 159.81 329.008 150.83 329.008 139.753C329.008 128.675 266.774 119.695 190.004 119.695C113.234 119.695 51 128.675 51 139.753C51 150.83 113.234 159.81 190.004 159.81Z" fill="#393939"/>
<path d="M218.709 173.638C199.506 172.171 180.294 172.171 161.091 173.638C159.357 173.774 157.782 172.612 157.415 170.905L156.56 166.977C156.096 164.852 157.646 162.816 159.812 162.728C179.871 161.878 199.937 161.878 219.996 162.728C222.162 162.816 223.712 164.86 223.249 166.977L222.394 170.905C222.018 172.612 220.452 173.766 218.717 173.638H218.709Z" fill="#393939"/>
<path d="M190.004 115.976C239.176 115.976 282.474 119.543 307.775 124.954L265.324 105.498C258.403 102.324 250.939 100.472 243.339 100.063C207.753 98.1553 172.191 98.1553 136.669 100.063C129.069 100.472 121.621 102.324 114.7 105.498L72.2414 124.954C97.5424 119.543 140.84 115.976 190.012 115.976H190.004Z" fill="#393939"/>
<path d="M281.155 385.104H98.9489L159.911 184.693H220.201L281.155 385.104Z" fill="url(#paint0_linear_1714_1757)"/>
<path d="M242.828 96.4397C242.348 71.717 223.688 42 189.9 42C156.112 42 137.444 71.725 136.972 96.4478C172.231 94.5639 207.513 94.5719 242.828 96.4478V96.4397Z" fill="#393939"/>
<path d="M210.84 241.978L160.64 252.666C159.383 252.928 158.576 254.179 158.849 255.44L166.58 292.009C166.842 293.27 168.088 294.079 169.345 293.806L219.545 283.119C220.802 282.856 221.609 281.606 221.336 280.345L213.605 243.775C213.343 242.514 212.097 241.705 210.84 241.978ZM216.308 274.492L168.811 284.601L162.788 256.112L210.284 246.003L216.308 274.492Z" fill="#393939"/>
<path d="M199.562 288.717L189.909 290.771C188.8 291.008 188.091 292.101 188.326 293.214L188.329 293.224C188.564 294.337 189.654 295.047 190.763 294.811L200.417 292.757C201.526 292.52 202.234 291.427 201.999 290.314L201.997 290.304C201.761 289.191 200.671 288.481 199.562 288.717Z" fill="#393939"/>
<path d="M205.786 293.158L186.019 297.365C185.125 297.556 184.554 298.437 184.743 299.334L184.746 299.345C184.935 300.242 185.814 300.814 186.708 300.624L206.476 296.416C207.37 296.226 207.941 295.345 207.751 294.448L207.749 294.437C207.559 293.54 206.681 292.968 205.786 293.158Z" fill="#393939"/>
</g>
<defs>
<linearGradient id="paint0_linear_1714_1757" x1="190.056" y1="202.671" x2="190.056" y2="510.112" gradientUnits="userSpaceOnUse">
<stop stop-color="#E1E1E1" stop-opacity="0"/>
<stop offset="1" stop-color="#FAFAFA"/>
</linearGradient>
<clipPath id="clip0_1714_1757">
<rect width="278" height="343" fill="white" transform="translate(51 42)"/>
</clipPath>
</defs>
</svg>
