<svg viewBox="0 0 50 25" width="50" height="25" fill="none" xmlns="http://www.w3.org/2000/svg"><path d="M48.129 0H8.917c-.825 0-1.409.431-1.675 1.218C5.452 6.751 1.862 17.83.059 23.362c-.216.66.178 1.193.876 1.193h39.212c.825 0 1.409-.431 1.675-1.218 1.802-5.533 5.393-16.611 7.195-22.144C49.22.546 48.827 0 48.13 0z" fill="#F90"/><path d="M18.79 4.911H12.05l-.8 2.462h2.463v12.271h5.076c4.606-.025 7.576-3.033 7.576-7.36 0-4.365-2.97-7.373-7.576-7.373zm-.09 12.297h-2.233V7.36h2.234c2.715 0 4.758 1.637 4.758 4.924 0 3.261-2.043 4.924-4.758 4.924zm15.952-.013V4.911h-5.47v2.45h2.716v9.834h-2.931v2.45h8.046l.799-2.45h-3.16z" fill="#fff"/></svg>