<svg viewBox="0 0 50 25" width="50" height="25" fill="none" xmlns="http://www.w3.org/2000/svg"><path d="M48.866 0H9.654c-.825 0-1.409.431-1.675 1.218C6.177 6.751 2.586 17.83.784 23.362c-.216.66.177 1.193.875 1.193h39.212c.825 0 1.41-.431 1.676-1.218 1.802-5.533 5.393-16.611 7.195-22.144C49.945.546 49.552 0 48.866 0z" fill="#F42A7C"/><path d="M18.537 4.911H11.799l-.8 2.462h2.462v12.271h5.076c4.606-.025 7.576-3.033 7.576-7.36 0-4.365-2.97-7.373-7.576-7.373zm-.089 12.297h-2.233V7.36h2.233c2.716 0 4.759 1.637 4.759 4.924 0 3.261-2.043 4.924-4.759 4.924zm10.634 2.436v-2.056l3.782-3.705c2.754-2.716 3.274-3.49 3.274-4.607 0-1.307-1.066-2.106-2.424-2.106-1.18 0-2.436.634-3.4 1.535l-1.79-1.789c1.307-1.307 3.3-2.246 5.28-2.246 3.298 0 5.113 2.018 5.113 4.315 0 1.98-1.028 3.388-3.578 5.786l-2.551 2.399v.038h6.726l-.8 2.436h-9.632z" fill="#fff"/></svg>