<svg viewBox="0 0 25 14" width="25" height="14" fill="none" xmlns="http://www.w3.org/2000/svg"><path d="M4.397 1.337a1 1 0 0 1 .955-.702h18a1 1 0 0 1 .953 1.3l-3.307 10.511a1 1 0 0 1-.954.7H2.074a1 1 0 0 1-.954-1.297L4.396 1.337z" fill="#EA5B0C"/><path d="M6.794 10.433h2.46c2.266 0 3.697-1.473 3.697-3.604 0-2.131-1.431-3.604-3.696-3.604H6.794v7.208zM8.102 9.28V4.379h1.101c1.37 0 2.379.813 2.379 2.45 0 1.658-1.01 2.45-2.379 2.45H8.102zm8.211 1.276c1.483 0 2.729-1.009 2.729-2.378 0-1.267-.907-2.028-1.988-2.193v-.02l1.844-1.844v-.896h-4.675V4.38h3.048L15.459 6.19v.906a2.75 2.75 0 0 1 .659-.083c.803 0 1.575.35 1.575 1.174 0 .66-.587 1.184-1.421 1.184-.566 0-1.143-.226-1.637-.69l-.865.876c.587.597 1.38.998 2.543.998z" fill="#fff"/></svg>