<svg viewBox="0 0 25 13" width="25" height="13" fill="none" xmlns="http://www.w3.org/2000/svg"><path d="M4.397.783A1 1 0 0 1 5.352.08h18a1 1 0 0 1 .953 1.3l-3.307 10.512a1 1 0 0 1-.954.7H2.074a1 1 0 0 1-.954-1.298L4.396.783z" fill="#45B384"/><path d="M6.794 9.94h2.46c2.266 0 3.697-1.473 3.697-3.604 0-2.131-1.431-3.603-3.696-3.603H6.794V9.94zm1.308-1.153V3.886h1.101c1.37 0 2.379.813 2.379 2.45 0 1.658-1.01 2.45-2.379 2.45H8.102zm9.024 1.153h1.277V8.323h.731l.402-1.101h-1.133V5.255h-1.276v1.967h-1.988v-.02l1.854-4.47h-1.38l-1.884 4.613v.978h3.398V9.94z" fill="#fff"/></svg>