<svg viewBox="0 0 25 14" width="25" height="14" fill="none" xmlns="http://www.w3.org/2000/svg"><path d="M4.397 1.228a1 1 0 0 1 .955-.702h18a1 1 0 0 1 .953 1.3l-3.307 10.511a1 1 0 0 1-.954.7H2.074a1 1 0 0 1-.954-1.298L4.396 1.228z" fill="#76B82A"/><path d="M6.835 10.323h2.46c2.266 0 3.697-1.472 3.697-3.603 0-2.132-1.431-3.604-3.696-3.604H6.835v7.207zM8.143 9.17v-4.9h1.101c1.37 0 2.379.813 2.379 2.45 0 1.657-1.01 2.45-2.379 2.45H8.143zm8.232 1.277c1.678 0 2.738-1.153 2.738-2.46 0-1.494-1.225-2.317-2.46-2.317-.391 0-.865.092-1.225.278h-.021l.093-1.679h3.027l.422-1.153h-4.53l-.196 4.005 1.03.103c.35-.237.792-.38 1.153-.38.823 0 1.359.514 1.359 1.152 0 .762-.618 1.257-1.452 1.257-.566 0-1.143-.217-1.647-.68l-.865.875c.617.628 1.482.999 2.574.999z" fill="#fff"/></svg>