<svg clip-rule="evenodd" fill-rule="evenodd" height="18" image-rendering="optimizeQuality"
     shape-rendering="geometricPrecision" text-rendering="geometricPrecision" viewBox="0 0 143 143" width="18"
     xmlns="http://www.w3.org/2000/svg">
    <g>
        <path d="M71 7C35 7 7 36 7 71c0 36 28 65 64 65s65-29 65-65c0-35-29-64-65-64z" fill="#fefefe"/>
        <path d="M71 0C32 0 0 32 0 71c0 40 32 72 71 72 40 0 72-32 72-72 0-39-32-71-72-71zm1 109c-18 0-28-14-28-28 0-11 5-20 16-34l11-14 15 2-21 25c3-1 7-2 10-2 12 0 24 9 24 24s-11 27-27 27zm0-39c-7 0-13 6-13 13 0 8 6 14 13 14 8 0 13-6 13-14 0-7-5-13-13-13z"
              fill="#ef7e24"/>
    </g>
</svg>
