<svg clip-rule="evenodd" fill-rule="evenodd" height="18" image-rendering="optimizeQuality"
     shape-rendering="geometricPrecision" text-rendering="geometricPrecision" viewBox="0 0 109 109" width="18"
     xmlns="http://www.w3.org/2000/svg">
    <g>
        <path d="M54 107c28 0 51-23 51-51S82 5 54 5 4 28 4 56s22 51 50 51zM19 78l15-51h11l10 36 12-36h10l15 51H80l-8-33-10 33H49l-9-33h-1l-8 33z"
              fill="#0975bb"/>
        <path d="M54 0C24 0 0 24 0 54s24 55 54 55 55-25 55-55S84 0 54 0z" fill="#bac8e8"/>
        <path d="M54 100C29 100 8 80 8 54 8 29 29 8 54 8c26 0 46 21 46 46 0 26-20 46-46 46z" fill="#0572b9"/>
        <g fill="#fefefe">
            <path d="M23 39h9v38h8V31H26zm46 10l11-12v-6H50v8h19L58 50v6h5c5 0 9 2 9 7 0 4-3 7-8 7-4 0-8-1-11-4l-6 6c4 4 10 6 17 6 9 0 17-6 17-15 0-8-6-13-12-14z"/>
        </g>
    </g>
</svg>
