<svg viewBox="0 0 12 12" xmlns="http://www.w3.org/2000/svg" fill-rule="evenodd"
     stroke-linejoin="round" stroke-miterlimit="2">
    <circle cx="6.768" cy="5.799" r="4.384" fill="#EBEBEB" transform="translate(-2.055 -.95) scale(1.14169)"/>
    <path d="M6.433 5.034h.016c.306-.151.643-.231.985-.232.032-.002.064-.002.096-.002 1.024 0 1.866.842 1.866 1.865v.002a2.044 2.044 0 0 1-2.235 1.972 2.842 2.842 0 0 1-2.037-.812l.729-.729c.349.337.814.53 1.3.539a1 1 0 0 0 1.117-.962.968.968 0 0 0-1.068-.905 1.724 1.724 0 0 0-.902.299l-.853-.082.157-3.249h3.66l-.348.96H6.507l-.074 1.336zM3.934 8.539H2.849V3.698H1.796l.34-.96h1.798v5.801zm7.409-2.868V5.67c0-3.111-2.56-5.671-5.672-5.671C2.56-.001 0 2.559 0 5.67c0 3.112 2.56 5.672 5.671 5.672h.001c3.111 0 5.671-2.56 5.671-5.671"
          fill="#F088B6"/>
</svg>
