<svg clip-rule="evenodd" fill-rule="evenodd" height="63500" image-rendering="optimizeQuality"
     shape-rendering="geometricPrecision" text-rendering="geometricPrecision" viewBox="0 0 1030690 1030750"
     width="63500" xmlns="http://www.w3.org/2000/svg">
    <g>
        <path d="M519683 241116c-116124 0-189889 68415-189889 147723 0 46659 29249 93422 78096 112931v2187c-48847 20692-90038 68401-90038 124918 0 94428 82529 158557 201831 158557 118252 0 199644-64129 199644-158557 0-56517-41294-104226-86816-124918v-2187c47753-19509 77061-66272 77061-112931 0-79308-72730-147723-189889-147723zm0 223734c-59710 0-91250-30401-91250-70602 0-35811 31540-69553 91250-69553 58542 0 90038 33742 90038 69553 0 40201-31496 70602-90038 70602zm0 236771c-64085 0-99792-36920-99792-73780 0-41354 35707-76071 99792-76071 61779 0 99792 34717 99792 76071 0 36860-38013 73780-99792 73780z"/>
        <path d="M515338 0C229987 0 0 230253 0 515870c0 285721 229987 514880 515338 514880 285366 0 515352-229159 515352-514880C1030690 230253 800704 0 515338 0zm4330 787417c-119287 0-201831-64085-201831-158512 0-56562 41250-104226 90097-124977v-2143c-48847-19539-78111-66317-78111-112976 0-79249 73736-147708 189845-147708 117159 0 189890 68459 189890 147708 0 46659-29294 93437-77062 112976v2143c45522 20751 86860 68415 86860 124977 0 94427-81376 158512-199688 158512zm0-462693c-59695 0-91249 33683-91249 69553 0 40201 31554 70603 91249 70603 58557 0 90097-30402 90097-70603 0-35870-31540-69553-90097-69553zm0 227016c-64025 0-99792 34732-99792 76130 0 36802 35767 73721 99792 73721 61838 0 99793-36919 99793-73721 0-41398-37955-76130-99793-76130z"
              fill="#ffcd1e"/>
    </g>
</svg>
