<svg xmlns="http://www.w3.org/2000/svg" width="18" height="18" viewBox="0 0 610 609" shape-rendering="geometricPrecision" text-rendering="geometricPrecision" image-rendering="optimizeQuality" fill-rule="evenodd" clip-rule="evenodd"><defs><style>.fil0,.fil1{fill:#000;fill-rule:nonzero}.fil0{fill:#ffcd1e}</style></defs><g id="Схема"><g id="_734656040"><path class="fil0" d="M0 305c0-42 8-81 24-118s37-70 65-97c28-28 60-50 97-66S263 0 305 0s82 8 119 24 69 38 97 66c27 27 49 60 65 97s24 76 24 118-8 82-24 119-38 69-65 97c-28 27-60 49-97 65s-77 23-119 23-82-7-119-23-69-38-97-65c-28-28-49-60-65-97S0 347 0 305z"/><path class="fil1" d="M490 440l-19-57h-98l-19 57h-53l97-272h51l98 272h-57zm-68-205l-35 105h70l-34-105h-1zm-237 44c16 0 28-4 35-12 8-8 12-17 12-27s-4-19-12-26c-7-8-19-12-35-12-17 0-28 4-36 12-7 7-11 16-11 26s4 19 11 27c8 8 19 12 36 12zm0 126c18 0 31-4 40-13 8-8 13-18 13-29 0-10-5-19-13-28-9-8-22-12-40-12s-31 4-39 12c-9 9-13 18-13 28 0 11 4 21 13 29 8 9 21 13 39 13zm0 43c-32 0-58-8-78-23-19-15-29-36-29-62 0-14 5-28 14-39 9-12 20-20 33-25v-1c-13-5-24-13-31-24s-10-23-10-36c0-11 2-20 7-30 5-9 11-18 20-25s19-13 32-17c12-4 26-7 42-7 15 0 29 3 41 7s23 10 32 17 16 16 20 25c5 10 7 19 7 30 0 13-3 25-11 36-7 11-17 19-29 24v1c12 5 23 13 32 25 10 11 14 25 14 39 0 26-9 47-29 62-19 15-45 23-77 23z"/></g></g></svg>