<svg clip-rule="evenodd" fill-rule="evenodd" height="63500" image-rendering="optimizeQuality"
     shape-rendering="geometricPrecision" text-rendering="geometricPrecision" viewBox="0 0 676528 676518" width="63500"
     xmlns="http://www.w3.org/2000/svg">
    <g>
        <path d="M340131 31081c-170070 0-307149 137234-307149 307498 0 170236 137079 306849 307149 306849 170090 0 307189-136613 307189-306849 0-170264-137099-307498-307189-307498z"
              fill="#fefefe"/>
        <path d="M338250 0C150951 0 0 151116 0 338657c0 187464 150951 337861 338250 337861 187289 0 338278-150397 338278-337861C676528 151116 525539 0 338250 0zM232164 221687v-57049h236432v45612L345399 509009h-72619l121723-287322z"
              fill="#943f90"/>
    </g>
</svg>
