<svg width="421" height="858" viewBox="0 0 421 858" fill="none" xmlns="http://www.w3.org/2000/svg">
<g clip-path="url(#clip0_284_941)">
<path d="M0 55C0 24.6244 24.6243 0 55 0H363C393.376 0 418 24.6243 418 55V803C418 833.376 393.376 858 363 858H55C24.6243 858 0 833.376 0 803V55Z" fill="#3A4245"/>
<path d="M4 55C4 26.8335 26.8335 4 55 4H363C391.167 4 414 26.8335 414 55V803C414 831.167 391.167 854 363 854H55C26.8335 854 4 831.167 4 803V55Z" fill="#121515"/>
<path d="M418 324H419C420.105 324 421 325.481 421 327.308L421 438.692C421 440.519 420.105 442 419 442H418L418 324Z" fill="#121515"/>
<path d="M418 205H419C420.105 205 421 206.481 421 208.308L421 260.692C421 262.519 420.105 264 419 264H418L418 205Z" fill="#121515"/>
<mask id="mask0_284_941" style="mask-type:alpha" maskUnits="userSpaceOnUse" x="21" y="22" width="376" height="815">
<path d="M21 85C21 58.7519 21 45.6278 27.6844 36.4275C29.8432 33.4562 32.4562 30.8432 35.4275 28.6844C44.6278 22 57.7519 22 84 22H334C360.248 22 373.372 22 382.572 28.6844C385.544 30.8432 388.157 33.4562 390.316 36.4275C397 45.6278 397 58.7519 397 85V774C397 800.248 397 813.372 390.316 822.573C388.157 825.544 385.544 828.157 382.572 830.316C373.372 837 360.248 837 334 837H84C57.7519 837 44.6278 837 35.4275 830.316C32.4562 828.157 29.8432 825.544 27.6844 822.573C21 813.372 21 800.248 21 774V85Z" fill="white"/>
</mask>
<g mask="url(#mask0_284_941)">
<rect x="21" y="22" width="376" height="815" fill="white"/>
</g>
</g>
<defs>
<clipPath id="clip0_284_941">
<rect width="421" height="858" fill="white"/>
</clipPath>
</defs>
</svg>
