<svg width="130" height="39" viewBox="0 0 130 39" fill="none" xmlns="http://www.w3.org/2000/svg">
<g id="app-store-button" clip-path="url(#clip0_88_232)">
<path id="Vector" d="M124.75 1.05142C125.819 1.05142 126.844 1.47498 127.599 2.22894C128.356 2.98289 128.78 4.00547 128.78 5.07172V33.7881C128.78 34.8544 128.356 35.877 127.599 36.6309C126.844 37.3849 125.819 37.8085 124.75 37.8085H4.79807C3.72914 37.8085 2.704 37.3849 1.94816 36.6309C1.19232 35.877 0.767691 34.8544 0.767691 33.7881V5.07172C0.767691 4.00547 1.19232 2.98289 1.94816 2.22894C2.704 1.47498 3.72914 1.05142 4.79807 1.05142H124.75ZM124.75 0.285645H4.79807C3.52554 0.285645 2.30513 0.78989 1.40532 1.68745C0.505509 2.58502 0 3.80237 0 5.07172V33.7881C0 35.0575 0.505509 36.2749 1.40532 37.1725C2.30513 38.07 3.52554 38.5742 4.79807 38.5742H124.75C126.023 38.5742 127.243 38.07 128.143 37.1725C129.042 36.2749 129.547 35.0575 129.547 33.7881V5.07172C129.547 3.80237 129.042 2.58502 128.143 1.68745C127.243 0.78989 126.023 0.285645 124.75 0.285645Z" fill="#DA2031"/>
<path id="Vector_2" d="M30.8179 18.7725C30.7914 15.833 33.2308 14.4029 33.3423 14.3363C31.9608 12.3271 29.8194 12.0526 29.067 12.0307C27.2685 11.8419 25.5239 13.1042 24.6078 13.1042C23.6733 13.1042 22.2626 12.049 20.742 12.08C18.7853 12.1101 16.9549 13.2401 15.951 14.9948C13.8791 18.5728 15.4243 23.8307 17.4093 26.7228C18.4023 28.1392 19.5625 29.7206 21.0813 29.665C22.5671 29.6039 23.1221 28.7201 24.915 28.7201C26.6916 28.7201 27.2127 29.665 28.7616 29.6295C30.3561 29.6039 31.3601 28.2067 32.3183 26.7775C33.4658 25.154 33.9266 23.5552 33.9449 23.4731C33.9074 23.4604 30.8481 22.2957 30.8179 18.7725Z" fill="#DA2031"/>
<path id="Vector_3" d="M27.8922 10.1278C28.6913 9.13091 29.238 7.77471 29.0862 6.39844C27.9296 6.44951 26.4832 7.19647 25.6502 8.17145C24.9132 9.03059 24.2549 10.4387 24.425 11.7631C25.7243 11.8597 27.0582 11.1091 27.8922 10.1278Z" fill="#DA2031"/>
<path id="Vector_4" d="M52.3208 29.46H50.2443L49.1069 25.8948H45.1534L44.0699 29.46H42.0483L45.9653 17.3225H48.3846L52.3208 29.46ZM48.7641 24.3991L47.7354 21.2297C47.6266 20.9059 47.4227 20.1435 47.1219 18.9433H47.0853C46.9656 19.4594 46.7726 20.2219 46.5074 21.2297L45.4972 24.3991H48.7641Z" fill="#DA2031"/>
<path id="Vector_5" d="M62.3919 24.9772C62.3919 26.4658 61.9886 27.6423 61.1823 28.506C60.4599 29.2749 59.563 29.6588 58.4923 29.6588C57.3366 29.6588 56.5064 29.2447 56.0007 28.4166H55.9642V33.0269H54.0149V23.5901C54.0149 22.6543 53.9901 21.6939 53.9426 20.7089H55.657L55.7658 22.0961H55.8024C56.4524 21.0509 57.439 20.5293 58.763 20.5293C59.798 20.5293 60.662 20.9369 61.3532 21.7532C62.0463 22.5704 62.3919 23.6448 62.3919 24.9772ZM60.406 25.0484C60.406 24.1966 60.214 23.4943 59.8281 22.9416C59.4066 22.3652 58.8407 22.077 58.1312 22.077C57.6502 22.077 57.2132 22.2375 56.8228 22.554C56.4314 22.8732 56.1754 23.29 56.0557 23.8063C55.9953 24.047 55.9652 24.244 55.9652 24.3991V25.8584C55.9652 26.4949 56.1607 27.0322 56.5521 27.4708C56.9435 27.9095 57.4518 28.1283 58.0772 28.1283C58.8114 28.1283 59.3829 27.8457 59.7915 27.282C60.2012 26.7174 60.406 25.9732 60.406 25.0484Z" fill="#DA2031"/>
<path id="Vector_6" d="M72.4853 24.9772C72.4853 26.4658 72.0821 27.6423 71.2747 28.506C70.5533 29.2749 69.6564 29.6588 68.5857 29.6588C67.43 29.6588 66.5997 29.2447 66.0951 28.4166H66.0585V33.0269H64.1091V23.5901C64.1091 22.6543 64.0845 21.6939 64.0369 20.7089H65.7513L65.8601 22.0961H65.8966C66.5459 21.0509 67.5324 20.5293 68.8572 20.5293C69.8914 20.5293 70.7554 20.9369 71.4484 21.7532C72.1388 22.5704 72.4853 23.6448 72.4853 24.9772ZM70.4993 25.0484C70.4993 24.1966 70.3065 23.4943 69.9206 22.9416C69.4991 22.3652 68.9349 22.077 68.2245 22.077C67.7426 22.077 67.3065 22.2375 66.9152 22.554C66.5239 22.8732 66.2688 23.29 66.149 23.8063C66.0896 24.047 66.0585 24.244 66.0585 24.3991V25.8584C66.0585 26.4949 66.2542 27.0322 66.6436 27.4708C67.035 27.9086 67.5433 28.1283 68.1706 28.1283C68.9048 28.1283 69.4762 27.8457 69.8849 27.282C70.2946 26.7174 70.4993 25.9732 70.4993 25.0484Z" fill="#DA2031"/>
<path id="Vector_7" d="M83.7692 26.0568C83.7692 27.0892 83.4099 27.9292 82.6884 28.5776C81.8957 29.2863 80.7921 29.6402 79.374 29.6402C78.0647 29.6402 77.015 29.3884 76.2205 28.8841L76.6721 27.2634C77.528 27.7796 78.4669 28.0386 79.4901 28.0386C80.2243 28.0386 80.7958 27.8726 81.2063 27.5425C81.615 27.2123 81.8189 26.7691 81.8189 26.2164C81.8189 25.7239 81.6506 25.3089 81.3132 24.9724C80.9777 24.6358 80.4172 24.323 79.6346 24.0338C77.5041 23.2413 76.4399 22.0803 76.4399 20.5535C76.4399 19.5558 76.813 18.7376 77.5599 18.1011C78.3042 17.4635 79.2972 17.1453 80.5388 17.1453C81.6461 17.1453 82.5659 17.3376 83.3001 17.7217L82.8127 19.3067C82.127 18.9347 81.3516 18.7486 80.484 18.7486C79.7982 18.7486 79.2625 18.9173 78.8784 19.2529C78.5538 19.553 78.3911 19.9187 78.3911 20.3519C78.3911 20.8317 78.5767 21.2285 78.9497 21.5404C79.2743 21.8286 79.8641 22.1405 80.7198 22.4771C81.7668 22.8975 82.5357 23.3891 83.0304 23.9527C83.5231 24.5145 83.7692 25.2177 83.7692 26.0568Z" fill="#DA2031"/>
<path id="Vector_8" d="M90.212 22.1678H88.0633V26.417C88.0633 27.4977 88.4419 28.0377 89.2008 28.0377C89.5491 28.0377 89.8381 28.0076 90.0666 27.9474L90.1206 29.424C89.7366 29.5672 89.231 29.6392 88.6046 29.6392C87.8348 29.6392 87.2332 29.4048 86.7988 28.9369C86.3664 28.4682 86.1487 27.682 86.1487 26.5775V22.1659H84.8687V20.7068H86.1487V19.1043L88.0633 18.5278V20.7068H90.212V22.1678Z" fill="#DA2031"/>
<path id="Vector_9" d="M99.9065 25.013C99.9065 26.3582 99.5204 27.4627 98.7512 28.3265C97.9438 29.2157 96.8719 29.6589 95.5361 29.6589C94.2487 29.6589 93.2237 29.233 92.4593 28.3812C91.6949 27.5293 91.3127 26.454 91.3127 25.158C91.3127 23.8018 91.706 22.691 92.495 21.8272C93.2822 20.9626 94.3447 20.5303 95.6805 20.5303C96.9678 20.5303 98.0034 20.9562 98.7854 21.809C99.5331 22.6362 99.9065 23.7042 99.9065 25.013ZM97.8842 25.0759C97.8842 24.2688 97.7112 23.5766 97.3611 22.9992C96.9523 22.3006 96.3681 21.9522 95.6111 21.9522C94.8274 21.9522 94.2322 22.3015 93.8235 22.9992C93.4733 23.5774 93.3005 24.2806 93.3005 25.1124C93.3005 25.9196 93.4733 26.6118 93.8235 27.1883C94.245 27.8868 94.8338 28.2352 95.5937 28.2352C96.3379 28.2352 96.9222 27.8795 97.3437 27.1699C97.703 26.5817 97.8842 25.8821 97.8842 25.0759Z" fill="#DA2031"/>
<path id="Vector_10" d="M106.245 22.419C106.053 22.3835 105.846 22.3652 105.63 22.3652C104.945 22.3652 104.414 22.6233 104.042 23.1404C103.718 23.5965 103.554 24.1729 103.554 24.8687V29.4609H101.606L101.624 23.4651C101.624 22.4564 101.599 21.5379 101.552 20.7099H103.249L103.321 22.3843H103.374C103.58 21.8089 103.904 21.3456 104.349 20.9981C104.783 20.6852 105.252 20.5293 105.757 20.5293C105.938 20.5293 106.101 20.5421 106.245 20.5648V22.419Z" fill="#DA2031"/>
<path id="Vector_11" d="M114.962 24.6712C114.962 25.0195 114.94 25.3132 114.891 25.5531H109.043C109.065 26.4177 109.348 27.0789 109.891 27.5349C110.384 27.9426 111.021 28.1469 111.804 28.1469C112.67 28.1469 113.46 28.0092 114.17 27.7329L114.475 29.0827C113.645 29.4439 112.665 29.6235 111.534 29.6235C110.174 29.6235 109.106 29.224 108.328 28.426C107.553 27.628 107.165 26.5563 107.165 25.212C107.165 23.8922 107.526 22.7932 108.249 21.9168C109.007 20.981 110.029 20.5132 111.316 20.5132C112.581 20.5132 113.539 20.981 114.189 21.9168C114.703 22.6601 114.962 23.5795 114.962 24.6712ZM113.103 24.1668C113.116 23.5904 112.989 23.0924 112.725 22.6719C112.388 22.1311 111.868 21.8611 111.172 21.8611C110.534 21.8611 110.015 22.1248 109.619 22.6537C109.295 23.0741 109.102 23.5785 109.043 24.1658L113.103 24.1668Z" fill="#DA2031"/>
<path id="Vector_12" d="M43.8585 7.79056L43.3439 7.38525C43.7366 6.80431 44.3191 6.50708 45.0775 6.50708C45.6193 6.50708 46.0527 6.64219 46.3507 6.9259C46.6622 7.20962 46.8246 7.57439 46.8246 8.03375C46.8246 8.33097 46.7434 8.58767 46.5945 8.81734C46.4455 9.03351 46.2423 9.19563 45.9985 9.31723C46.3912 9.41179 46.6893 9.60093 46.8924 9.88465C47.1091 10.1684 47.2039 10.5061 47.2039 10.8844C47.2039 11.5059 46.9466 12.0058 46.4455 12.3571C46.0527 12.6272 45.6057 12.7488 45.064 12.7488C44.5087 12.7488 44.0617 12.6138 43.6959 12.33C43.3303 12.0463 43.0594 11.7086 42.8833 11.3033L43.5335 11.0195C43.6554 11.3573 43.8585 11.6275 44.1294 11.8302C44.4139 12.0328 44.7254 12.1273 45.0911 12.1273C45.4567 12.1273 45.7682 12.0463 46.012 11.8706C46.3371 11.641 46.4996 11.3167 46.4996 10.898C46.4996 10.1144 45.9578 9.70902 44.8878 9.70902H44.3461V9.07403H44.8878C45.2807 9.07403 45.5922 8.97947 45.8089 8.79033C46.0256 8.60118 46.1204 8.35799 46.1204 8.06076C46.1204 7.80406 46.0392 7.58791 45.8766 7.42577C45.7005 7.23663 45.4296 7.14207 45.064 7.14207C44.5763 7.14207 44.17 7.35823 43.8585 7.79056ZM51.1588 9.4253V8.8984H51.8089V12.6542H51.1588V12.1273C50.8337 12.5462 50.4003 12.7624 49.8721 12.7624C49.371 12.7624 48.9376 12.5867 48.5719 12.2355C48.2198 11.8842 48.0437 11.3978 48.0437 10.7764C48.0437 10.1548 48.2198 9.682 48.5719 9.34424C48.924 8.99298 49.3575 8.81734 49.8721 8.81734C50.4139 8.80383 50.8473 9.00648 51.1588 9.4253ZM49.9533 9.38477C49.6148 9.38477 49.3168 9.50637 49.0731 9.74955C48.8428 9.99277 48.7209 10.3305 48.7209 10.7628C48.7209 11.1817 48.8292 11.5194 49.046 11.7896C49.2762 12.0463 49.5742 12.1814 49.9533 12.1814C50.3326 12.1814 50.6306 12.0463 50.8608 11.776C51.0911 11.5059 51.1995 11.1681 51.1995 10.7764C51.1995 10.3305 51.0776 9.99277 50.8202 9.74955C50.5629 9.49285 50.2784 9.38477 49.9533 9.38477ZM53.055 12.6408V8.88489H55.2898V9.47935H53.7187V12.6408H53.055ZM56.59 12.1139V14.7483H55.9399V8.88489H56.59V9.41179C56.9287 9.00648 57.3485 8.79033 57.8767 8.79033C58.432 8.79033 58.879 8.99297 59.2041 9.38477C59.5427 9.77662 59.7052 10.2359 59.7052 10.7764C59.7052 11.3167 59.5427 11.7896 59.2176 12.1679C58.8926 12.5462 58.4592 12.7354 57.9038 12.7354C57.3621 12.7488 56.9151 12.5462 56.59 12.1139ZM57.8225 12.1679C58.1882 12.1679 58.4862 12.0328 58.7164 11.776C58.9467 11.5059 59.0551 11.1817 59.0551 10.7898C59.0551 10.3575 58.9331 10.0062 58.6893 9.76306C58.4456 9.50637 58.1611 9.38477 57.8225 9.38477C57.4975 9.38477 57.1995 9.50637 56.9557 9.76306C56.6984 10.0198 56.5765 10.3575 56.5765 10.7898C56.5765 11.1817 56.6848 11.5194 56.9151 11.7896C57.1318 12.0463 57.4433 12.1679 57.8225 12.1679ZM60.6804 14.7619L61.8994 12.2895L60.1657 8.88489H60.9106L62.238 11.5734L63.4569 8.88489H64.1882L61.3982 14.7483H60.6804V14.7619ZM65.2853 9.84409L64.8384 9.47935C64.9874 9.26318 65.15 9.11457 65.3125 9.00648C65.5427 8.87139 65.8271 8.80383 66.1386 8.80383C66.5179 8.80383 66.8159 8.88489 67.0326 9.06053C67.2493 9.24967 67.3576 9.47935 67.3576 9.77662C67.3576 10.1278 67.2222 10.3845 66.9378 10.5601C67.1138 10.6007 67.2628 10.6818 67.3712 10.8034C67.5472 10.9925 67.6286 11.2222 67.6286 11.4924C67.6286 11.8977 67.466 12.2219 67.1409 12.4651C66.8701 12.6542 66.5179 12.7488 66.0709 12.7488C65.6782 12.7488 65.3396 12.6408 65.0686 12.4381C64.8655 12.2895 64.703 12.0733 64.5675 11.7896L65.1364 11.5599C65.2041 11.722 65.3125 11.8706 65.475 11.9788C65.6375 12.1003 65.8542 12.1679 66.098 12.1679C66.3824 12.1679 66.5991 12.1139 66.7346 12.0193C66.9106 11.9112 66.9919 11.7356 66.9919 11.4924C66.9919 11.3033 66.9106 11.1546 66.7617 11.06C66.6398 10.979 66.4231 10.9384 66.1386 10.9384H65.7594V10.344H66.0709C66.3012 10.344 66.4637 10.317 66.5585 10.2494C66.6939 10.1684 66.7617 10.0468 66.7617 9.91165C66.7617 9.74955 66.7075 9.61445 66.5991 9.51988C66.4908 9.4253 66.3418 9.38477 66.1251 9.38477C65.9355 9.38477 65.7594 9.43882 65.6104 9.53338C65.4615 9.61444 65.3667 9.72253 65.2853 9.84409ZM68.6308 8.88489H69.2809V11.3573L71.8542 8.58766V12.6272H71.2041V10.1278L68.6308 12.8975V8.88489ZM75.5518 9.49285H74.3735V12.6542H73.7234V9.49285H72.545V8.8984H75.5518V9.49285ZM79.0327 11.3843L79.5745 11.6816C79.4526 11.9247 79.29 12.1273 79.1139 12.2895C78.7753 12.6002 78.3555 12.7488 77.8679 12.7488C77.3667 12.7488 76.9198 12.5867 76.5541 12.2625C76.1884 11.9247 76.0124 11.4383 76.0124 10.7898C76.0124 10.2224 76.1748 9.74955 76.4999 9.37126C76.8385 8.99298 77.2719 8.80383 77.8273 8.80383C78.4503 8.80383 78.9244 9.03351 79.2494 9.49285C79.5067 9.85764 79.615 10.3305 79.6016 10.898H76.676C76.676 11.2762 76.798 11.587 77.0281 11.8166C77.2584 12.0463 77.5429 12.1679 77.8679 12.1679C78.1659 12.1679 78.4232 12.0733 78.6399 11.8977C78.816 11.7626 78.9379 11.587 79.0327 11.3843ZM76.7166 10.3575H78.9244C78.8701 10.0602 78.7348 9.83063 78.5315 9.65497C78.3284 9.47935 78.0981 9.38477 77.8137 9.38477C77.5429 9.38477 77.299 9.47934 77.0823 9.66849C76.8927 9.84409 76.7708 10.0738 76.7166 10.3575ZM82.7167 8.88489H84.1388C84.4774 8.88489 84.7483 8.95245 84.9244 9.10106C85.1411 9.27669 85.2494 9.50637 85.2494 9.80362C85.2494 10.1278 85.114 10.3845 84.8431 10.5601C85.0327 10.6142 85.1818 10.6953 85.3172 10.8168C85.5204 11.006 85.6152 11.2492 85.6152 11.5464C85.6152 11.9112 85.4797 12.1949 85.2223 12.3976C85.0056 12.5597 84.7077 12.6542 84.3285 12.6542H82.7032V8.88489H82.7167ZM83.3804 10.4251H84.0711C84.2471 10.4251 84.3826 10.3845 84.491 10.317C84.6129 10.2224 84.6671 10.1008 84.6671 9.92521C84.6671 9.77662 84.6129 9.65498 84.491 9.56041C84.3962 9.50637 84.2201 9.46583 83.9627 9.46583H83.3804V10.4251ZM83.3804 12.0598H84.193C84.4774 12.0598 84.6671 12.0193 84.7889 11.9382C84.9379 11.8302 85.0056 11.695 85.0056 11.5194C85.0056 11.3437 84.9379 11.1951 84.816 11.1006C84.6941 11.006 84.5045 10.9654 84.2337 10.9654H83.3939V12.0598H83.3804Z" fill="#DA2031"/>
</g>
<defs>
<clipPath id="clip0_88_232">
<rect width="130" height="39" fill="white"/>
</clipPath>
</defs>
</svg>
