<svg width="133" height="40" viewBox="0 0 133 40" fill="none" xmlns="http://www.w3.org/2000/svg">
<g clip-path="url(#clip0_6685_15651)">
<path fill-rule="evenodd" clip-rule="evenodd" d="M0.0751953 34.3441V5.5316C0.0751953 2.63839 2.42061 0.292969 5.31383 0.292969H127.374C130.267 0.292969 132.613 2.63838 132.613 5.5316V34.3441C132.613 37.2373 130.267 39.5827 127.374 39.5827H5.31383C2.42061 39.5827 0.0751953 37.2373 0.0751953 34.3441ZM0.86099 34.3441V5.5316C0.86099 3.07237 2.85459 1.07876 5.31383 1.07876H127.374C129.833 1.07876 131.827 3.07237 131.827 5.5316V34.3441C131.827 36.8033 129.833 38.7969 127.374 38.7969H5.31383C2.85459 38.7969 0.86099 36.8033 0.86099 34.3441Z" fill="black"/>
<path d="M47.8064 29.6289L46.686 26.5133H42.3964L41.299 29.6289H39.3652L43.5628 18.3638H45.558L49.7555 29.6289H47.8064ZM46.2026 24.9325L45.1513 21.8784C45.0745 21.6737 44.9671 21.3514 44.829 20.9115C44.696 20.4715 44.6039 20.1492 44.5527 19.9446C44.4146 20.5738 44.2125 21.2619 43.9465 22.0088L42.9335 24.9325H46.2026Z" fill="black"/>
<path d="M55.114 29.7824C54.0396 29.7824 53.2058 29.3961 52.6123 28.6236H52.5049C52.5765 29.3398 52.6123 29.7747 52.6123 29.9282V33.4044H50.809V21.1417H52.267C52.3079 21.3003 52.3923 21.6788 52.5202 22.2774H52.6123C53.1751 21.4179 54.0192 20.9882 55.1447 20.9882C56.2037 20.9882 57.0273 21.3719 57.6156 22.1393C58.2091 22.9066 58.5058 23.9835 58.5058 25.3699C58.5058 26.7563 58.204 27.8383 57.6003 28.6159C57.0017 29.3935 56.173 29.7824 55.114 29.7824ZM54.6766 22.4616C53.9604 22.4616 53.436 22.6713 53.1034 23.0908C52.776 23.5103 52.6123 24.1805 52.6123 25.1013V25.3699C52.6123 26.4033 52.776 27.1528 53.1034 27.6183C53.4309 28.0788 53.9655 28.309 54.7073 28.309C55.3314 28.309 55.8123 28.0532 56.1499 27.5416C56.4876 27.03 56.6564 26.301 56.6564 25.3546C56.6564 24.403 56.4876 23.6843 56.1499 23.1983C55.8174 22.7071 55.3263 22.4616 54.6766 22.4616Z" fill="black"/>
<path d="M64.67 29.7824C63.5957 29.7824 62.7618 29.3961 62.1683 28.6236H62.0609C62.1325 29.3398 62.1683 29.7747 62.1683 29.9282V33.4044H60.365V21.1417H61.823C61.8639 21.3003 61.9483 21.6788 62.0762 22.2774H62.1683C62.7311 21.4179 63.5752 20.9882 64.7007 20.9882C65.7597 20.9882 66.5833 21.3719 67.1716 22.1393C67.7651 22.9066 68.0618 23.9835 68.0618 25.3699C68.0618 26.7563 67.76 27.8383 67.1563 28.6159C66.5577 29.3935 65.729 29.7824 64.67 29.7824ZM64.2326 22.4616C63.5164 22.4616 62.992 22.6713 62.6595 23.0908C62.332 23.5103 62.1683 24.1805 62.1683 25.1013V25.3699C62.1683 26.4033 62.332 27.1528 62.6595 27.6183C62.9869 28.0788 63.5215 28.309 64.2633 28.309C64.8874 28.309 65.3683 28.0532 65.7059 27.5416C66.0436 27.03 66.2124 26.301 66.2124 25.3546C66.2124 24.403 66.0436 23.6843 65.7059 23.1983C65.3734 22.7071 64.8823 22.4616 64.2326 22.4616Z" fill="black"/>
<path d="M74.7018 23.5436H78.8303V29.1761C78.155 29.3961 77.5053 29.5521 76.8811 29.6442C76.2621 29.7363 75.5919 29.7824 74.8706 29.7824C73.1721 29.7824 71.8625 29.281 70.9416 28.2783C70.0208 27.2705 69.5603 25.8508 69.5603 24.0193C69.5603 22.2134 70.0796 20.8015 71.1181 19.7834C72.1566 18.7602 73.5865 18.2487 75.4078 18.2487C76.5793 18.2487 77.6894 18.4738 78.7382 18.924L78.0936 20.451C77.183 20.0315 76.2723 19.8218 75.3617 19.8218C74.1646 19.8218 73.2182 20.1978 72.5224 20.9498C71.8267 21.7019 71.4788 22.7301 71.4788 24.0347C71.4788 25.4057 71.7908 26.4494 72.415 27.1656C73.0442 27.8767 73.9472 28.2323 75.1238 28.2323C75.7173 28.2323 76.3516 28.1581 77.0269 28.0097V25.1167H74.7018V23.5436Z" fill="black"/>
<path d="M86.4141 29.6289L86.0534 28.4471H85.992C85.5828 28.9638 85.1709 29.3168 84.7566 29.5061C84.3422 29.6903 83.8101 29.7824 83.1604 29.7824C82.3265 29.7824 81.6743 29.5573 81.2036 29.1071C80.7381 28.6569 80.5053 28.0199 80.5053 27.1963C80.5053 26.3215 80.8301 25.6615 81.4799 25.2165C82.1296 24.7714 83.1195 24.5284 84.4496 24.4874L85.9153 24.4414V23.9886C85.9153 23.4464 85.7874 23.0422 85.5316 22.7762C85.2809 22.5051 84.8896 22.3695 84.3575 22.3695C83.9227 22.3695 83.5057 22.4334 83.1067 22.5613C82.7077 22.6892 82.324 22.8401 81.9556 23.0141L81.3724 21.7249C81.8329 21.4844 82.3368 21.3028 82.8842 21.18C83.4316 21.0522 83.9483 20.9882 84.4343 20.9882C85.5137 20.9882 86.3271 21.2235 86.8745 21.6942C87.427 22.1648 87.7033 22.9041 87.7033 23.9119V29.6289H86.4141ZM83.7283 28.4011C84.3831 28.4011 84.9075 28.2195 85.3014 27.8562C85.7004 27.4879 85.9 26.9738 85.9 26.3138V25.5771L84.8103 25.6232C83.961 25.6539 83.342 25.7971 82.9532 26.0529C82.5695 26.3036 82.3777 26.6898 82.3777 27.2116C82.3777 27.5902 82.4902 27.8844 82.7153 28.0941C82.9404 28.2988 83.2781 28.4011 83.7283 28.4011Z" fill="black"/>
<path d="M91.7879 29.6289H89.9846V17.6885H91.7879V29.6289Z" fill="black"/>
<path d="M95.9416 29.6289H94.1382V17.6885H95.9416V29.6289Z" fill="black"/>
<path d="M101.998 29.7824C100.678 29.7824 99.645 29.3987 98.8981 28.6313C98.1563 27.8588 97.7854 26.7973 97.7854 25.4467C97.7854 24.0603 98.1307 22.9706 98.8214 22.1776C99.512 21.3847 100.461 20.9882 101.668 20.9882C102.789 20.9882 103.674 21.3284 104.323 22.0088C104.973 22.6892 105.298 23.6254 105.298 24.8174V25.792H99.6425C99.668 26.6156 99.8906 27.25 100.31 27.6951C100.73 28.135 101.32 28.355 102.083 28.355C102.584 28.355 103.05 28.309 103.479 28.2169C103.914 28.1197 104.38 27.9611 104.876 27.7411V29.2068C104.436 29.4166 103.991 29.5649 103.541 29.6519C103.091 29.7389 102.576 29.7824 101.998 29.7824ZM101.668 22.3541C101.095 22.3541 100.635 22.5357 100.287 22.899C99.9443 23.2622 99.7397 23.7917 99.6732 24.4874H103.525C103.515 23.7866 103.346 23.2571 103.019 22.899C102.692 22.5357 102.241 22.3541 101.668 22.3541Z" fill="black"/>
<path d="M111.416 20.9882C111.779 20.9882 112.079 21.0138 112.314 21.0649L112.138 22.7455C111.882 22.6841 111.616 22.6534 111.339 22.6534C110.618 22.6534 110.032 22.8887 109.582 23.3594C109.137 23.8301 108.915 24.4414 108.915 25.1934V29.6289H107.111V21.1417H108.523L108.761 22.6381H108.853C109.135 22.1316 109.5 21.73 109.951 21.4333C110.406 21.1366 110.894 20.9882 111.416 20.9882Z" fill="black"/>
<path d="M112.37 21.1417H114.334L116.061 25.9531C116.322 26.6387 116.496 27.2833 116.583 27.8869H116.644C116.69 27.6056 116.775 27.2654 116.897 26.8663C117.02 26.4622 117.67 24.554 118.847 21.1417H120.796L117.166 30.7569C116.506 32.5219 115.406 33.4044 113.866 33.4044C113.467 33.4044 113.078 33.3609 112.7 33.2739V31.8466C112.971 31.908 113.281 31.9387 113.628 31.9387C114.498 31.9387 115.109 31.4348 115.462 30.427L115.777 29.6289L112.37 21.1417Z" fill="black"/>
<path d="M45.0856 11.3626C45.0856 12.2758 44.8567 12.9856 44.3988 13.4921C43.9435 13.9986 43.2977 14.2518 42.4612 14.2518C41.6145 14.2518 40.9635 14.0011 40.5082 13.4998C40.0555 12.9959 39.8291 12.2809 39.8291 11.355C39.8291 10.429 40.0568 9.71788 40.5121 9.22165C40.9699 8.72541 41.6222 8.47729 42.4689 8.47729C43.3028 8.47729 43.9474 8.72924 44.4027 9.23316C44.858 9.73707 45.0856 10.4469 45.0856 11.3626ZM40.8037 11.3626C40.8037 12.0533 40.9431 12.5776 41.2219 12.9358C41.5007 13.2913 41.9138 13.4691 42.4612 13.4691C43.006 13.4691 43.4166 13.2926 43.6928 12.9396C43.9717 12.5866 44.1111 12.0609 44.1111 11.3626C44.1111 10.6745 43.9729 10.1527 43.6967 9.79718C43.423 9.44163 43.0137 9.26385 42.4689 9.26385C41.9189 9.26385 41.5033 9.44163 41.2219 9.79718C40.9431 10.1527 40.8037 10.6745 40.8037 11.3626Z" fill="black"/>
<path d="M48.2281 14.1751H47.311V9.3521H45.6612V8.56554H49.8779V9.3521H48.2281V14.1751Z" fill="black"/>
<path d="M55.0462 14.1751H53.968L51.6582 11.3319V14.1751H50.7412V8.56554H51.6582V11.2821L53.9297 8.56554H54.9349L52.6712 11.2744L55.0462 14.1751Z" fill="black"/>
<path d="M59.5047 10.2614C59.5047 10.8472 59.3128 11.2961 58.9291 11.6082C58.5455 11.9203 57.9993 12.0763 57.2908 12.0763H56.7076V14.1751H55.7906V8.56554H57.4059C58.1068 8.56554 58.6311 8.70878 58.979 8.99527C59.3295 9.28176 59.5047 9.70381 59.5047 10.2614ZM56.7076 11.3051H57.1949C57.6655 11.3051 58.0108 11.2232 58.2308 11.0595C58.4508 10.8958 58.5608 10.64 58.5608 10.2921C58.5608 9.96984 58.4623 9.72939 58.2654 9.5708C58.0684 9.41221 57.7614 9.33292 57.3445 9.33292H56.7076V11.3051Z" fill="black"/>
<path d="M65.6053 11.3626C65.6053 12.2758 65.3764 12.9856 64.9185 13.4921C64.4632 13.9986 63.8173 14.2518 62.9809 14.2518C62.1342 14.2518 61.4832 14.0011 61.0279 13.4998C60.5752 12.9959 60.3488 12.2809 60.3488 11.355C60.3488 10.429 60.5764 9.71788 61.0318 9.22165C61.4896 8.72541 62.1419 8.47729 62.9886 8.47729C63.8225 8.47729 64.4671 8.72924 64.9224 9.23316C65.3777 9.73707 65.6053 10.4469 65.6053 11.3626ZM61.3234 11.3626C61.3234 12.0533 61.4628 12.5776 61.7416 12.9358C62.0204 13.2913 62.4335 13.4691 62.9809 13.4691C63.5257 13.4691 63.9363 13.2926 64.2125 12.9396C64.4914 12.5866 64.6308 12.0609 64.6308 11.3626C64.6308 10.6745 64.4926 10.1527 64.2164 9.79718C63.9427 9.44163 63.5334 9.26385 62.9886 9.26385C62.4386 9.26385 62.023 9.44163 61.7416 9.79718C61.4628 10.1527 61.3234 10.6745 61.3234 11.3626Z" fill="black"/>
<path d="M66.8101 8.56554H67.6504V11.4816C67.6504 11.786 67.6427 12.0942 67.6274 12.4063C67.612 12.7158 67.6005 12.9255 67.5928 13.0355H67.6274L70.4935 8.56554H71.564V14.1751H70.7199V11.2821C70.7199 10.8395 70.7442 10.3024 70.7928 9.67056H70.7621L67.8844 14.1751H66.8101V8.56554ZM69.2158 8.11662C68.6736 8.11662 68.2758 8.01942 68.0226 7.82502C67.7719 7.62806 67.6325 7.30064 67.6043 6.84277H68.4216C68.437 7.02694 68.4715 7.17019 68.5252 7.27251C68.5815 7.37482 68.6608 7.449 68.7631 7.49504C68.868 7.53853 69.0266 7.56027 69.2389 7.56027C69.4895 7.56027 69.6801 7.50528 69.8106 7.39529C69.941 7.28274 70.0203 7.09857 70.0484 6.84277H70.8811C70.8427 7.28274 70.6879 7.60504 70.4168 7.80967C70.1456 8.0143 69.7453 8.11662 69.2158 8.11662Z" fill="black"/>
<path d="M74.9712 14.1751H74.0542V9.3521H72.4043V8.56554H76.621V9.3521H74.9712V14.1751Z" fill="black"/>
<path d="M80.6574 14.1751H77.4843V8.56554H80.6574V9.34059H78.4014V10.8677H80.5155V11.635H78.4014V13.3962H80.6574V14.1751Z" fill="black"/>
<path d="M83.915 8.56554H85.5802C86.3527 8.56554 86.9103 8.67809 87.2531 8.90318C87.5984 9.12828 87.771 9.48383 87.771 9.96984C87.771 10.2973 87.6866 10.5697 87.5178 10.7871C87.349 11.0045 87.106 11.1414 86.7888 11.1976V11.236C87.1827 11.3102 87.4718 11.4573 87.6559 11.6773C87.8427 11.8947 87.936 12.1901 87.936 12.5636C87.936 13.0675 87.7595 13.4627 87.4065 13.7492C87.0561 14.0331 86.5675 14.1751 85.9408 14.1751H83.915V8.56554ZM84.832 10.883H85.7145C86.0982 10.883 86.3783 10.8229 86.5547 10.7027C86.7312 10.5799 86.8195 10.3727 86.8195 10.0811C86.8195 9.81764 86.7236 9.62708 86.5317 9.50941C86.3424 9.39175 86.0406 9.33292 85.6262 9.33292H84.832V10.883ZM84.832 11.6274V13.4039H85.8066C86.1902 13.4039 86.4793 13.331 86.6737 13.1852C86.8707 13.0368 86.9691 12.804 86.9691 12.4868C86.9691 12.1952 86.8694 11.9791 86.6699 11.8384C86.4703 11.6977 86.1672 11.6274 85.7605 11.6274H84.832Z" fill="black"/>
<path d="M20.4889 21.927H21.4878L20.9867 20.7615L20.4889 21.927Z" fill="black"/>
<path fill-rule="evenodd" clip-rule="evenodd" d="M16.6167 7.49512C11.5046 7.49512 9.63477 9.36459 9.63477 14.4757V25.3981C9.63477 30.5092 11.5046 32.3786 16.6167 32.3786H27.5331C32.645 32.3786 34.5183 30.5092 34.5183 25.3981V14.4757C34.5183 9.36459 32.6485 7.49512 27.5364 7.49512H16.6167ZM20.2429 22.5144L19.9465 23.1926H19.2717L20.7067 19.9371H21.2899L22.719 23.1926H22.0262L21.7336 22.5144H20.2429ZM31.1013 23.1902H31.7535V19.9369H31.1013V23.1902ZM28.5055 21.7926H29.7077V21.1994H28.5055V20.5327H30.2507V19.9393H27.8535V23.1924H30.3135V22.599H28.5055V21.7926ZM25.9142 22.177L25.1748 19.9369H24.6352L23.8958 22.177L23.1762 19.9387H22.4726L23.6082 23.1944H24.1552L24.8958 21.0559L25.6364 23.1944H26.1882L27.3207 19.9387H26.6354L25.9142 22.177ZM18.2761 21.8016C18.2761 22.3312 18.0131 22.6142 17.5355 22.6142C17.0553 22.6142 16.7909 22.323 16.7909 21.779V19.9391H16.1299V21.8016C16.1299 22.7178 16.6391 23.2432 17.5265 23.2432C18.4227 23.2432 18.9365 22.7078 18.9365 21.7744V19.9371H18.2761V21.8016ZM14.553 19.9371H15.2136V23.1946H14.553V21.8716H13.0606V23.1946H12.3996V19.9371H13.0606V21.251H14.553V19.9371ZM17.9293 11.6424C17.9293 13.9292 19.7895 15.7896 22.0765 15.7896C24.3633 15.7896 26.2238 13.9292 26.2238 11.6424H25.638C25.638 13.606 24.0401 15.2036 22.0765 15.2036C20.1129 15.2036 18.5151 13.606 18.5151 11.6424H17.9293Z" fill="black"/>
</g>
<defs>
<clipPath id="clip0_6685_15651">
<rect width="132.537" height="39.2898" fill="white" transform="translate(0.0751953 0.292969)"/>
</clipPath>
</defs>
</svg>
