<svg width="14" height="45" viewBox="0 0 14 45" fill="none" xmlns="http://www.w3.org/2000/svg">
<g id="Arrow-up" clip-path="url(#clip0_1022_5239)">
<path id="Arrow 1" d="M7 0.666667C4.05448 0.666667 1.66667 3.05448 1.66667 6C1.66667 8.94552 4.05448 11.3333 7 11.3333C9.94552 11.3333 12.3333 8.94552 12.3333 6C12.3333 3.05448 9.94552 0.666666 7 0.666667ZM6 6L6 8.15L8 8.15L8 6L6 6ZM6 12.45L6 16.75L8 16.75L8 12.45L6 12.45ZM6 21.05L6 25.35L8 25.35L8 21.05L6 21.05ZM6 29.65L6 33.95L8 33.95L8 29.65L6 29.65ZM6 38.25L6 42.55L8 42.55L8 38.25L6 38.25ZM6 46.85L6 49L8 49L8 46.85L6 46.85ZM7 0.666667C4.05448 0.666667 1.66667 3.05448 1.66667 6C1.66667 8.94552 4.05448 11.3333 7 11.3333C9.94552 11.3333 12.3333 8.94552 12.3333 6C12.3333 3.05448 9.94552 0.666666 7 0.666667ZM6 6L6 8.15L8 8.15L8 6L6 6ZM6 12.45L6 16.75L8 16.75L8 12.45L6 12.45ZM6 21.05L6 25.35L8 25.35L8 21.05L6 21.05ZM6 29.65L6 33.95L8 33.95L8 29.65L6 29.65ZM6 38.25L6 42.55L8 42.55L8 38.25L6 38.25ZM6 46.85L6 49L8 49L8 46.85L6 46.85Z" fill="#DA2031"/>
</g>
<defs>
<clipPath id="clip0_1022_5239">
<rect width="14" height="45" fill="white"/>
</clipPath>
</defs>
</svg>
