<svg width="16" height="44" viewBox="0 0 16 44" fill="none" xmlns="http://www.w3.org/2000/svg">
<g id="Arrow-donw" clip-path="url(#clip0_1022_5240)">
<path id="Arrow 2" d="M7.2929 43.7071C7.68342 44.0976 8.31658 44.0976 8.70711 43.7071L15.0711 37.3431C15.4616 36.9526 15.4616 36.3195 15.0711 35.9289C14.6805 35.5384 14.0474 35.5384 13.6569 35.9289L8 41.5858L2.34315 35.9289C1.95262 35.5384 1.31946 35.5384 0.928934 35.9289C0.538409 36.3195 0.538409 36.9526 0.928934 37.3431L7.2929 43.7071ZM7 4.37114e-08L7 2.15L9 2.15L9 -4.37114e-08L7 4.37114e-08ZM7 6.45L7 10.75L9 10.75L9 6.45L7 6.45ZM7 15.05L7 19.35L9 19.35L9 15.05L7 15.05ZM7 23.65L7 27.95L9 27.95L9 23.65L7 23.65ZM7 32.25L7 36.55L9 36.55L9 32.25L7 32.25ZM7 40.85L7 43L9 43L9 40.85L7 40.85ZM7.2929 43.7071C7.68342 44.0976 8.31658 44.0976 8.70711 43.7071L15.0711 37.3431C15.4616 36.9526 15.4616 36.3195 15.0711 35.9289C14.6805 35.5384 14.0474 35.5384 13.6569 35.9289L8 41.5858L2.34315 35.9289C1.95262 35.5384 1.31946 35.5384 0.928934 35.9289C0.538409 36.3195 0.538409 36.9526 0.928934 37.3431L7.2929 43.7071ZM7 4.37114e-08L7 2.15L9 2.15L9 -4.37114e-08L7 4.37114e-08ZM7 6.45L7 10.75L9 10.75L9 6.45L7 6.45ZM7 15.05L7 19.35L9 19.35L9 15.05L7 15.05ZM7 23.65L7 27.95L9 27.95L9 23.65L7 23.65ZM7 32.25L7 36.55L9 36.55L9 32.25L7 32.25ZM7 40.85L7 43L9 43L9 40.85L7 40.85Z" fill="#DA2031"/>
</g>
<defs>
<clipPath id="clip0_1022_5240">
<rect width="16" height="44" fill="white"/>
</clipPath>
</defs>
</svg>
