<svg width="24" height="48" viewBox="0 0 24 48" fill="none" xmlns="http://www.w3.org/2000/svg">
<g id="Back" clip-path="url(#clip0_525_8173)">
<g id="Vector">
<path d="M10.4625 1.30002L10.4625 46.77L8.4625 46.77L8.4625 1.30002C8.4625 1.13002 8.5925 1.00002 8.7625 1.00002L10.1625 1.00002C10.3325 1.00002 10.4625 1.13002 10.4625 1.30002Z" fill="#003EDE"/>
<path d="M10.4625 1.30002L10.4625 46.77L8.4625 46.77L8.4625 1.30002C8.4625 1.13002 8.5925 1.00002 8.7625 1.00002L10.1625 1.00002C10.3325 1.00002 10.4625 1.13002 10.4625 1.30002Z" fill="white" fill-opacity="0.4"/>
<path d="M17.7425 39.9L9.8825 47.76C9.6525 47.99 9.2725 47.99 9.0325 47.76L1.1725 39.9C0.9425 39.67 0.9425 39.29 1.1725 39.05L1.7425 38.48C1.9725 38.25 2.3525 38.25 2.5925 38.48L9.4625 45.35L16.3325 38.48C16.5625 38.25 16.9425 38.25 17.1825 38.48L17.7525 39.05C17.9825 39.28 17.9825 39.66 17.7525 39.9L17.7425 39.9Z" fill="#003EDE"/>
<path d="M17.7425 39.9L9.8825 47.76C9.6525 47.99 9.2725 47.99 9.0325 47.76L1.1725 39.9C0.9425 39.67 0.9425 39.29 1.1725 39.05L1.7425 38.48C1.9725 38.25 2.3525 38.25 2.5925 38.48L9.4625 45.35L16.3325 38.48C16.5625 38.25 16.9425 38.25 17.1825 38.48L17.7525 39.05C17.9825 39.28 17.9825 39.66 17.7525 39.9L17.7425 39.9Z" fill="white" fill-opacity="0.4"/>
</g>
<g id="Ellipse 1">
<circle cx="9.46252" cy="4" r="4" fill="#003EDE"/>
<circle cx="9.46252" cy="4" r="4" fill="white" fill-opacity="0.4"/>
</g>
</g>
<defs>
<clipPath id="clip0_525_8173">
<rect width="48" height="24" fill="white" transform="translate(0 48) rotate(-90)"/>
</clipPath>
</defs>
</svg>
