<svg width="24" height="24" viewBox="0 0 24 24" fill="none" xmlns="http://www.w3.org/2000/svg">
<g id="Attention">
<g id="Vector">
<path d="M12 18.49C11.74 18.49 11.49 18.38 11.3 18.19C11.2 18.1 11.13 17.99 11.08 17.87C11.03 17.75 11 17.62 11 17.49C11 17.36 11.03 17.23 11.08 17.11C11.13 16.98 11.2 16.87 11.3 16.78C11.67 16.41 12.34 16.41 12.71 16.78C12.8 16.87 12.88 16.98 12.93 17.11C12.98 17.23 13 17.36 13 17.49C13 17.75 12.9 18.01 12.71 18.19C12.52 18.38 12.27 18.49 12 18.49Z" fill="#070707"/>
<path d="M12 3C16.96 3 21 7.04 21 12C21 16.96 16.96 21 12 21C7.04 21 3 16.96 3 12C3 7.04 7.04 3 12 3ZM12 1C5.92 1 1 5.92 1 12C1 18.08 5.92 23 12 23C18.08 23 23 18.08 23 12C23 5.92 18.08 1 12 1Z" fill="#070707"/>
<path d="M11.6 5.5H12.4C12.73 5.5 13 5.77 13 6.1V13.9C13 14.23 12.73 14.5 12.4 14.5H11.6C11.27 14.5 11 14.23 11 13.9V6.1C11 5.77 11.27 5.5 11.6 5.5Z" fill="#070707"/>
</g>
</g>
</svg>
