<svg width="24" height="24" viewBox="0 0 24 24" fill="none" xmlns="http://www.w3.org/2000/svg">
<g id="Back">
<g id="Vector">
<path d="M20.67 13H4.19995V11H20.67C20.84 11 20.97 11.13 20.97 11.3V12.7C20.97 12.87 20.84 13 20.67 13Z" fill="#070707"/>
<path d="M11.07 20.28L3.20998 12.42C2.97998 12.19 2.97998 11.81 3.20998 11.57L11.07 3.71C11.3 3.48 11.68 3.48 11.92 3.71L12.49 4.28C12.72 4.51 12.72 4.89 12.49 5.13L5.61998 12L12.49 18.87C12.72 19.1 12.72 19.48 12.49 19.72L11.92 20.29C11.69 20.52 11.31 20.52 11.07 20.29V20.28Z" fill="#070707"/>
</g>
</g>
</svg>
