<svg width="20" height="20" viewBox="0 0 20 20" fill="none" xmlns="http://www.w3.org/2000/svg">
<g id="Basket">
<g id="Vector">
<path d="M13.8168 19.15H6.19183C5.69183 19.15 5.26683 18.7833 5.20016 18.2833L3.62516 6.55833C3.54183 5.95833 4.0085 5.42499 4.61683 5.42499H15.4252C16.0335 5.42499 16.5002 5.95833 16.4168 6.55833L14.8085 18.2833C14.7418 18.775 14.3168 19.15 13.8168 19.15ZM7.21683 17.4833H12.8002C13.0502 17.4833 13.2585 17.3 13.2918 17.05L14.5835 7.65833C14.6252 7.35833 14.3918 7.09166 14.0918 7.09166H5.95016C5.65016 7.09166 5.41683 7.35833 5.4585 7.65833L6.72516 17.05C6.7585 17.3 6.96683 17.4833 7.21683 17.4833Z" fill="#C2180F"/>
<path d="M16.9252 2.17499H3.0835C2.80735 2.17499 2.5835 2.39885 2.5835 2.67499V3.34166C2.5835 3.6178 2.80735 3.84166 3.0835 3.84166H16.9252C17.2013 3.84166 17.4252 3.6178 17.4252 3.34166V2.67499C17.4252 2.39885 17.2013 2.17499 16.9252 2.17499Z" fill="#C2180F"/>
<path d="M10.8335 3.00833H9.16683V1.33333C9.16683 1.05833 9.39183 0.833328 9.66683 0.833328H10.3335C10.6085 0.833328 10.8335 1.05833 10.8335 1.33333V3.00833Z" fill="#C2180F"/>
</g>
</g>
</svg>
