<svg width="24" height="24" viewBox="0 0 24 24" fill="none" xmlns="http://www.w3.org/2000/svg">
<g id="Calendar">
<path id="Vector" d="M20.3 4H18.49V1.6C18.49 1.27 18.22 1 17.89 1H17.09C16.76 1 16.49 1.27 16.49 1.6V4H7.51V1.6C7.51 1.27 7.24 1 6.91 1H6.11C5.78 1 5.51 1.27 5.51 1.6V4H3.7C3.04 4 2.5 4.54 2.5 5.2V21.8C2.5 22.46 3.04 23 3.7 23H20.3C20.96 23 21.5 22.46 21.5 21.8V5.2C21.5 4.54 20.96 4 20.3 4ZM18.9 21H5.1C4.77 21 4.5 20.73 4.5 20.4V13.02H19.5V20.4C19.5 20.73 19.23 21 18.9 21ZM19.5 11.02H4.5V6.6C4.5 6.27 4.77 6 5.1 6H18.9C19.23 6 19.5 6.27 19.5 6.6V11.02Z" fill="#070707"/>
</g>
</svg>
