<svg width="24" height="25" viewBox="0 0 24 25" fill="none" xmlns="http://www.w3.org/2000/svg">
<g clip-path="url(#clip0_1252_2696)">
<path d="M22.6909 0.5H1.30909C0.5861 0.5 0 1.0861 0 1.80909V23.1909C0 23.9139 0.5861 24.5 1.30909 24.5H22.6909C23.4139 24.5 24 23.9139 24 23.1909V1.80909C24 1.0861 23.4139 0.5 22.6909 0.5Z" fill="#070707"/>
<path d="M11.5636 4.07819H12.4364C12.7979 4.07819 13.0909 4.37124 13.0909 4.73273V11.4309H19.7891C20.1506 11.4309 20.4436 11.724 20.4436 12.0855V12.9582C20.4436 13.3197 20.1506 13.6127 19.7891 13.6127H13.0909V20.3109C13.0909 20.6724 12.7979 20.9655 12.4364 20.9655H11.5636C11.2021 20.9655 10.9091 20.6724 10.9091 20.3109V13.6127H4.21091C3.84942 13.6127 3.55637 13.3197 3.55637 12.9582V12.0855C3.55637 11.724 3.84942 11.4309 4.21091 11.4309H10.9091V4.73273C10.9091 4.37124 11.2021 4.07819 11.5636 4.07819Z" fill="white"/>
</g>
<defs>
<clipPath id="clip0_1252_2696">
<rect width="24" height="24" fill="white" transform="translate(0 0.5)"/>
</clipPath>
</defs>
</svg>
