<svg width="22" height="22" viewBox="0 0 22 22" fill="none" xmlns="http://www.w3.org/2000/svg">
<g id="Checkbox-on" clip-path="url(#clip0_474_2332)">
<path id="Vector" d="M20.8 0H1.2C0.537258 0 0 0.537258 0 1.2V20.8C0 21.4627 0.537258 22 1.2 22H20.8C21.4627 22 22 21.4627 22 20.8V1.2C22 0.537258 21.4627 0 20.8 0Z" fill="#1D1D1B"/>
<path id="Vector_2" d="M9.08001 14.3L5.33001 10.65C5.09001 10.42 5.09001 10.04 5.32001 9.8L5.88001 9.23C6.11001 8.99 6.49001 8.99 6.73001 9.22L9.50001 11.92L15.87 5.63C16.11 5.4 16.49 5.4 16.72 5.63L17.28 6.2C17.51 6.44 17.51 6.82 17.28 7.05L9.93001 14.3C9.70001 14.53 9.32001 14.53 9.09001 14.3H9.08001Z" fill="white"/>
</g>
<defs>
<clipPath id="clip0_474_2332">
<rect width="22" height="22" fill="white"/>
</clipPath>
</defs>
</svg>
