<svg width="24" height="24" viewBox="0 0 24 24" fill="none" xmlns="http://www.w3.org/2000/svg">
<g id="Clear">
<g id="Vector">
<path d="M5.0525 19.95L0.2025 12.66C-0.0675 12.26 -0.0675 11.73 0.2025 11.33L5.0525 4.05C5.2725 3.72 5.6525 3.52 6.0525 3.52H20.6825C21.3425 3.52 21.8825 4.06 21.8825 4.72V19.27C21.8825 19.93 21.3425 20.47 20.6825 20.47H6.0525C5.6525 20.48 5.2725 20.28 5.0525 19.95ZM2.3925 12.33L6.3025 18.22C6.4125 18.39 6.6025 18.49 6.8025 18.49H19.2825C19.6125 18.48 19.8825 18.21 19.8825 17.88V6.12C19.8825 5.79 19.6125 5.52 19.2825 5.52H6.8025C6.6025 5.52 6.4125 5.62 6.3025 5.79L2.3925 11.67C2.2625 11.87 2.2625 12.13 2.3925 12.33Z" fill="black"/>
<path d="M8.887 7.80964L8.32131 8.37533C8.087 8.60964 8.087 8.98954 8.32131 9.22386L15.2792 16.1818C15.5136 16.4161 15.8935 16.4161 16.1278 16.1818L16.6935 15.6161C16.9278 15.3818 16.9278 15.0019 16.6935 14.7676L9.73553 7.80964C9.50121 7.57533 9.12131 7.57533 8.887 7.80964Z" fill="black"/>
<path d="M15.2792 7.80964L8.32131 14.7676C8.087 15.0019 8.087 15.3818 8.32131 15.6161L8.887 16.1818C9.12131 16.4161 9.50121 16.4161 9.73553 16.1818L16.6935 9.22385C16.9278 8.98954 16.9278 8.60964 16.6935 8.37532L16.1278 7.80964C15.8935 7.57532 15.5136 7.57532 15.2792 7.80964Z" fill="black"/>
</g>
</g>
</svg>
