<svg width="24" height="24" viewBox="0 0 24 24" fill="none" xmlns="http://www.w3.org/2000/svg">
<g id="Close">
<path id="Vector" d="M20.38 4.18L19.81 3.61C19.58 3.38 19.2 3.38 18.96 3.61L11.99 10.58L5.03 3.62C4.8 3.39 4.42 3.39 4.18 3.62L3.61 4.19C3.38 4.42 3.38 4.8 3.61 5.04L10.58 12.01L3.61 18.98C3.38 19.21 3.38 19.59 3.61 19.83L4.18 20.4C4.41 20.63 4.79 20.63 5.03 20.4L12 13.43L18.97 20.4C19.2 20.63 19.58 20.63 19.82 20.4L20.39 19.83C20.62 19.6 20.62 19.22 20.39 18.98L13.42 12.01L20.39 5.04C20.62 4.81 20.62 4.43 20.39 4.19L20.38 4.18Z" fill="#070707"/>
</g>
</svg>
