<svg width="24" height="24" viewBox="0 0 24 24" fill="none" xmlns="http://www.w3.org/2000/svg">
<g id="Collapse-left">
<path id="Vector" d="M16.7 4.1V11H6.86L10.86 6.95C11.09 6.71 11.09 6.33 10.86 6.1L10.29 5.54C10.05 5.31 9.67 5.31 9.44 5.54L3.48 11.58C3.25 11.81 3.25 12.19 3.48 12.42L9.45 18.47C9.68 18.71 10.06 18.71 10.3 18.47L10.87 17.91C11.11 17.68 11.11 17.3 10.87 17.06L6.86 12.99H16.7V19.9C16.7 20.23 16.97 20.5 17.3 20.5H18.1C18.43 20.5 18.7 20.23 18.7 19.9V4.1C18.7 3.77 18.43 3.5 18.1 3.5H17.3C16.97 3.5 16.7 3.77 16.7 4.1Z" fill="#070707"/>
</g>
</svg>
