<svg width="20" height="20" viewBox="0 0 20 20" fill="none" xmlns="http://www.w3.org/2000/svg">
<g id="Distribution">
<g id="Vector">
<path d="M17.625 8.47501H12.3917C12.1167 8.47501 11.8917 8.25001 11.8917 7.97501V1.34167C11.8917 1.06667 12.1167 0.841675 12.3917 0.841675H17.625C17.9 0.841675 18.125 1.06667 18.125 1.34167V7.97501C18.125 8.25001 17.9 8.47501 17.625 8.47501ZM13.8083 6.80834H16.2083C16.35 6.80834 16.4583 6.70001 16.4583 6.55834V2.75834C16.4583 2.61667 16.35 2.50834 16.2083 2.50834H13.8083C13.6667 2.50834 13.5583 2.61667 13.5583 2.75834V6.55834C13.5583 6.70001 13.6667 6.80834 13.8083 6.80834Z" fill="white"/>
<path d="M17.625 19.1583H12.3917C12.1167 19.1583 11.8917 18.9333 11.8917 18.6583V12.025C11.8917 11.75 12.1167 11.525 12.3917 11.525H17.625C17.9 11.525 18.125 11.75 18.125 12.025V18.6583C18.125 18.9333 17.9 19.1583 17.625 19.1583ZM13.8083 17.4917H16.2083C16.35 17.4917 16.4583 17.3833 16.4583 17.2417V13.4417C16.4583 13.3 16.35 13.1917 16.2083 13.1917H13.8083C13.6667 13.1917 13.5583 13.3 13.5583 13.4417V17.2417C13.5583 17.3833 13.6667 17.4917 13.8083 17.4917Z" fill="white"/>
<path d="M7.41667 15.425H2.375C2.1 15.425 1.875 15.2 1.875 14.925V5.12501C1.875 4.85001 2.1 4.62501 2.375 4.62501H7.41667V6.29167H3.79167C3.65 6.29167 3.54167 6.40001 3.54167 6.54167V13.5083C3.54167 13.65 3.65 13.7583 3.79167 13.7583H7.41667V15.425Z" fill="white"/>
<path d="M7.6115 4.02999L6.37406 5.26742C6.27643 5.36505 6.27643 5.52335 6.37406 5.62098L7.6115 6.85841C7.70913 6.95604 7.86742 6.95604 7.96505 6.85841L9.20249 5.62098C9.30012 5.52335 9.30012 5.36505 9.20249 5.26742L7.96505 4.02999C7.86742 3.93236 7.70913 3.93236 7.6115 4.02999Z" fill="white"/>
<path d="M7.6114 13.1632L6.37397 14.4007C6.27634 14.4983 6.27634 14.6566 6.37397 14.7542L7.6114 15.9917C7.70903 16.0893 7.86733 16.0893 7.96496 15.9917L9.20239 14.7542C9.30003 14.6566 9.30002 14.4983 9.20239 14.4007L7.96496 13.1632C7.86733 13.0656 7.70903 13.0656 7.6114 13.1632Z" fill="white"/>
</g>
</g>
</svg>
