<svg width="24" height="24" viewBox="0 0 24 24" fill="none" xmlns="http://www.w3.org/2000/svg">
<g id="Document">
<g id="Vector">
<path d="M20.22 23H3.77999C3.44999 23 3.17999 22.73 3.17999 22.4V1.6C3.17999 1.27 3.44999 1 3.77999 1H15.66C15.82 1 15.98 1.07 16.09 1.19L20.65 5.97C20.76 6.08 20.82 6.23 20.82 6.38V22.4C20.82 22.73 20.55 23 20.22 23ZM5.47999 21H18.52C18.69 21 18.82 20.87 18.82 20.7V7.06C18.82 6.98 18.79 6.91 18.74 6.85L15.15 3.09C15.09 3.03 15.01 3 14.93 3H5.47999C5.30999 3 5.17999 3.13 5.17999 3.3V20.7C5.17999 20.87 5.30999 21 5.47999 21Z" fill="black"/>
<path d="M15.89 13.76H8.11999C7.78862 13.76 7.51999 14.0286 7.51999 14.36V15.16C7.51999 15.4914 7.78862 15.76 8.11999 15.76H15.89C16.2214 15.76 16.49 15.4914 16.49 15.16V14.36C16.49 14.0286 16.2214 13.76 15.89 13.76Z" fill="black"/>
<path d="M11.53 5.54H8.11999C7.78862 5.54 7.51999 5.80863 7.51999 6.14V6.94C7.51999 7.27137 7.78862 7.54 8.11999 7.54H11.53C11.8614 7.54 12.13 7.27137 12.13 6.94V6.14C12.13 5.80863 11.8614 5.54 11.53 5.54Z" fill="black"/>
<path d="M13.55 16.5H8.11999C7.78862 16.5 7.51999 16.7686 7.51999 17.1V17.9C7.51999 18.2314 7.78862 18.5 8.11999 18.5H13.55C13.8814 18.5 14.15 18.2314 14.15 17.9V17.1C14.15 16.7686 13.8814 16.5 13.55 16.5Z" fill="black"/>
</g>
</g>
</svg>
