<svg width="24" height="24" viewBox="0 0 24 24" fill="none" xmlns="http://www.w3.org/2000/svg">
<g id="Download">
<g id="Vector">
<path d="M21.41 21H2.59001C2.42432 21 2.29001 21.1343 2.29001 21.3V22.7C2.29001 22.8657 2.42432 23 2.59001 23H21.41C21.5757 23 21.71 22.8657 21.71 22.7V21.3C21.71 21.1343 21.5757 21 21.41 21Z" fill="#070707"/>
<path d="M13 1.3V17.77H11V1.3C11 1.13 11.13 1 11.3 1H12.7C12.87 1 13 1.13 13 1.3Z" fill="#070707"/>
<path d="M20.28 10.9L12.42 18.76C12.19 18.99 11.81 18.99 11.57 18.76L3.70998 10.9C3.47998 10.67 3.47998 10.29 3.70998 10.05L4.27998 9.47999C4.50998 9.24999 4.88998 9.24999 5.12998 9.47999L12 16.35L18.87 9.47999C19.1 9.24999 19.48 9.24999 19.72 9.47999L20.29 10.05C20.52 10.28 20.52 10.66 20.29 10.9H20.28Z" fill="#070707"/>
</g>
</g>
</svg>
