<svg xmlns="http://www.w3.org/2000/svg" width="24" height="24" viewBox="0 0 24 24" fill="none">
    <path d="M21 20.4C21 20.73 20.73 21 20.4 21H3.6C3.27 21 3 20.73 3 20.4V3.6C3 3.27 3.27 3 3.6 3H11.4C11.73 3 12 2.73 12 2.4V1.6C12 1.27 11.73 1 11.4 1H2.2C1.54 1 1 1.54 1 2.2V21.8C1 22.46 1.54 23 2.2 23H21.8C22.46 23 23 22.46 23 21.8V12.62C23 12.29 22.73 12.02 22.4 12.02H21.6C21.27 12.02 21 12.29 21 12.62V20.4Z" fill="#070707"/>
    <path d="M18.6069 4.02813L18.0412 4.59381C17.8069 4.82813 17.8069 5.20803 18.0412 5.44234L18.6069 6.00803C18.8412 6.24234 19.2211 6.24234 19.4554 6.00803L20.0211 5.44234C20.2554 5.20803 20.2554 4.82813 20.0211 4.59381L19.4554 4.02813C19.2211 3.79381 18.8412 3.79381 18.6069 4.02813Z" fill="#070707"/>
    <path d="M8.86996 16.58L7.54996 16.46L7.45996 15.16L16.37 6.26C16.6 6.03 16.98 6.03 17.22 6.26L17.79 6.83C18.02 7.06 18.02 7.44 17.79 7.68L8.86996 16.58Z" fill="#070707"/>
</svg>