<svg width="24" height="24" viewBox="0 0 24 24" fill="none" xmlns="http://www.w3.org/2000/svg">
<g id="Error ">
<g id="Vector">
<path d="M12 3C16.96 3 21 7.04 21 12C21 16.96 16.96 21 12 21C7.04 21 3 16.96 3 12C3 7.04 7.04 3 12 3ZM12 1C5.92 1 1 5.92 1 12C1 18.08 5.92 23 12 23C18.08 23 23 18.08 23 12C23 5.92 18.08 1 12 1Z" fill="black"/>
<path d="M8.38018 7.81393L7.81449 8.37961C7.58018 8.61393 7.58018 8.99383 7.81449 9.22814L14.7724 16.1861C15.0067 16.4204 15.3866 16.4204 15.621 16.1861L16.1866 15.6204C16.421 15.3861 16.421 15.0062 16.1866 14.7719L9.22871 7.81393C8.99439 7.57961 8.61449 7.57962 8.38018 7.81393Z" fill="black"/>
<path d="M14.7724 7.81393L7.81449 14.7719C7.58018 15.0062 7.58018 15.3861 7.81449 15.6204L8.38018 16.1861C8.61449 16.4204 8.99439 16.4204 9.22871 16.1861L16.1866 9.22814C16.421 8.99382 16.421 8.61393 16.1866 8.37961L15.621 7.81393C15.3866 7.57961 15.0067 7.57961 14.7724 7.81393Z" fill="black"/>
</g>
</g>
</svg>
