<svg width="24" height="24" viewBox="0 0 24 24" fill="none" xmlns="http://www.w3.org/2000/svg">
<g id="Eye-close">
<g id="Vector">
<path d="M12 16C14.21 16 16 14.21 16 12C16 11.65 15.94 11.31 15.85 10.98L10.98 15.85C11.31 15.94 11.64 16 12 16Z" fill="#231F20"/>
<path d="M10.61 10.57L13.02 8.15999C12.69 8.06999 12.35 8.00999 11.99 8.00999C9.77999 8.00999 7.98999 9.79999 7.98999 12.01C7.98999 12.37 8.04999 12.71 8.13999 13.04L10.56 10.62C10.56 10.62 10.59 10.59 10.61 10.57Z" fill="#231F20"/>
<path d="M5.90999 15.26C4.84999 14.18 4.01999 13.08 3.50999 12.34C3.36999 12.13 3.36999 11.86 3.50999 11.65C4.80999 9.78 8.19999 5.5 12 5.5C13 5.5 13.98 5.8 14.89 6.28L16.3 4.87C14.97 4.05 13.51 3.5 11.99 3.5C7.04999 3.5 2.69999 9.34 1.34999 11.34C1.07999 11.74 1.07999 12.26 1.34999 12.67C1.92999 13.53 3.06999 15.1 4.56999 16.61L5.90999 15.27V15.26Z" fill="#231F20"/>
<path d="M22.65 11.34C22.07 10.48 20.94 8.90999 19.44 7.39999L18.1 8.73999C19.16 9.80999 19.99 10.92 20.5 11.66C20.64 11.87 20.64 12.14 20.5 12.35C19.21 14.22 15.82 18.5 12.01 18.5C11.01 18.5 10.04 18.2 9.11999 17.72L7.70999 19.13C9.03999 19.94 10.5 20.49 12.01 20.49C16.96 20.49 21.31 14.65 22.66 12.66C22.93 12.26 22.93 11.74 22.66 11.33L22.65 11.34Z" fill="#231F20"/>
<path d="M18.5949 3.99555L3.97904 18.6114C3.74472 18.8458 3.74472 19.2257 3.97904 19.46L4.54472 20.0257C4.77904 20.26 5.15893 20.26 5.39325 20.0257L20.0091 5.40977C20.2435 5.17545 20.2435 4.79555 20.0091 4.56124L19.4435 3.99555C19.2091 3.76124 18.8292 3.76124 18.5949 3.99555Z" fill="#231F20"/>
</g>
</g>
</svg>
