<svg width="24" height="24" viewBox="0 0 24 24" fill="none" xmlns="http://www.w3.org/2000/svg">
<g id="Eye-open">
<g id="Vector">
<path d="M12 20.5C7.05002 20.5 2.70002 14.66 1.35002 12.67C1.08002 12.27 1.08002 11.75 1.35002 11.34C2.69002 9.34 7.04002 3.51 12 3.51C16.96 3.51 21.3 9.35 22.65 11.34C22.92 11.74 22.92 12.26 22.65 12.67C21.3 14.67 16.96 20.5 12 20.5ZM3.51002 11.66C3.37002 11.87 3.37002 12.14 3.51002 12.35C4.81002 14.22 8.20002 18.5 12 18.5C15.8 18.5 19.2 14.21 20.49 12.35C20.63 12.14 20.63 11.87 20.49 11.66C19.19 9.79 15.8 5.5 12 5.5C8.20002 5.5 4.81002 9.79 3.51002 11.65V11.66Z" fill="#231F20"/>
<path d="M12 16C9.79002 16 8.00002 14.21 8.00002 12C8.00002 9.79 9.79002 8 12 8C14.21 8 16 9.79 16 12C16 14.21 14.21 16 12 16ZM12 10C10.9 10 10 10.9 10 12C10 13.1 10.9 14 12 14C13.1 14 14 13.1 14 12C14 10.9 13.1 10 12 10Z" fill="#231F20"/>
</g>
</g>
</svg>
