<svg width="24" height="24" viewBox="0 0 24 24" fill="none" xmlns="http://www.w3.org/2000/svg">
<g id="Filter">
<path id="Vector" d="M14.52 20.49H9.48999C8.82999 20.49 8.28999 19.95 8.28999 19.29V11.82L3.46999 5.44C2.86999 4.65 3.43999 3.52 4.42999 3.52H19.58C20.57 3.52 21.13 4.65 20.54 5.44L15.73 11.82V19.29C15.73 19.95 15.19 20.49 14.53 20.49H14.52ZM10.89 18.49H13.12C13.45 18.49 13.72 18.22 13.72 17.89V11.25C13.72 11.18 13.74 11.12 13.78 11.07L17.25 6.47C17.55 6.07 17.27 5.51 16.77 5.51H7.23999C6.73999 5.51 6.45999 6.08 6.75999 6.47L10.23 11.06C10.27 11.11 10.29 11.18 10.29 11.24V17.88C10.29 18.21 10.56 18.48 10.89 18.48V18.49Z" fill="#070707"/>
</g>
</svg>
