<svg width="164" height="164" viewBox="0 0 164 164" fill="none" xmlns="http://www.w3.org/2000/svg">
<g id="gis:flag-finish" opacity="0.5">
<path id="Vector" d="M89 0C87.3477 0 85.763 0.656373 84.5947 1.82472C83.4263 2.99308 82.77 4.5777 82.77 6.23V165.54H65.7354C64.0831 165.54 62.4984 166.196 61.3301 167.365C60.1617 168.533 59.5054 170.118 59.5054 171.77C59.5054 173.422 60.1617 175.007 61.3301 176.175C62.4984 177.344 64.0831 178 65.7354 178H110.235C111.888 178 113.472 177.344 114.641 176.175C115.809 175.007 116.465 173.422 116.465 171.77C116.465 170.118 115.809 168.533 114.641 167.365C113.472 166.196 111.888 165.54 110.235 165.54H95.23V83.66H171.77C173.422 83.66 175.007 83.0036 176.175 81.8353C177.344 80.6669 178 79.0823 178 77.43V6.23C178 4.5777 177.344 2.99308 176.175 1.82472C175.007 0.656373 173.422 0 171.77 0H89.89C89.7391 0.000456835 89.5883 0.00639408 89.4378 0.0178C89.2921 0.00673323 89.1461 0.000796221 89 0ZM113.564 12.46H131.008V25.6854H148.452V12.46H165.54V25.6854H148.452V43.1276H165.54V60.5716H148.452V71.2H131.008V60.5734H113.564V71.2H96.12V60.5734H113.564V43.1276H96.12V25.6836H113.564V12.46ZM113.564 25.6854V43.1276H131.008V25.6836L113.564 25.6854ZM131.008 43.1276V60.5734L148.452 60.5716V43.1276H131.008Z" fill="#E6E6E6"/>
</g>
</svg>
