<svg width="130" height="39" viewBox="0 0 130 39" fill="none" xmlns="http://www.w3.org/2000/svg">
<g id="google-play-button">
<g id="Vector">
<path d="M123.819 1.05142C124.879 1.05142 125.897 1.47498 126.647 2.22894C127.398 2.98289 127.819 4.00547 127.819 5.07172V33.7881C127.819 34.8544 127.398 35.877 126.647 36.6309C125.897 37.3849 124.879 37.8085 123.819 37.8085H4.76226C3.70131 37.8085 2.68382 37.3849 1.93362 36.6309C1.18342 35.877 0.761966 34.8544 0.761966 33.7881V5.07172C0.761966 4.00547 1.18342 2.98289 1.93362 2.22894C2.68382 1.47498 3.70131 1.05142 4.76226 1.05142H123.819ZM123.819 0.285645H4.76226C3.49923 0.285645 2.28793 0.78989 1.39483 1.68745C0.501733 2.58502 0 3.80237 0 5.07172V33.7881C0 35.0575 0.501733 36.2749 1.39483 37.1725C2.28793 38.0699 3.49923 38.5742 4.76226 38.5742H123.819C125.082 38.5742 126.293 38.0699 127.186 37.1725C128.079 36.2749 128.582 35.0575 128.582 33.7881V5.07172C128.582 3.80237 128.079 2.58502 127.186 1.68745C126.293 0.78989 125.082 0.285645 123.819 0.285645Z" fill="#DA2031"/>
<path d="M64.9006 21.1047C64.1009 21.1085 63.3202 21.3503 62.657 21.7995C61.9938 22.2488 61.478 22.8855 61.1745 23.6292C60.871 24.373 60.7935 25.1903 60.9519 25.9782C61.1103 26.766 61.4973 27.4892 62.0641 28.0561C62.631 28.6232 63.3523 29.0088 64.1369 29.1642C64.9217 29.3196 65.7346 29.2379 66.4732 28.9294C67.2117 28.621 67.8428 28.0996 68.2868 27.4309C68.7307 26.7624 68.9676 25.9766 68.9676 25.1728C68.9754 24.6348 68.8754 24.1007 68.6735 23.6024C68.4716 23.104 68.172 22.6516 67.7926 22.272C67.413 21.8924 66.9615 21.5934 66.4646 21.3929C65.9678 21.1923 65.436 21.0943 64.9006 21.1047ZM64.9006 27.6424C64.4088 27.677 63.918 27.5621 63.492 27.3126C63.0659 27.0631 62.7245 26.6905 62.5119 26.2434C62.2994 25.7963 62.2256 25.2952 62.3002 24.8054C62.3747 24.3155 62.5942 23.8596 62.93 23.4968C63.2658 23.1339 63.7025 22.881 64.1832 22.7709C64.664 22.6609 65.1666 22.6987 65.6256 22.8794C66.0847 23.0602 66.4791 23.3755 66.7575 23.7845C67.0359 24.1936 67.1853 24.6773 67.1865 25.1728C67.2018 25.4868 67.1545 25.8006 67.0472 26.096C66.9399 26.3913 66.7749 26.662 66.5618 26.8922C66.3488 27.1224 66.0921 27.3073 65.8068 27.4361C65.5214 27.565 65.2133 27.6351 64.9006 27.6424ZM56.0333 21.1047C55.2331 21.1065 54.4515 21.3467 53.787 21.795C53.1225 22.2431 52.6053 22.8791 52.3004 23.6226C51.9954 24.3661 51.9166 25.1839 52.0738 25.9723C52.2311 26.7608 52.6174 27.4849 53.1839 28.0528C53.7504 28.6208 54.4716 29.0073 55.2566 29.1635C56.0416 29.3197 56.855 29.2386 57.5941 28.9304C58.3332 28.6222 58.9649 28.1008 59.4092 27.432C59.8536 26.7632 60.0907 25.977 60.0907 25.1728C60.0985 24.6348 59.9985 24.1007 59.7966 23.6024C59.5947 23.104 59.2951 22.6516 58.9157 22.272C58.5362 21.8924 58.0847 21.5934 57.5879 21.3929C57.0909 21.1923 56.5591 21.0943 56.0238 21.1047H56.0333ZM56.0333 27.6424C55.5412 27.679 55.0496 27.5657 54.6224 27.3176C54.1952 27.0693 53.8523 26.6975 53.6383 26.2507C53.4242 25.8039 53.349 25.3027 53.4223 24.8123C53.4958 24.3219 53.7143 23.8651 54.0496 23.5012C54.385 23.1374 54.8216 22.8835 55.3025 22.7726C55.7834 22.6615 56.2864 22.6987 56.7461 22.8791C57.2057 23.0594 57.6008 23.3747 57.8796 23.7838C58.1585 24.1929 58.3084 24.677 58.3096 25.1728C58.3251 25.4868 58.2776 25.8006 58.1703 26.096C58.063 26.3913 57.898 26.662 57.685 26.8922C57.4719 27.1224 57.2152 27.3073 56.9299 27.4361C56.6446 27.565 56.3365 27.6351 56.0238 27.6424H56.0333ZM45.4706 22.3586V24.0816H49.5852C49.5207 24.8931 49.185 25.6589 48.6328 26.2545C48.2212 26.6759 47.7263 27.006 47.18 27.2237C46.6338 27.4412 46.0482 27.5415 45.4611 27.518C44.2486 27.518 43.0858 27.0339 42.2284 26.1722C41.371 25.3106 40.8894 24.142 40.8894 22.9233C40.8894 21.7048 41.371 20.5361 42.2284 19.6744C43.0858 18.8128 44.2486 18.3287 45.4611 18.3287C46.621 18.3097 47.741 18.7538 48.5757 19.5636L49.7852 18.3478C49.2219 17.7745 48.5497 17.3207 47.8086 17.0132C47.0674 16.7057 46.2724 16.5509 45.4706 16.5578C44.6238 16.5248 43.7792 16.6638 42.9872 16.9666C42.1952 17.2694 41.4722 17.7298 40.8615 18.3202C40.2507 18.9105 39.7649 19.6187 39.4331 20.4023C39.1012 21.1859 38.93 22.0287 38.93 22.8803C38.93 23.7319 39.1012 24.5748 39.4331 25.3583C39.7649 26.1419 40.2507 26.8501 40.8615 27.4405C41.4722 28.0309 42.1952 28.4912 42.9872 28.794C43.7792 29.0968 44.6238 29.2358 45.4706 29.2027C46.2859 29.2398 47.0996 29.1008 47.857 28.7954C48.6143 28.4899 49.2978 28.025 49.8614 27.4318C50.8593 26.33 51.3921 24.8816 51.3473 23.3924C51.3503 23.0296 51.3185 22.6674 51.252 22.3107L45.4706 22.3586ZM88.6262 23.6987C88.3779 22.9643 87.9134 22.323 87.2942 21.8598C86.6752 21.3966 85.9307 21.1332 85.1593 21.1047C84.6383 21.1037 84.1227 21.2101 83.6442 21.4172C83.1657 21.6244 82.7346 21.928 82.3776 22.3094C82.0205 22.6906 81.7451 23.1414 81.5682 23.634C81.3913 24.1265 81.3169 24.6502 81.3495 25.1728C81.338 25.7078 81.4337 26.2397 81.6313 26.7366C81.8289 27.2336 82.124 27.6854 82.4992 28.0651C82.8743 28.4448 83.3218 28.7447 83.8149 28.9467C84.3079 29.1488 84.8364 29.2488 85.3689 29.241C86.0351 29.2446 86.6918 29.0821 87.2802 28.7681C87.8686 28.454 88.3704 27.9982 88.7405 27.4414L87.3595 26.4842C87.1534 26.8296 86.8615 27.1152 86.5127 27.3132C86.1637 27.5112 85.7695 27.6147 85.3689 27.6138C84.9563 27.6296 84.5485 27.5203 84.1987 27.3C83.8487 27.0797 83.5728 26.7589 83.4068 26.3789L88.8263 24.1295L88.6262 23.6987ZM83.102 25.058C83.0827 24.7619 83.1224 24.4649 83.2187 24.1845C83.315 23.904 83.4661 23.6456 83.6629 23.4246C83.8599 23.2034 84.0987 23.0241 84.3654 22.897C84.6322 22.7699 84.9215 22.6974 85.2164 22.6841C85.5237 22.6637 85.8301 22.7346 86.0976 22.8876C86.3652 23.0408 86.582 23.2695 86.7213 23.5456L83.102 25.058ZM78.7017 29.0017H80.4828V17.0365H78.7017V29.0017ZM75.7872 22.014H75.7205C75.4521 21.7124 75.1232 21.4712 74.7556 21.3062C74.3879 21.1413 73.9897 21.0563 73.5871 21.0568C72.5462 21.1075 71.5646 21.5588 70.8458 22.3171C70.127 23.0753 69.7261 24.0825 69.7261 25.1297C69.7261 26.177 70.127 27.1842 70.8458 27.9424C71.5646 28.7007 72.5462 29.152 73.5871 29.2027C73.9906 29.2095 74.3908 29.1273 74.7594 28.962C75.1281 28.7966 75.4561 28.552 75.7205 28.2455H75.7777V28.8294C75.7777 30.3897 74.9491 31.2224 73.6156 31.2224C73.1715 31.212 72.7405 31.069 72.3776 30.8116C72.0146 30.5542 71.736 30.194 71.5773 29.777L70.0249 30.4279C70.3171 31.1424 70.8151 31.7527 71.4548 32.1809C72.0946 32.6089 72.847 32.8352 73.6156 32.8306C75.7015 32.8306 77.4254 31.5958 77.4254 28.5901V21.3439H75.7872V22.014ZM73.749 27.6424C73.1346 27.588 72.5628 27.3043 72.1462 26.8471C71.7297 26.39 71.4986 25.7927 71.4986 25.1728C71.4986 24.5529 71.7297 23.9557 72.1462 23.4985C72.5628 23.0414 73.1346 22.7577 73.749 22.7032C74.0535 22.719 74.3519 22.7957 74.6266 22.9292C74.9012 23.0626 75.1465 23.2499 75.348 23.48C75.5495 23.7101 75.7031 23.9785 75.7998 24.2692C75.8964 24.56 75.9342 24.8672 75.911 25.1728C75.937 25.4798 75.9008 25.7888 75.8045 26.0813C75.7082 26.3738 75.5539 26.6437 75.3509 26.8745C75.1479 27.1054 74.9005 27.2925 74.6235 27.4245C74.3465 27.5564 74.0458 27.6306 73.7394 27.6424H73.749ZM92.7123 17.0365V29.0017H94.4934V24.4645H96.9789C97.4873 24.5012 97.9966 24.4323 98.4768 24.2623C98.9561 24.0923 99.3965 23.8246 99.7691 23.4761C100.142 23.1277 100.438 22.7058 100.642 22.2369C100.845 21.768 100.95 21.2619 100.95 20.7505C100.95 20.2391 100.845 19.733 100.642 19.2641C100.438 18.7952 100.142 18.3733 99.7691 18.0248C99.3965 17.6764 98.9561 17.4087 98.4768 17.2387C97.9966 17.0686 97.4873 16.9998 96.9789 17.0365H92.7123ZM96.9702 22.7798H94.4838V18.7021H97.008C97.5494 18.7021 98.0694 18.9184 98.4526 19.3034C98.8358 19.6885 99.0512 20.2107 99.0512 20.7553C99.0512 21.2999 98.8358 21.8221 98.4526 22.2071C98.0694 22.5922 97.5494 22.8085 97.008 22.8085L96.9702 22.7798ZM107.951 21.0568C107.303 21.0179 106.657 21.1702 106.094 21.4949C105.531 21.8197 105.074 22.3029 104.78 22.8851L106.361 23.5456C106.516 23.2568 106.753 23.0198 107.04 22.8635C107.328 22.7072 107.654 22.6381 107.98 22.6649C108.206 22.6384 108.435 22.6573 108.654 22.7207C108.873 22.7841 109.077 22.8907 109.254 23.0341C109.432 23.1776 109.578 23.3551 109.687 23.5563C109.796 23.7575 109.863 23.9784 109.885 24.206V24.3304C109.313 24.026 108.675 23.8683 108.028 23.871C106.322 23.871 104.598 24.8282 104.598 26.5608C104.616 26.9302 104.706 27.2925 104.864 27.6262C105.023 27.96 105.247 28.2583 105.522 28.5037C105.798 28.7491 106.119 28.9366 106.467 29.055C106.816 29.1735 107.185 29.2204 107.552 29.1932C108 29.2255 108.449 29.1359 108.852 28.9338C109.253 28.7317 109.594 28.4245 109.837 28.0445H109.895V29.0017H111.609V24.3975C111.609 22.3012 110.027 21.0855 107.999 21.0855L107.951 21.0568ZM107.732 27.6138C107.152 27.6138 106.342 27.317 106.342 26.5991C106.342 25.6418 107.352 25.326 108.247 25.326C108.813 25.312 109.372 25.4508 109.866 25.728C109.806 26.2462 109.563 26.7254 109.18 27.0772C108.796 27.429 108.299 27.6297 107.78 27.6424L107.732 27.6138ZM117.858 21.3439L115.819 26.5321H115.762L113.647 21.3439H111.743L114.914 28.5997L113.105 32.6295H114.962L119.839 21.3439H117.858ZM101.846 29.0017H103.627V17.0365H101.846V29.0017Z" fill="#DA2031"/>
<path d="M40.1082 13.9451H39.4034V12.0307H40.0034C40.277 11.7393 40.4836 11.3911 40.6087 11.0107C40.7337 10.6303 40.7742 10.227 40.7272 9.82907V6.98618H44.537V12.0212H45.1752V13.9356H44.4704V12.7295H40.1082V13.9451ZM41.4321 9.85783C41.4765 10.6299 41.2872 11.3975 40.8892 12.0594H43.7465V7.69451H41.4321V9.85783ZM50.8708 11.9828C50.3141 12.5393 49.5607 12.8517 48.7755 12.8517C47.9903 12.8517 47.2369 12.5393 46.6801 11.9828C46.1388 11.4071 45.8373 10.645 45.8373 9.85306C45.8373 9.061 46.1388 8.29897 46.6801 7.72323C46.9545 7.44539 47.281 7.22489 47.6406 7.0744C48.0003 6.92392 48.3859 6.84645 48.7755 6.84645C49.165 6.84645 49.5508 6.92392 49.9104 7.0744C50.27 7.22489 50.5964 7.44539 50.8708 7.72323C51.4142 8.29787 51.7172 9.06031 51.7172 9.85306C51.7172 10.6457 51.4142 11.4082 50.8708 11.9828ZM47.223 11.5042C47.6353 11.9169 48.1935 12.1486 48.7755 12.1486C49.3574 12.1486 49.9156 11.9169 50.3279 11.5042C50.7349 11.0534 50.9603 10.4665 50.9603 9.85783C50.9603 9.24913 50.7349 8.66224 50.3279 8.21141C49.9156 7.79873 49.3574 7.56704 48.7755 7.56704C48.1935 7.56704 47.6353 7.79873 47.223 8.21141C46.8161 8.66224 46.5906 9.24913 46.5906 9.85783C46.5906 10.4665 46.8161 11.0534 47.223 11.5042ZM55.414 12.8539C55.0208 12.8617 54.6302 12.7896 54.2655 12.6417C53.9008 12.4937 53.5696 12.2732 53.292 11.9933C53.0144 11.7134 52.796 11.3798 52.65 11.0128C52.504 10.6458 52.4334 10.253 52.4424 9.85783C52.4334 9.46269 52.504 9.06979 52.65 8.7028C52.796 8.33581 53.0144 8.0023 53.292 7.72238C53.5696 7.44246 53.9008 7.2219 54.2655 7.074C54.6302 6.92609 55.0208 6.85388 55.414 6.86174C55.8126 6.85182 56.2082 6.9328 56.5711 7.09858C56.9341 7.26437 57.2548 7.51067 57.5095 7.81895L56.9951 8.3167C56.807 8.07668 56.5644 7.8854 56.2878 7.75884C56.0111 7.63228 55.7082 7.57411 55.4045 7.58922C55.1122 7.58158 54.8214 7.63364 54.5495 7.74222C54.2778 7.85082 54.0308 8.01369 53.8235 8.22098C53.4105 8.67451 53.1814 9.26699 53.1814 9.88172C53.1814 10.4966 53.4105 11.089 53.8235 11.5425C54.0308 11.7498 54.2778 11.9126 54.5495 12.0213C54.8214 12.1299 55.1122 12.1819 55.4045 12.1742C55.7398 12.1713 56.0702 12.0932 56.3717 11.9459C56.6731 11.7986 56.9382 11.5855 57.1475 11.3224L57.6619 11.8392C57.4027 12.1552 57.0775 12.4101 56.7094 12.5859C56.3028 12.7709 55.8603 12.8625 55.414 12.8539ZM60.6526 12.7295H59.9191V7.69451H58.3191V6.98618H62.2431V7.69451H60.6526V12.7295ZM67.2912 6.98618L65.1291 11.8297C65.0426 12.1162 64.8696 12.3687 64.6342 12.5521C64.3987 12.7355 64.1124 12.841 63.8147 12.8539C63.6178 12.8514 63.4235 12.8091 63.2433 12.7295L63.4337 12.0498C63.5494 12.1176 63.6808 12.1539 63.8147 12.1551C63.9547 12.1658 64.0946 12.1323 64.2148 12.0594C64.3295 11.9618 64.4179 11.8367 64.4719 11.6957L64.6814 11.2362L62.7765 6.99575H63.6432L65.0529 10.2886L66.4245 6.98618H67.2912ZM68.1198 12.7295V6.98618H72.2534V12.7295H71.5201V7.69451H68.8531V12.7295H68.1198ZM73.5583 12.7295V6.98618H74.2917V9.44622H77.1491V6.98618H77.8824V12.7295H77.1491V10.1354H74.2917V12.7295H73.5583ZM83.8734 11.9828C83.3165 12.5393 82.5632 12.8517 81.7779 12.8517C80.9927 12.8517 80.2394 12.5393 79.6825 11.9828C79.1414 11.4071 78.8399 10.645 78.8399 9.85306C78.8399 9.061 79.1414 8.29897 79.6825 7.72323C79.957 7.44539 80.2834 7.22489 80.6431 7.0744C81.0027 6.92392 81.3884 6.84645 81.7779 6.84645C82.1675 6.84645 82.5532 6.92392 82.9128 7.0744C83.2725 7.22489 83.5989 7.44539 83.8734 7.72323C84.4168 8.29787 84.7196 9.06031 84.7196 9.85306C84.7196 10.6457 84.4168 11.4082 83.8734 11.9828ZM80.2254 11.5042C80.6378 11.9169 81.1961 12.1486 81.7779 12.1486C82.3598 12.1486 82.9181 11.9169 83.3305 11.5042C83.7374 11.0534 83.9628 10.4665 83.9628 9.85783C83.9628 9.24913 83.7374 8.66224 83.3305 8.21141C82.9181 7.79873 82.3598 7.56704 81.7779 7.56704C81.1961 7.56704 80.6378 7.79873 80.2254 8.21141C79.8185 8.66224 79.5932 9.24913 79.5932 9.85783C79.5932 10.4665 79.8185 11.0534 80.2254 11.5042ZM87.7118 12.7295V6.98618H89.7786C90.2077 6.97803 90.6236 7.13562 90.9405 7.4265C91.0997 7.56531 91.2265 7.73757 91.3122 7.9311C91.3978 8.12463 91.44 8.33469 91.4358 8.54644C91.4404 8.80159 91.3672 9.05205 91.2263 9.26434C91.0864 9.47056 90.8917 9.6331 90.6643 9.73339C90.9406 9.82527 91.1829 9.99872 91.3596 10.2312C91.5428 10.4656 91.6403 10.7562 91.6358 11.0544C91.6407 11.275 91.5971 11.4941 91.5083 11.6959C91.4194 11.8977 91.2874 12.0774 91.1216 12.2221C90.7899 12.5296 90.3535 12.6974 89.9024 12.6912L87.7118 12.7295ZM88.4451 9.44622H89.7786C89.9031 9.45144 90.0272 9.42931 90.1424 9.38137C90.2575 9.33343 90.3609 9.26082 90.4453 9.16863C90.5296 9.09178 90.5977 8.99865 90.6454 8.89479C90.6931 8.79094 90.7196 8.67848 90.7231 8.56414C90.7267 8.44979 90.7073 8.3359 90.6661 8.22924C90.6249 8.1226 90.5628 8.02538 90.4834 7.94339C90.4037 7.85291 90.3054 7.78113 90.1951 7.73316C90.0848 7.68519 89.9653 7.66219 89.8452 7.6658H88.4832L88.4451 9.44622ZM88.4451 12.0212H89.9214C90.0504 12.0255 90.1788 12.0012 90.2973 11.9498C90.4159 11.8985 90.5217 11.8216 90.6072 11.7244C90.7751 11.5494 90.8705 11.3166 90.8739 11.0735C90.8739 10.8196 90.7736 10.5761 90.595 10.3966C90.4163 10.2171 90.174 10.1163 89.9214 10.1163H88.4737L88.4451 12.0212Z" fill="#DA2031"/>
<path fill-rule="evenodd" clip-rule="evenodd" d="M48.7755 6.94218C48.3985 6.94218 48.0252 7.01714 47.6772 7.16277C47.3295 7.30824 47.0139 7.52135 46.7485 7.78983C46.2245 8.3477 45.9326 9.08584 45.9326 9.85306C45.9326 10.6201 46.2244 11.3582 46.7483 11.9161C47.2871 12.454 48.0159 12.7559 48.7755 12.7559C49.5351 12.7559 50.2639 12.454 50.8027 11.916C51.3287 11.3591 51.6219 10.6208 51.6219 9.85306C51.6219 9.08521 51.3286 8.34669 50.8025 7.78993C50.5371 7.5214 50.2214 7.30826 49.8737 7.16277C49.5257 7.01714 49.1525 6.94218 48.7755 6.94218ZM47.604 6.98603C47.9752 6.8307 48.3734 6.75073 48.7755 6.75073C49.1776 6.75073 49.5758 6.8307 49.947 6.98603C50.3182 7.14137 50.6552 7.36899 50.9385 7.6558L50.9399 7.65728C51.5001 8.24971 51.8125 9.03577 51.8125 9.85306C51.8125 10.6703 51.5001 11.4563 50.9399 12.0488L50.9381 12.0507C50.3634 12.6251 49.5859 12.9474 48.7755 12.9474C47.965 12.9474 47.1876 12.625 46.6129 12.0507L46.6108 12.0486C46.0529 11.4551 45.7421 10.6695 45.7421 9.85306C45.7421 9.03655 46.053 8.25101 46.6108 7.65749L46.6125 7.65577C46.8957 7.36897 47.2328 7.14137 47.604 6.98603ZM81.7779 6.94218C81.4009 6.94218 81.0277 7.01714 80.6796 7.16277C80.332 7.30824 80.0164 7.52133 79.751 7.78978C79.227 8.34766 78.9351 9.08582 78.9351 9.85306C78.9351 10.6201 79.2269 11.3582 79.7508 11.9161C80.2896 12.454 81.0184 12.7559 81.7779 12.7559C82.5376 12.7559 83.2664 12.454 83.8053 11.9159C84.3312 11.3591 84.6245 10.6208 84.6245 9.85306C84.6245 9.08522 84.3311 8.34671 83.8051 7.78996C83.5396 7.52141 83.224 7.30827 82.8763 7.16277C82.5282 7.01714 82.1549 6.94218 81.7779 6.94218ZM80.6065 6.98603C80.9777 6.8307 81.3758 6.75073 81.7779 6.75073C82.1801 6.75073 82.5782 6.8307 82.9494 6.98603C83.3207 7.14137 83.6576 7.36899 83.941 7.6558L83.9425 7.65728C84.5026 8.24973 84.8149 9.03577 84.8149 9.85306C84.8149 10.6703 84.5026 11.4563 83.9424 12.0488L83.9405 12.0507C83.3659 12.6251 82.5884 12.9474 81.7779 12.9474C80.9676 12.9474 80.1901 12.625 79.6154 12.0507L79.6133 12.0486C79.0554 11.4551 78.7446 10.6695 78.7446 9.85306C78.7446 9.03655 79.0554 8.25101 79.6133 7.65749L79.615 7.65577C79.8983 7.36897 80.2352 7.14137 80.6065 6.98603ZM56.5317 7.18573C56.1819 7.02593 55.8006 6.94787 55.4165 6.95743L55.4122 6.95754C55.0318 6.94994 54.6539 7.01969 54.3011 7.16276C53.9483 7.30583 53.628 7.51918 53.3595 7.78996C53.0909 8.06073 52.8796 8.38333 52.7384 8.73834C52.5971 9.09334 52.5288 9.47339 52.5376 9.85559L52.5377 9.86008C52.5289 10.2423 52.5971 10.6223 52.7384 10.9773C52.8796 11.3323 53.0909 11.6549 53.3595 11.9257C53.628 12.1965 53.9483 12.4098 54.3011 12.5529C54.6539 12.696 55.0318 12.7658 55.4122 12.7582L55.414 12.8539L55.4159 12.7582C55.8477 12.7666 56.2758 12.678 56.6693 12.499C56.9984 12.3417 57.292 12.119 57.5324 11.8445L57.1537 11.464C56.9473 11.7008 56.6956 11.894 56.4133 12.032C56.0994 12.1855 55.7553 12.2668 55.4062 12.27C55.1013 12.2779 54.7979 12.2235 54.5144 12.1102C54.2307 11.9969 53.9728 11.8268 53.7563 11.6104L53.7531 11.6072C53.3241 11.1361 53.0863 10.5204 53.0863 9.88172C53.0863 9.24307 53.3242 8.62753 53.7532 8.15636L53.7563 8.15305C53.9727 7.93663 54.2307 7.76664 54.5144 7.65327C54.797 7.54035 55.0994 7.48598 55.4035 7.49344C55.7211 7.47822 56.0378 7.53932 56.3272 7.67171C56.5859 7.79001 56.8161 7.96217 57.0029 8.17634L57.3786 7.81275C57.143 7.54696 56.8547 7.33327 56.5317 7.18573ZM55.4141 12.9497C55.0087 12.9575 54.6059 12.883 54.2298 12.7304C53.8532 12.5777 53.5113 12.3499 53.2245 12.0608C52.9378 11.7718 52.7123 11.4274 52.5615 11.0484C52.411 10.6701 52.3381 10.2651 52.3471 9.85783C52.3381 9.45052 52.411 9.04556 52.5615 8.66726C52.7123 8.28828 52.9378 7.94388 53.2245 7.6548C53.5113 7.36574 53.8532 7.13796 54.2298 6.98522C54.6058 6.83275 55.0085 6.75818 55.4138 6.76599C55.8261 6.75606 56.2352 6.83997 56.6105 7.01145C56.9866 7.18322 57.3189 7.4384 57.5827 7.75782L57.6393 7.82623L56.9854 8.459L56.9203 8.37593C56.7416 8.14791 56.5112 7.96619 56.2483 7.84596C55.9855 7.72572 55.6977 7.67048 55.4093 7.68482L55.4021 7.68518C55.1226 7.67788 54.8446 7.72737 54.5848 7.83117C54.3256 7.93471 54.0901 8.08985 53.8923 8.28726C53.4963 8.72293 53.2767 9.29166 53.2767 9.88172C53.2767 10.4719 53.4963 11.0406 53.8923 11.4762C54.0901 11.6737 54.3256 11.8288 54.5848 11.9323C54.8446 12.0362 55.1226 12.0859 55.4021 12.0786H55.4037C55.7248 12.0757 56.0412 12.001 56.33 11.8598C56.6188 11.7186 56.8727 11.5147 57.0731 11.2626L57.1396 11.1791L57.7904 11.8331L57.7353 11.9002C57.4673 12.227 57.1309 12.4906 56.7503 12.6724L56.7487 12.673C56.3298 12.8638 55.8739 12.9582 55.4141 12.9497ZM90.8763 7.49718C90.5774 7.22284 90.1852 7.0742 89.7803 7.08188L89.7786 7.08189H87.8069V12.6321L89.9007 12.5954H89.9037C90.3305 12.6014 90.7432 12.4427 91.0569 12.1518L91.059 12.1499C91.2143 12.0143 91.3379 11.8462 91.4211 11.6571C91.5044 11.4681 91.5452 11.2631 91.5407 11.0565V11.0529C91.5447 10.7768 91.4544 10.5075 91.2847 10.2902L91.284 10.2893C91.1188 10.0721 90.8925 9.91009 90.6344 9.82429L90.3989 9.74591L90.6261 9.64573C90.8369 9.55273 91.0176 9.40206 91.1473 9.2109C91.2773 9.01488 91.3447 8.78367 91.3406 8.54812V8.54456C91.3445 8.34684 91.305 8.15069 91.2251 7.96997C91.1452 7.78926 91.0268 7.62841 90.8781 7.49878L90.8763 7.49718ZM91.004 7.35503C90.6693 7.04834 90.2305 6.8821 89.7777 6.89045H87.6165V12.8269L89.9011 12.7869H89.9026C90.3771 12.7932 90.836 12.6166 91.1851 12.2935C91.3609 12.1396 91.501 11.9489 91.5954 11.7346C91.6897 11.5205 91.736 11.2882 91.7311 11.0541V11.0558L91.6358 11.0544L91.7311 11.0522V11.0541C91.7355 10.7348 91.631 10.4237 91.4349 10.1725C91.2893 9.98107 91.1019 9.82732 90.8882 9.7221C91.0527 9.61809 91.1947 9.48083 91.305 9.31825C91.4563 9.09024 91.5355 8.82053 91.5311 8.54651V8.54831L91.4358 8.54644L91.5311 8.54475V8.54651C91.5352 8.32135 91.4902 8.09802 91.3992 7.89223C91.3081 7.68627 91.1732 7.50289 91.004 7.35503ZM40.632 6.89045H44.6323V11.9254H45.2705V14.0313H44.3751V12.8251H40.2034V14.0409H39.3081V11.935H39.9619C40.2122 11.66 40.4019 11.3349 40.5183 10.9806C40.639 10.6136 40.6781 10.2243 40.6327 9.84038L40.632 9.83473V6.89045ZM40.8225 7.08189V9.82351C40.8701 10.2334 40.8279 10.6489 40.6991 11.0408C40.5697 11.4345 40.3559 11.7949 40.0727 12.0964L40.0445 12.1265H39.4986V13.8494H40.0129V12.6338H44.5656V13.8398H45.0799V12.1168H44.4418V7.08189H40.8225ZM58.2238 6.89045H62.3384V7.79024H60.7478V12.8251H59.824V7.79024H58.2238V6.89045ZM58.4143 7.08189V7.59879H60.0144V12.6338H60.5573V7.59879H62.1479V7.08189H58.4143ZM66.361 6.89045H67.4383L65.2185 11.8634C65.1255 12.1664 64.942 12.4334 64.6926 12.6277C64.4415 12.8234 64.1362 12.9358 63.8188 12.9496L63.8135 12.9498C63.6039 12.9471 63.3969 12.9019 63.2049 12.8171L63.1291 12.7836L63.3754 11.9049L63.4816 11.9671C63.5831 12.0265 63.6982 12.0583 63.8156 12.0594L63.8218 12.0595C63.9396 12.0684 64.0572 12.0412 64.1591 11.9813C64.2587 11.8948 64.3357 11.7849 64.383 11.6613L64.3851 11.6557L64.5768 11.2359L62.629 6.90003H63.706L65.0516 10.0433L66.361 6.89045ZM66.4879 7.08189L65.0542 10.5339L63.5806 7.09147H62.9241L64.7861 11.2365L64.5596 11.733C64.4999 11.8878 64.4025 12.0252 64.2763 12.1325L64.2704 12.1374L64.2639 12.1414C64.1276 12.224 63.9693 12.2622 63.8107 12.2508C63.7018 12.2494 63.5945 12.2274 63.4944 12.1863L63.358 12.6729C63.5037 12.727 63.6576 12.7558 63.8133 12.7582C64.0903 12.7456 64.3566 12.6472 64.5757 12.4765C64.7957 12.3052 64.9571 12.0694 65.0379 11.8019L65.0397 11.796L67.144 7.08189H66.4879ZM68.0245 6.89045H72.3487V12.8251H71.4248V7.79024H68.9484V12.8251H68.0245V6.89045ZM68.2151 7.08189V12.6338H68.758V7.59879H71.6152V12.6338H72.1581V7.08189H68.2151ZM73.4631 6.89045H74.387V9.35049H77.0538V6.89045H77.9777V12.8251H77.0538V10.2312H74.387V12.8251H73.4631V6.89045ZM73.6535 7.08189V12.6338H74.1964V10.0397H77.2442V12.6338H77.7871V7.08189H77.2442V9.54193H74.1964V7.08189H73.6535ZM47.1557 8.14359C47.586 7.71304 48.1684 7.47132 48.7755 7.47132C49.3826 7.47132 49.965 7.71304 50.3952 8.14359L50.3986 8.14701C50.8215 8.61546 51.0556 9.22536 51.0556 9.85783C51.0556 10.4903 50.8214 11.1001 50.3986 11.5686L50.3953 11.5722C49.9651 12.0026 49.3826 12.2443 48.7755 12.2443C48.1684 12.2443 47.586 12.0026 47.1557 11.5721L47.223 11.5042L47.1524 11.5686C46.7297 11.1001 46.4954 10.4903 46.4954 9.85783C46.4954 9.22536 46.7297 8.61554 47.1524 8.1471L47.1557 8.14359ZM47.2919 11.4381C47.6862 11.8318 48.2195 12.0529 48.7755 12.0529C49.3314 12.0529 49.8647 11.8318 50.2591 11.4381C50.6491 11.0051 50.865 10.442 50.865 9.85783C50.865 9.27372 50.6491 8.7105 50.2591 8.27753C49.8647 7.88378 49.3314 7.66276 48.7755 7.66276C48.2195 7.66276 47.6862 7.88378 47.2919 8.27753C46.9019 8.7105 46.6859 9.27372 46.6859 9.85783C46.6859 10.442 46.9019 11.0051 47.2919 11.4381ZM80.1583 8.14359C80.5884 7.71304 81.1708 7.47132 81.7779 7.47132C82.3851 7.47132 82.9675 7.71304 83.3977 8.14359L83.4011 8.14701C83.8239 8.61546 84.058 9.22536 84.058 9.85783C84.058 10.4903 83.8238 11.1001 83.401 11.5686L83.3977 11.5722C82.9676 12.0026 82.3851 12.2443 81.7779 12.2443C81.1708 12.2443 80.5884 12.0026 80.1583 11.5721L80.2254 11.5042L80.1549 11.5686C79.7321 11.1001 79.4979 10.4903 79.4979 9.85783C79.4979 9.22536 79.7321 8.61554 80.1549 8.1471L80.1583 8.14359ZM80.2944 11.4381C80.6888 11.8318 81.2221 12.0529 81.7779 12.0529C82.3338 12.0529 82.8672 11.8318 83.2615 11.4381C83.6515 11.0051 83.8676 10.442 83.8676 9.85783C83.8676 9.27372 83.6515 8.7105 83.2615 8.27752C82.8672 7.88378 82.3338 7.66276 81.7779 7.66276C81.2221 7.66276 80.6888 7.88378 80.2944 8.27752C79.9044 8.7105 79.6883 9.27372 79.6883 9.85783C79.6883 10.442 79.9044 11.0051 80.2944 11.4381ZM89.8439 7.57008C89.9775 7.56628 90.1103 7.59196 90.2329 7.64532C90.3553 7.69857 90.4647 7.77811 90.5532 7.87832C90.6408 7.96917 90.7093 8.07671 90.7548 8.19461C90.8007 8.31324 90.8223 8.43993 90.8183 8.56713C90.8144 8.69432 90.785 8.81941 90.7318 8.93494C90.6794 9.04915 90.6048 9.1517 90.5124 9.23661C90.4193 9.33755 90.3055 9.41709 90.1789 9.4698C90.0516 9.52281 89.9143 9.54741 89.7766 9.54193H88.3478L88.39 7.57008H89.8439ZM90.1572 7.82101C90.0598 7.77861 89.9543 7.75829 89.848 7.76148L89.8452 7.76152H88.5765L88.5424 9.35049H89.7825C89.8932 9.35514 90.0035 9.33556 90.1059 9.29294C90.2082 9.25032 90.3001 9.18579 90.3752 9.10383L90.3781 9.10063L90.3813 9.09772C90.4561 9.0295 90.5166 8.94683 90.559 8.85465C90.6014 8.76246 90.6247 8.66265 90.6279 8.56114C90.631 8.45965 90.6139 8.35855 90.5773 8.26388C90.5407 8.16922 90.4856 8.08292 90.4151 8.01015L90.4119 8.00687C90.3416 7.92691 90.2547 7.8634 90.1572 7.82101ZM41.3368 7.59879H43.8418V12.1551H40.7204L40.8077 12.0099C41.1957 11.3645 41.3803 10.6162 41.337 9.86339L41.3367 9.85783L41.3368 7.59879ZM41.5273 7.79024V9.8551C41.569 10.5897 41.4044 11.3202 41.0539 11.9637H43.6513V7.79024H41.5273ZM88.3799 10.0206H89.9215C90.1993 10.0206 90.4657 10.1315 90.6623 10.329C90.8587 10.5264 90.9691 10.7942 90.9691 11.0735V11.0748C90.9654 11.3416 90.861 11.597 90.6771 11.7894C90.5825 11.8964 90.4658 11.9812 90.335 12.0377C90.2041 12.0944 90.0623 12.1214 89.9198 12.1168H88.3485L88.3799 10.0206ZM88.5675 10.212L88.5418 11.9254H89.9246C90.0396 11.9293 90.154 11.9077 90.2597 11.8619C90.3653 11.8162 90.4596 11.7476 90.5359 11.661L90.5386 11.6579C90.6895 11.5005 90.7754 11.2914 90.7786 11.0728C90.7784 10.8445 90.6882 10.6257 90.5275 10.4643C90.3668 10.3027 90.1488 10.212 89.9215 10.212H88.5675Z" fill="#DA2031"/>
<path d="M10.0442 31.5854L21.7123 19.4229L10.054 7.28203C9.74262 7.47105 9.54995 7.9087 9.54995 8.48158V30.3976C9.55412 30.9704 9.7398 31.3761 10.0442 31.5854Z" fill="#DA2031"/>
<path d="M22.1306 19.0869L25.6063 15.4635L11.4526 7.37355C11.2142 7.22921 10.9436 7.15296 10.6678 7.15254L22.1293 19.0854L22.1306 19.0869Z" fill="#DA2031"/>
<path d="M22.1306 19.7599L10.6328 31.7452C10.9213 31.7502 11.2056 31.6717 11.4539 31.5183L25.6354 23.4065L22.1306 19.7599Z" fill="#DA2031"/>
<path d="M30.7332 18.399L26.0232 15.7019L22.4527 19.424L26.0498 23.1696L30.7318 20.4797C31.7274 19.9082 31.7274 18.9676 30.7332 18.399Z" fill="#DA2031"/>
</g>
</g>
</svg>
