<svg width="20" height="20" viewBox="0 0 20 20" fill="none" xmlns="http://www.w3.org/2000/svg">
<g id="Heart">
<path id="Vector (Stroke)" fill-rule="evenodd" clip-rule="evenodd" d="M1.125 7.44168C1.125 4.49336 3.46144 2.05835 6.4 2.05835C7.79935 2.05835 9.06171 2.61728 10 3.51375C10.9383 2.61728 12.2007 2.05835 13.6 2.05835C16.5282 2.05835 18.875 4.48299 18.875 7.44168C18.875 7.91117 18.7094 8.39298 18.5022 8.82951C18.2881 9.28052 17.9918 9.76019 17.6514 10.2453C16.9701 11.2163 16.0626 12.2787 15.1376 13.2816C13.2842 15.2912 11.2928 17.135 10.7198 17.6575L10.7189 17.6583C10.3094 18.0306 9.69063 18.0306 9.28111 17.6583L9.28021 17.6575C8.70717 17.135 6.71577 15.2912 4.86242 13.2816C3.93738 12.2787 3.02991 11.2163 2.34858 10.2453C2.00815 9.76019 1.71185 9.28052 1.49776 8.82951C1.29055 8.39298 1.125 7.91117 1.125 7.44168ZM6.4 3.72502C4.42189 3.72502 2.79167 5.37334 2.79167 7.44168C2.79167 7.54719 2.83705 7.76434 3.00341 8.1148C3.16289 8.45076 3.40278 8.84609 3.71288 9.28803C4.33259 10.1712 5.18345 11.1714 6.08758 12.1517C7.58304 13.7732 9.17822 15.2911 10 16.0546C10.8218 15.2911 12.417 13.7732 13.9124 12.1517C14.8166 11.1714 15.6674 10.1712 16.2871 9.28803C16.5972 8.84609 16.8371 8.45076 16.9966 8.1148C17.1629 7.76434 17.2083 7.54719 17.2083 7.44168C17.2083 5.36704 15.5718 3.72502 13.6 3.72502C12.4072 3.72502 11.3443 4.32687 10.6801 5.26489L10 6.22547L9.31988 5.26489C8.65574 4.32687 7.59281 3.72502 6.4 3.72502Z" fill="white"/>
</g>
</svg>
