<svg width="24" height="24" viewBox="0 0 24 24" fill="none" xmlns="http://www.w3.org/2000/svg">
<g id="Home">
<path id="Vector" d="M18.47 23H5.53C5.2 23 4.93 22.73 4.93 22.4V12.85H1.64C1.38 12.85 1.24 12.54 1.42 12.35L11.55 1.19C11.79 0.930003 12.2 0.930003 12.44 1.19L22.57 12.35C22.75 12.54 22.61 12.85 22.35 12.85H19.07V22.4C19.07 22.73 18.8 23 18.47 23ZM16.77 21C16.94 21 17.07 20.87 17.07 20.7V11.15C17.07 10.98 17.2 10.85 17.37 10.85H18.51L11.99 3.67L5.47 10.85H6.61C6.78 10.85 6.91 10.98 6.91 11.15V20.7C6.91 20.87 7.05 21 7.21 21H16.77Z" fill="#070707"/>
</g>
</svg>
