<svg width="44" height="44" viewBox="0 0 44 44" fill="none" xmlns="http://www.w3.org/2000/svg">
<circle cx="22" cy="22" r="22" fill="#FAE0E2"/>
<path d="M22 20.81C19.29 20.81 17.09 18.61 17.09 15.9C17.09 13.19 19.29 11 22 11C24.71 11 26.91 13.2 26.91 15.91C26.91 18.62 24.71 20.82 22 20.82V20.81ZM22 13C20.4 13 19.09 14.3 19.09 15.91C19.09 17.52 20.39 18.82 22 18.82C23.61 18.82 24.91 17.52 24.91 15.91C24.91 14.3 23.61 13 22 13Z" fill="#DA2031"/>
<path fill-rule="evenodd" clip-rule="evenodd" d="M14.8211 24.0337C16.2508 23.1338 18.5287 22.78 22 22.78C25.4714 22.78 27.7492 23.1338 29.179 24.0337C30.759 25.0282 31.1176 26.5461 31.1986 28.1159C31.2572 29.1493 30.7775 30.1437 29.9171 30.7337C29.9163 30.7342 29.9155 30.7348 29.9147 30.7353L29.35 29.91L29.9189 30.7324C29.9183 30.7328 29.9177 30.7332 29.9171 30.7337C28.5819 31.6567 25.9478 33 22 33C18.0505 33 15.4158 31.6556 14.0812 30.7324L14.0785 30.7306C13.2301 30.1397 12.7565 29.1498 12.801 28.1266L12.8013 28.1187C12.882 26.5479 13.2401 25.0288 14.8211 24.0337ZM14.7989 28.2168C14.7846 28.5718 14.9504 28.9 15.2204 29.0886C16.2864 29.8255 18.5312 31 22 31C25.4705 31 27.7158 29.8244 28.7812 29.0876L28.7853 29.0847C29.0624 28.8951 29.2217 28.5721 29.2017 28.2279L29.2013 28.2213C29.132 26.8721 28.8601 26.1962 28.1136 25.7263C27.2158 25.1612 25.4687 24.78 22 24.78C18.5314 24.78 16.7842 25.1612 15.8865 25.7263C15.1408 26.1957 14.8686 26.8706 14.7989 28.2168Z" fill="#DA2031"/>
</svg>
