<svg width="49" height="50" viewBox="0 0 49 50" fill="none" xmlns="http://www.w3.org/2000/svg">
<g id="Icon 1">
<g id="Vector">
<path d="M33.3329 27.7861C31.5872 27.7861 29.9355 27.3998 28.4512 26.7113L21.3156 28.2274L22.8081 21.0718C22.1159 19.5823 21.728 17.9212 21.728 16.17C21.728 9.76444 26.9179 4.56836 33.3227 4.56836C39.7274 4.56836 44.9152 9.76444 44.9152 16.17C44.9152 22.5757 39.7232 27.7717 33.3227 27.7717" fill="#DA2031"/>
<path fill-rule="evenodd" clip-rule="evenodd" d="M33.3227 5.81836C27.6077 5.81836 22.9771 10.4548 22.9771 16.17C22.9771 17.7347 23.3233 19.2164 23.9406 20.5447C24.0541 20.789 24.0857 21.0635 24.0307 21.3273L22.9296 26.6066L28.1918 25.4885C28.4561 25.4324 28.7314 25.4635 28.9765 25.5772C30.2471 26.1666 31.6547 26.5078 33.1443 26.5344C33.2026 26.5261 33.2621 26.5217 33.3227 26.5217C39.0334 26.5217 43.6662 21.8853 43.6662 16.17C43.6662 10.4545 39.0373 5.81836 33.3227 5.81836ZM33.5334 29.02C40.5266 28.9074 46.1642 23.1956 46.1642 16.17C46.1642 9.07437 40.4175 3.31836 33.3227 3.31836C26.2281 3.31836 20.479 9.07408 20.479 16.17C20.479 17.9572 20.8444 19.662 21.503 21.2112L20.0929 27.972C20.0067 28.3855 20.1349 28.8146 20.4339 29.1128C20.7329 29.411 21.1621 29.5379 21.575 29.4502L28.315 28.0181C29.8573 28.6725 31.552 29.0361 33.3329 29.0361C33.4011 29.0361 33.4681 29.0306 33.5334 29.02Z" fill="#DA2031"/>
<path fill-rule="evenodd" clip-rule="evenodd" d="M31.0318 38.0173L29.0513 36.0353C28.0611 35.0443 26.4585 35.0443 25.4703 36.0353L23.9145 37.5923C23.5675 37.9396 23.0407 38.0561 22.5915 37.8599C20.3355 36.871 18.108 35.3733 16.1215 33.3852C14.1431 31.4053 12.6506 29.1863 11.6625 26.9367C11.4563 26.4728 11.5767 25.9272 11.936 25.5656L13.3305 24.17C14.4636 23.0361 14.4636 21.4341 13.4735 20.4431L11.491 18.4612C10.172 17.1412 8.03645 17.1412 6.71753 18.4612L5.61707 19.5625C4.36553 20.815 3.8449 22.6213 4.18178 24.4112C5.01478 28.8246 7.57912 33.659 11.7115 37.7966C15.8438 41.9342 20.6743 44.4986 25.0865 45.3322C26.875 45.6693 28.6798 45.1483 29.9313 43.8958L31.0318 42.7965C32.3486 41.4766 32.3486 39.3372 31.0318 38.0173Z" fill="#DA2031"/>
<path d="M27.9125 16.3257C27.9524 16.3656 27.9524 16.4302 27.9125 16.4701C27.8726 16.51 27.808 16.51 27.7681 16.4701C27.7282 16.4302 27.7282 16.3656 27.7681 16.3257C27.808 16.2858 27.8726 16.2858 27.9125 16.3257Z" fill="#DA2031"/>
<path fill-rule="evenodd" clip-rule="evenodd" d="M26.8849 15.4418C27.4126 14.9137 28.2681 14.9137 28.7957 15.4418C29.3233 15.9699 29.3233 16.8259 28.7957 17.354C28.2681 17.8821 27.4126 17.8821 26.8849 17.354C26.3573 16.8259 26.3573 15.9699 26.8849 15.4418ZM27.0293 17.2096C27.4772 17.6578 28.2034 17.6578 28.6513 17.2096C28.6513 17.2096 28.6513 17.2096 28.6513 17.2096C29.0991 16.7613 29.0992 16.0345 28.6513 15.5863C28.6513 15.5863 28.6514 15.5863 28.6513 15.5863C28.2034 15.138 27.4772 15.138 27.0293 15.5862C27.0293 15.5862 27.0293 15.5862 27.0293 15.5862C26.5815 16.0345 26.5815 16.7613 27.0293 17.2096C27.0293 17.2096 27.0293 17.2096 27.0293 17.2096Z" fill="#DA2031"/>
<path d="M33.2362 16.3257C33.2761 16.3656 33.2761 16.4302 33.2362 16.4701C33.1963 16.51 33.1317 16.51 33.0918 16.4701C33.052 16.4302 33.052 16.3656 33.0918 16.3257C33.1317 16.2858 33.1963 16.2858 33.2362 16.3257Z" fill="#DA2031"/>
<path fill-rule="evenodd" clip-rule="evenodd" d="M32.2086 15.4418C32.7363 14.9137 33.5918 14.9137 34.1194 15.4418C34.647 15.9699 34.647 16.8259 34.1194 17.354C33.5918 17.8821 32.7363 17.8821 32.2086 17.354L32.2076 17.3529C31.6814 16.8251 31.6814 15.9707 32.2076 15.4429L32.2086 15.4418ZM32.353 17.2096C32.8009 17.6578 33.5271 17.6578 33.975 17.2096L33.164 16.398L33.975 15.5862C33.5271 15.138 32.8009 15.138 32.353 15.5862C32.353 15.5862 32.353 15.5862 32.353 15.5862C32.3527 15.5865 32.3524 15.5869 32.3521 15.5872C31.9054 16.0352 31.9054 16.7606 32.3521 17.2086C32.3524 17.2089 32.3527 17.2093 32.353 17.2096C32.353 17.2096 32.353 17.2096 32.353 17.2096ZM33.164 16.398L33.9761 17.2085C34.4226 16.7605 34.4226 16.0353 33.9761 15.5873L33.164 16.398Z" fill="#DA2031"/>
<path d="M38.5524 16.3257C38.5923 16.3656 38.5923 16.4302 38.5524 16.4701C38.5126 16.51 38.4479 16.51 38.4081 16.4701C38.3682 16.4302 38.3682 16.3656 38.4081 16.3257C38.4479 16.2858 38.5126 16.2858 38.5524 16.3257Z" fill="#DA2031"/>
<path fill-rule="evenodd" clip-rule="evenodd" d="M39.2913 17.2096C38.8424 17.6588 38.1162 17.6569 37.6692 17.2096H39.2913ZM37.6692 17.2096L38.4081 16.4701L37.6692 17.2096ZM37.5249 17.354C38.0534 17.883 38.9089 17.8811 39.4356 17.354C39.9633 16.8259 39.9633 15.9699 39.4356 15.4418C38.9089 14.9147 38.0534 14.9128 37.5249 15.4418M37.6692 15.5862C38.1162 15.1389 38.8424 15.137 39.2913 15.5862H37.6692ZM37.6683 15.5871L38.4081 16.3257L37.6692 15.5862M37.5239 15.4429C36.9976 15.9707 36.9976 16.8251 37.5239 17.3529V15.4429ZM37.6683 15.5871C37.2216 16.0351 37.2216 16.7607 37.6683 17.2087L38.4081 16.4701M39.2924 15.5873C39.7389 16.0353 39.7388 16.7605 39.2924 17.2085V15.5873Z" fill="#DA2031"/>
</g>
</g>
</svg>
