<svg width="127" height="67" viewBox="0 0 127 67" fill="none" xmlns="http://www.w3.org/2000/svg">
<g id="logo" clip-path="url(#clip0_1019_16343)">
<g id="Vector">
<path d="M20.9554 27.7526C20.9554 23.8656 24.1563 20.7009 28.0919 20.7009C32.0258 20.7009 35.2268 23.8656 35.2268 27.7526C35.2268 31.6427 32.0255 34.8085 28.0919 34.8085C24.156 34.8085 20.9554 31.6427 20.9554 27.7526ZM39.794 27.7526C39.794 21.3775 34.542 16.1916 28.0919 16.1916C21.6398 16.1916 16.3912 21.3775 16.3912 27.7526C16.3912 34.1273 21.6398 39.3182 28.0919 39.3182C34.542 39.3182 39.794 34.1273 39.794 27.7526ZM12.1255 45.7724C12.1255 45.139 11.8499 44.5614 11.4265 44.1397C9.24906 41.9881 7.52241 39.4333 6.34535 36.6216C5.1683 33.8099 4.56395 30.7965 4.56689 27.7537C4.56689 14.9385 15.1219 4.50944 28.0888 4.50944C41.0618 4.50944 51.6153 14.9385 51.6153 27.7537C51.6153 34.164 48.9765 39.9753 44.7155 44.1851L24.8488 63.8125L28.0868 67.0119L47.9647 47.3681C53.0412 42.3446 56.1807 35.4125 56.1807 27.7545C56.1807 12.426 43.607 0.000854527 28.0888 0.000854527C12.5783 9.049e-05 0 12.4256 0 27.7537C0 35.4056 3.14911 42.3545 8.20277 47.3528C8.63619 47.778 9.20144 48.0263 9.84132 48.0263C10.4466 48.0264 11.0272 47.7891 11.4555 47.3665C11.8838 46.9439 12.1248 46.3705 12.1255 45.7724ZM42.1784 41.6226C45.7656 38.0633 47.9856 33.1608 47.9856 27.7537C47.9856 16.914 39.061 8.09583 28.0903 8.09583C17.1227 8.09583 8.19465 16.914 8.19465 27.7537C8.19465 33.1608 10.4564 38.111 14.0057 41.6226C14.4244 42.0351 15.0028 42.3056 15.6439 42.3056C16.2496 42.3052 16.8305 42.0672 17.2588 41.644C17.6871 41.2207 17.9278 40.6468 17.9281 40.0483C17.9281 39.4023 17.6497 38.8258 17.2144 38.4151C14.4631 35.6741 12.7619 31.9067 12.7619 27.7537C12.7619 19.4017 19.6374 12.6052 28.0903 12.6052C36.5444 12.6052 43.4249 19.4017 43.4249 27.7537C43.4249 31.9292 41.7028 35.7139 38.9288 38.4568L19.0559 58.091L22.2858 61.2774L42.1784 41.6226Z" fill="#DA2031"/>
<path d="M94.1351 32.6771H92.5434L94.093 28.2954L98.5392 35.5266L102.985 28.295L104.537 32.6771H102.944V35.3276H113.576V32.6771H111.511L104.469 15.0966L98.5392 25.366L92.6098 15.0966L85.5681 32.6771H83.5062V35.3276H94.1355L94.1351 32.6771Z" fill="#DA2031"/>
<path d="M126.63 27.7556C126.63 12.4271 114.055 0.00190508 98.5408 0.00190508C83.0291 0.00190508 70.452 12.4271 70.452 27.7556C70.4479 31.3947 71.1703 34.9988 72.578 38.3617C73.9856 41.7245 76.0507 44.78 78.6552 47.3531C78.869 47.5678 79.1241 47.7381 79.4055 47.854C79.6869 47.9699 79.9889 48.0291 80.2937 48.0281C81.5534 48.0281 82.5748 47.0158 82.5748 45.7742C82.5748 45.1424 82.3023 44.5644 81.877 44.1411C79.6998 41.9894 77.9734 39.4347 76.7964 36.6231C75.6194 33.8115 75.015 30.7982 75.0177 27.7556C75.0177 14.9419 85.5693 4.51278 98.5408 4.51278C111.512 4.51278 122.066 14.9419 122.066 27.7556C122.066 34.1658 119.425 39.9771 115.164 44.1839L95.2996 63.812L98.5361 67.0114L118.416 47.3703C123.492 42.3468 126.63 35.415 126.63 27.7556Z" fill="#DA2031"/>
</g>
</g>
<defs>
<clipPath id="clip0_1019_16343">
<rect width="127" height="67.2353" fill="white"/>
</clipPath>
</defs>
</svg>
