<svg width="20" height="20" viewBox="0 0 20 20" fill="none" xmlns="http://www.w3.org/2000/svg">
<g id="Journal ">
<g id="Vector">
<path d="M4.99998 6.24999H2.33331C2.05831 6.24999 1.83331 6.02499 1.83331 5.74999V5.08333C1.83331 4.80833 2.05831 4.58333 2.33331 4.58333H4.99998V6.24999Z" fill="white"/>
<path d="M4.99998 10.8333H2.33331C2.05831 10.8333 1.83331 10.6083 1.83331 10.3333V9.66666C1.83331 9.39166 2.05831 9.16666 2.33331 9.16666H4.99998V10.8333Z" fill="white"/>
<path d="M4.99998 15.4167H2.33331C2.05831 15.4167 1.83331 15.1917 1.83331 14.9167V14.25C1.83331 13.975 2.05831 13.75 2.33331 13.75H4.99998V15.4167Z" fill="white"/>
<path d="M13.5083 10.0833H8.03331C7.48331 10.0833 7.03331 9.63332 7.03331 9.08332V5.33333C7.03331 4.78333 7.48331 4.33333 8.03331 4.33333H13.5083C14.0583 4.33333 14.5083 4.78333 14.5083 5.33333V9.08332C14.5083 9.63332 14.0583 10.0833 13.5083 10.0833ZM9.19997 8.41666H12.3416C12.6166 8.41666 12.8416 8.19166 12.8416 7.91666V6.49999C12.8416 6.22499 12.6166 5.99999 12.3416 5.99999H9.19997C8.92497 5.99999 8.69997 6.22499 8.69997 6.49999V7.91666C8.69997 8.19166 8.92497 8.41666 9.19997 8.41666Z" fill="white"/>
<path d="M14.0083 11.7167H7.53331C7.25716 11.7167 7.03331 11.9405 7.03331 12.2167V12.8833C7.03331 13.1595 7.25716 13.3833 7.53331 13.3833H14.0083C14.2844 13.3833 14.5083 13.1595 14.5083 12.8833V12.2167C14.5083 11.9405 14.2844 11.7167 14.0083 11.7167Z" fill="white"/>
<path d="M10.375 14.0083H7.53331C7.25716 14.0083 7.03331 14.2322 7.03331 14.5083V15.175C7.03331 15.4511 7.25716 15.675 7.53331 15.675H10.375C10.6511 15.675 10.875 15.4511 10.875 15.175V14.5083C10.875 14.2322 10.6511 14.0083 10.375 14.0083Z" fill="white"/>
<path d="M17.1666 19.1667H4.37496C3.82496 19.1667 3.37496 18.7167 3.37496 18.1667V1.83333C3.37496 1.28333 3.82496 0.833328 4.37496 0.833328H17.1583C17.7083 0.833328 18.1583 1.28333 18.1583 1.83333V18.1667C18.1583 18.7167 17.7083 19.1667 17.1583 19.1667H17.1666ZM5.54163 17.5H15.9916C16.2666 17.5 16.4916 17.275 16.4916 17V2.99999C16.4916 2.72499 16.2666 2.49999 15.9916 2.49999H5.54163C5.26663 2.49999 5.04163 2.72499 5.04163 2.99999V17C5.04163 17.275 5.26663 17.5 5.54163 17.5Z" fill="white"/>
</g>
</g>
</svg>
