<svg width="20" height="20" viewBox="0 0 20 20" fill="none" xmlns="http://www.w3.org/2000/svg">
<g id="Key" clip-path="url(#clip0_1092_1932)">
<g id="Vector">
<path d="M1.84995 18.9833L1.02495 18.1583C0.924951 18.0583 0.924951 17.9 1.02495 17.8083L11.2833 7.57495L12.4583 8.75828L2.19995 18.9833C2.09995 19.0833 1.94162 19.0833 1.84995 18.9833Z" fill="white"/>
<path d="M14.5583 10.1C12 10.1 9.92495 8.01662 9.92495 5.46662C9.92495 2.91662 12 0.824951 14.5583 0.824951C17.1166 0.824951 19.1916 2.90828 19.1916 5.45828C19.1916 8.00828 17.1083 10.0916 14.5583 10.0916V10.1ZM14.5583 2.49162C12.9166 2.49162 11.5916 3.82495 11.5916 5.45828C11.5916 7.09162 12.925 8.42495 14.5583 8.42495C16.1916 8.42495 17.525 7.09162 17.525 5.45828C17.525 3.82495 16.1916 2.49162 14.5583 2.49162Z" fill="white"/>
<path d="M5.60828 18.5583L4.08328 17.0333L5.25828 15.8583L5.95828 16.5583L7.49162 15.025L6.79162 14.325L7.96662 13.15L9.49162 14.675C9.68328 14.8666 9.68328 15.1833 9.49162 15.3833L6.30828 18.5666C6.11662 18.7583 5.79995 18.7583 5.59995 18.5666L5.60828 18.5583Z" fill="white"/>
<path d="M4.48328 10.5L1.42495 7.44162C1.23328 7.24995 1.23328 6.93328 1.42495 6.73328L4.48328 3.67495C4.67495 3.48328 4.99162 3.48328 5.19162 3.67495L8.24995 6.73328C8.44162 6.92495 8.44162 7.24162 8.24995 7.44162L5.19162 10.5C4.99995 10.6916 4.68328 10.6916 4.48328 10.5ZM3.59995 7.25829L4.65829 8.31662C4.75829 8.41662 4.91662 8.41662 5.00829 8.31662L6.06662 7.25829C6.16662 7.15829 6.16662 6.99995 6.06662 6.90829L5.00829 5.84995C4.90829 5.74995 4.74995 5.74995 4.65829 5.84995L3.59995 6.90829C3.49995 7.00829 3.49995 7.16662 3.59995 7.25829Z" fill="white"/>
</g>
</g>
<defs>
<clipPath id="clip0_1092_1932">
<rect width="20" height="20" fill="white"/>
</clipPath>
</defs>
</svg>
