<svg width="68" height="36" viewBox="0 0 68 36" fill="none" xmlns="http://www.w3.org/2000/svg">
<g id="logo" clip-path="url(#clip0_633_5753)">
<g id="Vector">
<path d="M11.2202 14.8597C11.2202 12.7784 12.9341 11.084 15.0413 11.084C17.1477 11.084 18.8616 12.7784 18.8616 14.8597C18.8616 16.9426 17.1475 18.6376 15.0413 18.6376C12.9339 18.6376 11.2202 16.9426 11.2202 14.8597ZM21.3071 14.8597C21.3071 11.4462 18.495 8.66953 15.0413 8.66953C11.5866 8.66953 8.77641 11.4462 8.77641 14.8597C8.77641 18.2729 11.5866 21.0523 15.0413 21.0523C18.495 21.0523 21.3071 18.2729 21.3071 14.8597ZM6.49241 24.5081C6.49241 24.169 6.34481 23.8597 6.11813 23.6339C4.95226 22.4818 4.02775 21.1139 3.39751 19.6085C2.76728 18.103 2.44369 16.4895 2.44526 14.8603C2.44526 7.99862 8.09678 2.41453 15.0397 2.41453C21.9859 2.41453 27.6365 7.99862 27.6365 14.8603C27.6365 18.2926 26.2237 21.4041 23.9421 23.6582L13.3049 34.1673L15.0386 35.8804L25.6819 25.3625C28.4 22.6727 30.081 18.961 30.081 14.8607C30.081 6.65333 23.3486 0.0004883 15.0397 0.0004883C6.73483 7.92092e-05 0 6.65312 0 14.8603C0 18.9574 1.68614 22.678 4.39204 25.3543C4.6241 25.582 4.92676 25.7149 5.26937 25.7149C5.59347 25.715 5.90434 25.5879 6.13367 25.3616C6.363 25.1353 6.49203 24.8283 6.49241 24.5081ZM22.5837 22.2861C24.5044 20.3804 25.6931 17.7554 25.6931 14.8603C25.6931 9.05633 20.9145 4.33481 15.0405 4.33481C9.16809 4.33481 4.38769 9.05633 4.38769 14.8603C4.38769 17.7554 5.59873 20.4059 7.49913 22.2861C7.72333 22.507 8.03302 22.6518 8.37625 22.6518C8.70059 22.6516 9.01158 22.5242 9.24091 22.2976C9.47023 22.071 9.59913 21.7637 9.5993 21.4432C9.5993 21.0973 9.45025 20.7886 9.21715 20.5688C7.74403 19.1011 6.83316 17.0839 6.83316 14.8603C6.83316 10.3883 10.5145 6.74926 15.0405 6.74926C19.5671 6.74926 23.2511 10.3883 23.2511 14.8603C23.2511 17.096 22.3291 19.1224 20.8437 20.5911L10.2032 31.1039L11.9326 32.81L22.5837 22.2861Z" fill="#DA2031"/>
<path d="M50.4031 17.4964H49.5508L50.3805 15.1503L52.7612 19.0221L55.1418 15.1501L55.9726 17.4964H55.1195V18.9156H60.8124V17.4964H59.7065L55.9364 8.08325L52.7612 13.5818L49.5864 8.08325L45.816 17.4964H44.712V18.9156H50.4033L50.4031 17.4964Z" fill="#DA2031"/>
<path d="M67.8017 14.8613C67.8017 6.65389 61.0687 0.0010508 52.762 0.0010508C44.4565 0.0010508 37.7223 6.65389 37.7223 14.8613C37.7201 16.8098 38.107 18.7396 38.8606 20.5401C39.6143 22.3407 40.7201 23.9767 42.1146 25.3545C42.2291 25.4694 42.3657 25.5606 42.5163 25.6227C42.667 25.6847 42.8287 25.7164 42.9919 25.7159C43.6664 25.7159 44.2133 25.1738 44.2133 24.5091C44.2133 24.1708 44.0673 23.8613 43.8396 23.6346C42.6739 22.4825 41.7495 21.1147 41.1193 19.6092C40.4891 18.1038 40.1655 16.4904 40.167 14.8613C40.167 8.00041 45.8166 2.41632 52.762 2.41632C59.7074 2.41632 65.358 8.00041 65.358 14.8613C65.358 18.2935 63.9443 21.4051 61.6628 23.6575L51.0266 34.1671L52.7595 35.8802L63.4036 25.3637C66.1215 22.6739 67.8017 18.9624 67.8017 14.8613Z" fill="#DA2031"/>
</g>
</g>
<defs>
<clipPath id="clip0_633_5753">
<rect width="68" height="36" fill="white"/>
</clipPath>
</defs>
</svg>
