<svg width="343" height="88" viewBox="0 0 343 88" fill="none" xmlns="http://www.w3.org/2000/svg">
<g clip-path="url(#clip0_15_47)">
<path d="M27.0606 36.3236C27.0606 31.2361 31.194 27.0941 36.2761 27.0941C41.3562 27.0941 45.4897 31.2361 45.4897 36.3236C45.4897 41.4151 41.3557 45.5586 36.2761 45.5586C31.1935 45.5586 27.0606 41.4151 27.0606 36.3236ZM51.3876 36.3236C51.3876 27.9796 44.6055 21.1921 36.2761 21.1921C27.9443 21.1921 21.1666 27.9796 21.1666 36.3236C21.1666 44.6671 27.9443 51.4611 36.2761 51.4611C44.6055 51.4611 51.3876 44.6671 51.3876 36.3236ZM15.6582 59.9086C15.6582 59.0796 15.3022 58.3236 14.7555 57.7716C11.9437 54.9555 9.71397 51.6118 8.194 47.9317C6.67402 44.2517 5.8936 40.3076 5.8974 36.3251C5.8974 19.5521 19.5275 5.90213 36.2721 5.90213C53.0247 5.90213 66.6528 19.5521 66.6528 36.3251C66.6528 44.7151 63.2453 52.3211 57.7428 57.8311L32.0882 83.5201L36.2696 87.7076L61.9387 61.9971C68.4941 55.4221 72.5482 46.3491 72.5482 36.3261C72.5482 16.2636 56.3114 0.0011292 36.2721 0.0011292C16.2428 0.000129196 0 16.2631 0 36.3251C0 46.3401 4.06657 55.4351 10.5926 61.9771C11.1522 62.5336 11.8822 62.8586 12.7085 62.8586C13.4901 62.8588 14.2399 62.5481 14.793 61.995C15.3461 61.4418 15.6572 60.6914 15.6582 59.9086ZM54.4666 54.4771C59.0989 49.8186 61.9657 43.4021 61.9657 36.3251C61.9657 22.1376 50.441 10.5961 36.2741 10.5961C22.1113 10.5961 10.5821 22.1376 10.5821 36.3251C10.5821 43.4021 13.5028 49.8811 18.0861 54.4771C18.6268 55.0171 19.3738 55.3711 20.2016 55.3711C20.9838 55.3706 21.7338 55.0591 22.2869 54.5052C22.84 53.9512 23.1509 53.2 23.1512 52.4166C23.1512 51.5711 22.7918 50.8166 22.2296 50.2791C18.6768 46.6916 16.48 41.7606 16.48 36.3251C16.48 25.3936 25.3585 16.4981 36.2741 16.4981C47.1912 16.4981 56.0763 25.3936 56.0763 36.3251C56.0763 41.7901 53.8525 46.7436 50.2702 50.3336L24.6076 76.0316L28.7785 80.2021L54.4666 54.4771Z" fill="#DA2031"/>
<path d="M181.951 31.161L187.318 14.8045H190.093L193.873 25.8795H193.919L197.654 14.8045H200.428L205.773 31.161H201.829L198.96 21.6275H198.912L195.507 31.161H192.215L188.81 21.6275H188.764L185.894 31.161H181.951Z" fill="#DA2031"/>
<path d="M215.301 25.225C215.301 23.4025 214.367 22.117 212.827 22.117C211.288 22.117 210.331 23.4025 210.331 25.2255C210.331 27.0025 211.288 28.4025 212.827 28.4025C214.367 28.4025 215.301 27.002 215.301 25.225ZM206.784 25.2255C206.784 21.6275 209.257 19.0795 212.827 19.0795C216.349 19.0795 218.847 21.6275 218.847 25.2255C218.847 28.894 216.349 31.4405 212.827 31.4405C209.257 31.4405 206.784 28.894 206.784 25.2255ZM220.578 25.2255C220.578 21.6275 222.89 19.0795 226.411 19.0795C227.88 19.0795 229.538 19.384 230.89 20.715L228.721 22.865C228.184 22.305 227.437 22.094 226.622 22.094C225.082 22.094 224.148 23.4025 224.148 25.2255C224.148 27.0485 225.082 28.4025 226.622 28.4025C227.437 28.4025 228.184 28.1925 228.721 27.6565L230.89 29.8045C229.538 31.136 227.88 31.44 226.412 31.44C222.89 31.44 220.578 28.8945 220.578 25.2255Z" fill="#DA2031"/>
<path d="M232.95 19.361H236.355V23.8235H236.869L239.647 19.361H243.543L239.763 25.2025L244.009 31.161H239.856L236.73 26.6735H236.355V31.161H232.95V19.361Z" fill="#DA2031"/>
<path d="M253.345 25.225C253.345 23.4025 252.413 22.117 250.872 22.117C249.333 22.117 248.375 23.4025 248.375 25.2255C248.375 27.0025 249.333 28.4025 250.872 28.4025C252.413 28.4025 253.345 27.002 253.345 25.225ZM244.829 25.2255C244.829 21.6275 247.302 19.0795 250.872 19.0795C254.394 19.0795 256.892 21.6275 256.892 25.2255C256.892 28.894 254.394 31.4405 250.872 31.4405C247.302 31.4405 244.829 28.894 244.829 25.2255Z" fill="#DA2031"/>
<path d="M265.367 28.684C266.324 28.684 266.651 28.194 266.651 27.6565C266.651 27.094 266.324 26.534 265.368 26.534H262.8V28.684H265.367ZM264.737 24.244C265.6 24.244 266.276 23.894 266.276 23.0065C266.276 22.119 265.6 21.838 264.737 21.838H262.8V24.244H264.737ZM259.395 31.161V19.361H265.484C267.795 19.361 269.8 20.2255 269.8 22.563C269.8 23.638 268.96 24.5715 268.051 24.828V24.8755C269.426 25.2505 270.29 26.2315 270.29 27.6795C270.29 29.409 269.008 31.161 265.998 31.161H259.395Z" fill="#DA2031"/>
<path d="M271.999 25.225C271.999 21.6275 274.311 19.08 277.832 19.08C279.301 19.08 280.959 19.384 282.311 20.715L280.142 22.865C279.605 22.305 278.86 22.094 278.043 22.094C276.503 22.094 275.569 23.4025 275.569 25.2255C275.569 27.0485 276.503 28.4025 278.043 28.4025C278.86 28.4025 279.605 28.1925 280.142 27.6565L282.311 29.8045C280.959 31.136 279.301 31.44 277.832 31.44C274.311 31.44 271.999 28.894 271.999 25.225Z" fill="#DA2031"/>
<path d="M284.369 19.361H287.774V23.8235H288.29L291.065 19.361H294.962L291.182 25.2025L295.428 31.161H291.275L288.148 26.6735H287.774V31.161H284.369V19.361ZM297.042 19.361H300.447V26.019H300.495L304.997 19.361H307.937V31.161H304.531V24.5H304.485L300.004 31.16H297.042V19.361Z" fill="#DA2031"/>
<path d="M312.634 15.786L314.408 14.034C314.733 14.663 315.386 15.5275 316.485 15.5275C317.883 15.5275 318.373 14.6625 318.723 14.034L320.404 15.786C319.959 16.696 318.654 18.121 316.553 18.121C314.477 18.121 313.171 16.696 312.634 15.786ZM311.211 19.361H314.616V26.019H314.664L319.166 19.361H322.105V31.159H318.7V24.5H318.654L314.173 31.1585H311.211V19.361Z" fill="#DA2031"/>
<path d="M185.215 44.361H187.525L190.42 51.6505H190.464L193.383 44.3605H195.621L198.631 56.1605H195.226L193.942 50.2715H193.896L191.469 56.161H189.251L186.942 50.2485H186.896L185.567 56.161H182.276L185.215 44.361Z" fill="#DA2031"/>
<path d="M207.714 48.917C207.574 47.609 206.873 46.792 205.567 46.792C204.377 46.792 203.632 47.7025 203.422 48.917H207.714ZM199.782 50.2485C199.782 46.6505 202.184 44.0795 205.59 44.0795C208.81 44.0795 211.284 46.0445 211.284 50.5525V51.369H203.468C203.727 52.888 205.056 53.3795 206.152 53.3795C207.225 53.3795 208.183 52.865 208.6 52.259L210.793 54.4545C209.37 55.8315 207.737 56.44 205.78 56.44C202.699 56.44 199.782 54.244 199.782 50.2485ZM215.817 47.3275H212.364V44.361H222.954L221.86 47.3275H219.222V56.159H215.817L215.817 47.3275Z" fill="#DA2031"/>
<path d="M230.566 53.3565C232.13 53.3565 233.225 52.0255 233.225 50.2025C233.225 48.4735 232.13 47.1175 230.566 47.1175C229.003 47.1175 227.885 48.4735 227.885 50.2025C227.885 52.0255 229.003 53.3565 230.566 53.3565ZM228.022 60.4815H224.617V44.361H228.022V45.5295H228.07C228.584 44.8985 229.586 44.0795 231.383 44.0795C234.462 44.0795 236.771 46.6275 236.771 50.2255C236.771 53.8465 234.462 56.4405 231.383 56.4405C229.586 56.4405 228.583 55.6235 228.07 54.992H228.022V60.4815Z" fill="#DA2031"/>
<path d="M247.021 50.2255C247.021 48.4025 246.087 47.117 244.548 47.117C243.008 47.117 242.051 48.4025 242.051 50.2255C242.051 52.0025 243.008 53.4025 244.548 53.4025C246.087 53.4025 247.021 52.0025 247.021 50.2255ZM238.504 50.2255C238.504 46.6275 240.978 44.0795 244.548 44.0795C248.069 44.0795 250.568 46.6275 250.568 50.2255C250.568 53.894 248.069 56.4405 244.548 56.4405C240.978 56.4405 238.504 53.894 238.504 50.2255Z" fill="#DA2031"/>
<path d="M253.069 44.361H263.335V56.161H259.927V47.3275H256.474V56.161H253.069V44.361Z" fill="#DA2031"/>
<path d="M274.306 50.2255C274.306 48.4025 273.374 47.117 271.833 47.117C270.293 47.117 269.336 48.4025 269.336 50.2255C269.336 52.0025 270.293 53.4025 271.833 53.4025C273.374 53.4025 274.306 52.0025 274.306 50.2255ZM265.79 50.2255C265.79 46.6275 268.263 44.0795 271.833 44.0795C275.357 44.0795 277.853 46.6275 277.853 50.2255C277.853 53.894 275.357 56.4405 271.833 56.4405C268.263 56.4405 265.79 53.894 265.79 50.2255Z" fill="#DA2031"/>
<path d="M279.234 56.161V53.613C279.351 53.661 279.609 53.7295 279.819 53.7295C280.705 53.7295 280.915 53.1465 281.101 51.067C281.429 46.815 281.429 44.361 281.429 44.361H290.9V56.161H287.541V47.3295H284.414C284.369 48.217 284.391 49.315 284.275 50.811C284.02 54.4545 283.458 56.394 280.543 56.394C279.865 56.394 279.234 56.161 279.234 56.161Z" fill="#DA2031"/>
<path d="M294.194 44.361H297.599V51.019H297.647L302.149 44.361H305.089V56.161H301.683V49.5H301.637L297.156 56.16H294.194V44.361Z" fill="#DA2031"/>
<path d="M310.626 47.3275H307.173V44.361H317.764L316.669 47.3275H314.032V56.159H310.627L310.626 47.3275ZM326.191 48.9175C326.052 47.609 325.351 46.7925 324.044 46.7925C322.856 46.7925 322.109 47.7025 321.899 48.9175H326.191ZM318.259 50.2485C318.259 46.6505 320.664 44.0795 324.069 44.0795C327.287 44.0795 329.761 46.0445 329.761 50.5525V51.369H321.946C322.204 52.888 323.533 53.3795 324.629 53.3795C325.703 53.3795 326.66 52.865 327.08 52.259L329.272 54.4545C327.85 55.8315 326.214 56.44 324.255 56.44C321.176 56.44 318.259 54.244 318.259 50.2485Z" fill="#DA2031"/>
<path d="M332.218 44.361H335.623V48.7065H339.474V44.361H342.879V56.161H339.474V51.696H335.623V56.161H332.218L332.218 44.361Z" fill="#DA2031"/>
<path d="M121.56 42.769H119.505L121.506 37.034L127.248 46.4985L132.989 37.0335L134.993 42.769H132.935V46.238H146.665V42.769H143.998L134.905 19.759L127.248 33.2L119.591 19.759L110.497 42.769H107.835V46.238H121.561L121.56 42.769Z" fill="#DA2031"/>
<path d="M163.522 36.3275C163.522 16.265 147.283 0.0025042 127.249 0.0025042C107.219 0.0025042 90.9774 16.265 90.9774 36.3275C90.9721 41.0905 91.905 45.8078 93.7227 50.2092C95.5404 54.6106 98.2072 58.6097 101.57 61.9775C101.847 62.2585 102.176 62.4814 102.539 62.6331C102.903 62.7848 103.293 62.8623 103.686 62.861C105.313 62.861 106.632 61.536 106.632 59.911C106.632 59.084 106.28 58.3275 105.731 57.7735C102.919 54.9573 100.69 51.6135 99.1701 47.9336C97.6503 44.2537 96.8698 40.3098 96.8733 36.3275C96.8733 19.5565 110.499 5.9065 127.249 5.9065C144 5.9065 157.628 19.5565 157.628 36.3275C157.628 44.7175 154.219 52.3235 148.716 57.8295L123.064 83.5195L127.244 87.707L152.915 62C159.47 55.425 163.522 46.3525 163.522 36.3275Z" fill="#DA2031"/>
</g>
<defs>
<clipPath id="clip0_15_47">
<rect width="343" height="88" fill="white"/>
</clipPath>
</defs>
</svg>
