<svg width="24" height="24" viewBox="0 0 24 24" fill="none" xmlns="http://www.w3.org/2000/svg">
<g id="Mail">
<path id="Vector" d="M1.02 4.7V19.3C1.02 19.96 1.56 20.5 2.22 20.5H21.79C22.45 20.5 22.99 19.96 22.99 19.3V4.7C22.99 4.04 22.45 3.5 21.79 3.5H2.22C1.56 3.5 1.02 4.04 1.02 4.7ZM19.06 5.45L12.36 10.5C12.15 10.66 11.85 10.66 11.64 10.5L4.94 5.45H19.05H19.06ZM3.02 17.95V6.46L11.28 12.69C11.71 13.01 12.3 13.01 12.72 12.69L20.98 6.46V17.95C20.98 18.28 20.71 18.55 20.38 18.55H3.62C3.29 18.55 3.02 18.28 3.02 17.95Z" fill="#1D1D1B"/>
</g>
</svg>
