<svg width="24" height="24" viewBox="0 0 24 24" fill="none" xmlns="http://www.w3.org/2000/svg">
<g id="Man">
<g id="Vector">
<path d="M21.19 9.12001H20.39C20.06 9.12001 19.79 8.85001 19.79 8.52001V4.39001H15.65C15.32 4.39001 15.05 4.12001 15.05 3.79001V2.99001C15.05 2.66001 15.32 2.39001 15.65 2.39001H21.49C21.66 2.39001 21.79 2.52001 21.79 2.69001V8.52001C21.79 8.85001 21.52 9.12001 21.19 9.12001Z" fill="#003EDE"/>
<path d="M10.02 8.16002C13.31 8.16002 15.99 10.84 15.99 14.13C15.99 17.42 13.31 20.1 10.02 20.1C6.73 20.1 4.05 17.42 4.05 14.13C4.05 10.84 6.73 8.16002 10.02 8.16002ZM10.02 6.16002C5.62 6.16002 2.05 9.73002 2.05 14.13C2.05 18.53 5.62 22.1 10.02 22.1C14.42 22.1 17.99 18.53 17.99 14.13C17.99 9.73002 14.42 6.16002 10.02 6.16002Z" fill="#003EDE"/>
<path d="M20.0745 2.68426L14.3399 8.4189L15.7541 9.83311L21.4887 4.09848L20.0745 2.68426Z" fill="#003EDE"/>
</g>
</g>
</svg>
