<svg width="24" height="24" viewBox="0 0 24 24" fill="none" xmlns="http://www.w3.org/2000/svg">
<g id="Matrix">
<g id="Vector">
<path d="M9.96005 23H4.00005C3.34005 23 2.80005 22.46 2.80005 21.8V12.18C2.80005 11.52 3.34005 10.98 4.00005 10.98H9.96005C10.62 10.98 11.16 11.52 11.16 12.18V21.8C11.16 22.46 10.62 23 9.96005 23ZM5.40005 21H8.56005C8.89005 21 9.16005 20.73 9.16005 20.4V13.58C9.16005 13.25 8.89005 12.98 8.56005 12.98H5.40005C5.07005 12.98 4.80005 13.25 4.80005 13.58V20.4C4.80005 20.73 5.07005 21 5.40005 21Z" fill="#070707"/>
<path d="M9.96005 9.29H4.00005C3.34005 9.29 2.80005 8.75 2.80005 8.09V2.2C2.80005 1.54 3.34005 1 4.00005 1H9.96005C10.62 1 11.16 1.54 11.16 2.2V8.09C11.16 8.75 10.62 9.29 9.96005 9.29ZM5.40005 7.29H8.56005C8.89005 7.29 9.16005 7.02 9.16005 6.69V3.6C9.16005 3.27 8.89005 3 8.56005 3H5.40005C5.07005 3 4.80005 3.27 4.80005 3.6V6.69C4.80005 7.02 5.07005 7.29 5.40005 7.29Z" fill="#070707"/>
<path d="M20.0001 13.02H14.0401C13.3801 13.02 12.8401 12.48 12.8401 11.82V2.2C12.8401 1.54 13.3801 1 14.0401 1H20.0001C20.6601 1 21.2001 1.54 21.2001 2.2V11.82C21.2001 12.48 20.6601 13.02 20.0001 13.02ZM15.4401 11.02H18.6001C18.9301 11.02 19.2001 10.75 19.2001 10.42V3.6C19.2001 3.27 18.9301 3 18.6001 3H15.4401C15.1101 3 14.8401 3.27 14.8401 3.6V10.42C14.8401 10.75 15.1101 11.02 15.4401 11.02Z" fill="#070707"/>
<path d="M20.0001 23H14.0401C13.3801 23 12.8401 22.46 12.8401 21.8V15.91C12.8401 15.25 13.3801 14.71 14.0401 14.71H20.0001C20.6601 14.71 21.2001 15.25 21.2001 15.91V21.8C21.2001 22.46 20.6601 23 20.0001 23ZM15.4401 21H18.6001C18.9301 21 19.2001 20.73 19.2001 20.4V17.31C19.2001 16.98 18.9301 16.71 18.6001 16.71H15.4401C15.1101 16.71 14.8401 16.98 14.8401 17.31V20.4C14.8401 20.73 15.1101 21 15.4401 21Z" fill="#070707"/>
</g>
</g>
</svg>
