<svg width="20" height="20" viewBox="0 0 20 20" fill="none" xmlns="http://www.w3.org/2000/svg">
<g id="Notification ">
<g id="Vector">
<path d="M17.0167 11.225L16.2583 10.4C16.0917 10.2167 15.9917 9.97504 15.9917 9.72504V7.32504C15.9917 4.62504 13.7417 2.38337 10.8333 2.02504V1.33337C10.8333 1.05837 10.6083 0.833374 10.3333 0.833374H9.66668C9.39168 0.833374 9.16668 1.05837 9.16668 1.33337V2.02504C6.23334 2.39171 3.96668 4.62504 3.96668 7.32504V9.74171C3.96668 9.99171 3.87501 10.225 3.70834 10.4084L2.96668 11.2334C2.80001 11.4167 2.70834 11.6584 2.70834 11.9V14.65C2.70834 15.2 3.15834 15.65 3.70834 15.65L9.99168 15.6667L16.275 15.65C16.825 15.65 17.275 15.2 17.275 14.65V11.9C17.275 11.65 17.1833 11.4084 17.0083 11.225H17.0167ZM15.6167 13.4834C15.6167 13.7584 15.3917 13.9834 15.1167 13.9834H4.88334C4.60834 13.9834 4.38334 13.7584 4.38334 13.4834V12.35C4.38334 12.225 4.42501 12.1084 4.50834 12.0167L5.50834 10.9C5.59168 10.8084 5.63334 10.6917 5.63334 10.5667V7.32504C5.63334 5.29171 7.59168 3.63337 10 3.63337C12.4083 3.63337 14.325 5.29171 14.325 7.32504V10.5667C14.325 10.6917 14.375 10.8167 14.4583 10.9084L15.4833 12.0167C15.5667 12.1084 15.6167 12.2334 15.6167 12.3584V13.4834Z" fill="#070707"/>
<path d="M10 17.4834C9.54168 17.4834 9.16668 17.1084 9.16668 16.65H7.50001C7.50001 18.025 8.62501 19.15 10 19.15C11.375 19.15 12.5 18.025 12.5 16.65H10.8333C10.8333 17.1084 10.4583 17.4834 10 17.4834Z" fill="#070707"/>
</g>
</g>
</svg>
