<svg width="24" height="24" viewBox="0 0 24 24" fill="none" xmlns="http://www.w3.org/2000/svg">
<g id="Password">
<g id="Vector">
<path d="M20.3 22.99H3.7C3.04 22.99 2.5 22.45 2.5 21.79V8.65C2.5 7.99 3.04 7.45 3.7 7.45H20.3C20.96 7.45 21.5 7.99 21.5 8.65V21.79C21.5 22.45 20.96 22.99 20.3 22.99ZM5.27 20.99H18.72C19.05 20.99 19.32 20.72 19.32 20.39V10.05C19.32 9.72 19.05 9.45 18.72 9.45H5.27C4.94 9.45 4.67 9.72 4.67 10.05V20.39C4.67 20.72 4.94 20.99 5.27 20.99Z" fill="#1D1D1B"/>
<path d="M12 16.22C12.5523 16.22 13 15.7723 13 15.22C13 14.6677 12.5523 14.22 12 14.22C11.4477 14.22 11 14.6677 11 15.22C11 15.7723 11.4477 16.22 12 16.22Z" fill="#1D1D1B"/>
<path d="M18.38 7.48H16.38C16.38 5.01 14.37 3 11.9 3C9.43 3 7.42 5.01 7.42 7.48H5.42C5.42 3.91 8.33 1 11.9 1C15.47 1 18.38 3.91 18.38 7.48Z" fill="#1D1D1B"/>
</g>
</g>
</svg>
