<svg width="24" height="24" viewBox="0 0 24 24" fill="none" xmlns="http://www.w3.org/2000/svg">
<g id="Percent">
<g id="Vector">
<path d="M18.3263 4.28839L4.26191 18.3527C4.0276 18.5871 4.0276 18.967 4.26191 19.2013L4.8276 19.767C5.06191 20.0013 5.44181 20.0013 5.67612 19.767L19.7405 5.70261C19.9748 5.46829 19.9748 5.08839 19.7405 4.85408L19.1748 4.28839C18.9405 4.05408 18.5606 4.05408 18.3263 4.28839Z" fill="#070707"/>
<path d="M9.00002 11.55C5.88002 12.38 3.11002 9.6 3.93002 6.49C4.29002 5.12 5.40002 4.01 6.77002 3.65C9.89002 2.82 12.66 5.6 11.84 8.71C11.48 10.08 10.37 11.19 9.00002 11.55ZM8.41002 5.56C6.85002 5.18 5.47002 6.56 5.85002 8.12C6.03002 8.85 6.63002 9.46 7.36002 9.63C8.92002 10.01 10.3 8.63 9.92002 7.07C9.74002 6.34 9.14002 5.73 8.41002 5.56Z" fill="#070707"/>
<path d="M17.25 20.35C14.13 21.18 11.36 18.4 12.18 15.28C12.54 13.91 13.65 12.8 15.02 12.44C18.14 11.61 20.91 14.39 20.09 17.51C19.73 18.88 18.62 19.99 17.25 20.35ZM16.66 14.36C15.1 13.98 13.72 15.36 14.1 16.92C14.28 17.65 14.88 18.26 15.61 18.43C17.17 18.81 18.55 17.43 18.17 15.87C17.99 15.14 17.39 14.53 16.66 14.36Z" fill="#070707"/>
</g>
</g>
</svg>
