<svg width="24" height="24" viewBox="0 0 24 24" fill="none" xmlns="http://www.w3.org/2000/svg">
<g id="Play ">
<g id="Vector">
<path d="M11.98 3C16.94 3 20.98 7.04 20.98 12C20.98 16.96 16.94 21 11.98 21C7.01998 21 2.97998 16.96 2.97998 12C2.97998 7.04 7.01998 3 11.98 3ZM11.98 1C5.90998 1 0.97998 5.92 0.97998 12C0.97998 18.08 5.89998 23 11.98 23C18.06 23 22.98 18.08 22.98 12C22.98 5.92 18.06 1 11.98 1Z" fill="#1D1D1B"/>
<path d="M8.34 16.96V7.08C8.34 6.62 8.84 6.33 9.24 6.56L17.85 11.5C18.25 11.73 18.25 12.31 17.85 12.54L9.24 17.48C8.84 17.71 8.34 17.42 8.34 16.96ZM10.34 10.02V14.03C10.34 14.26 10.59 14.4 10.79 14.29L14.28 12.29C14.48 12.17 14.48 11.88 14.28 11.77L10.79 9.77C10.59 9.66 10.34 9.8 10.34 10.03V10.02Z" fill="#1D1D1B"/>
</g>
</g>
</svg>
