<svg width="24" height="24" viewBox="0 0 24 24" fill="none" xmlns="http://www.w3.org/2000/svg">
<path d="M9.5 15.5832V8.41518C9.50015 8.3255 9.52442 8.23751 9.57026 8.16043C9.61611 8.08334 9.68184 8.02001 9.76057 7.97707C9.83931 7.93412 9.92814 7.91314 10.0178 7.91633C10.1074 7.91952 10.1945 7.94675 10.27 7.99518L15.846 11.5782C15.9166 11.6234 15.9747 11.6857 16.0149 11.7593C16.0552 11.8328 16.0763 11.9153 16.0763 11.9992C16.0763 12.083 16.0552 12.1655 16.0149 12.2391C15.9747 12.3127 15.9166 12.3749 15.846 12.4202L10.27 16.0042C10.1945 16.0526 10.1074 16.0798 10.0178 16.083C9.92814 16.0862 9.83931 16.0652 9.76057 16.0223C9.68184 15.9794 9.61611 15.916 9.57026 15.8389C9.52442 15.7619 9.50015 15.6739 9.5 15.5842V15.5832Z" fill="white"/>
<path d="M1 12C1 5.925 5.925 1 12 1C18.075 1 23 5.925 23 12C23 18.075 18.075 23 12 23C5.925 23 1 18.075 1 12ZM12 2.5C9.48044 2.5 7.06408 3.50089 5.28249 5.28249C3.50089 7.06408 2.5 9.48044 2.5 12C2.5 14.5196 3.50089 16.9359 5.28249 18.7175C7.06408 20.4991 9.48044 21.5 12 21.5C14.5196 21.5 16.9359 20.4991 18.7175 18.7175C20.4991 16.9359 21.5 14.5196 21.5 12C21.5 9.48044 20.4991 7.06408 18.7175 5.28249C16.9359 3.50089 14.5196 2.5 12 2.5Z" fill="white"/>
</svg>
