<svg width="20" height="20" viewBox="0 0 20 20" fill="none" xmlns="http://www.w3.org/2000/svg">
<g id="Plus" clip-path="url(#clip0_139_1383)">
<g id="Vector">
<path d="M1.44166 10.8333C1.08332 10.8333 0.791656 10.6083 0.791656 10.3333V9.66662C0.791656 9.39162 1.08332 9.16662 1.44166 9.16662H18.5667C18.925 9.16662 19.2167 9.39162 19.2167 9.66662V10.3333C19.2167 10.6083 18.925 10.8333 18.5667 10.8333H1.44166Z" fill="#003EDE"/>
<path d="M10.3333 19.1666H9.66666C9.39166 19.1666 9.16666 18.8749 9.16666 18.5166V1.47495C9.16666 1.11662 9.39166 0.824951 9.66666 0.824951H10.3333C10.6083 0.824951 10.8333 1.11662 10.8333 1.47495V18.5166C10.8333 18.8749 10.6083 19.1666 10.3333 19.1666Z" fill="#003EDE"/>
</g>
</g>
<defs>
<clipPath id="clip0_139_1383">
<rect width="20" height="20" fill="white"/>
</clipPath>
</defs>
</svg>
