<svg width="113" height="36" viewBox="0 0 113 36" fill="none" xmlns="http://www.w3.org/2000/svg">
    <g id="Place of logo">
        <g id="Product">
            <path id="Vector" d="M95.2185 26.28C94.3225 26.448 93.4425 26.52 92.5785 26.496C91.7225 26.48 90.9545 26.332 90.2745 26.052C89.6025 25.764 89.0905 25.304 88.7385 24.672C88.4185 24.08 88.2505 23.48 88.2345 22.872C88.2185 22.256 88.2105 21.56 88.2105 20.784V9.72H91.4745V20.592C91.4745 21.096 91.4785 21.552 91.4865 21.96C91.5025 22.36 91.5865 22.68 91.7385 22.92C92.0265 23.376 92.4865 23.624 93.1185 23.664C93.7505 23.704 94.4505 23.672 95.2185 23.568V26.28ZM86.0025 15.84V13.32H95.2185V15.84H86.0025Z" fill="white"/>
            <path id="Vector_2" d="M78.6823 26.64C77.3383 26.64 76.1863 26.34 75.2263 25.74C74.2663 25.14 73.5303 24.324 73.0183 23.292C72.5063 22.26 72.2503 21.096 72.2503 19.8C72.2503 18.488 72.5143 17.316 73.0423 16.284C73.5783 15.252 74.3303 14.44 75.2983 13.848C76.2663 13.256 77.4103 12.96 78.7303 12.96C80.2583 12.96 81.5383 13.348 82.5703 14.124C83.6103 14.892 84.2743 15.944 84.5623 17.28L81.2983 18.144C81.1063 17.472 80.7703 16.948 80.2903 16.572C79.8183 16.196 79.2823 16.008 78.6823 16.008C77.9943 16.008 77.4303 16.176 76.9903 16.512C76.5503 16.84 76.2263 17.292 76.0183 17.868C75.8103 18.436 75.7063 19.08 75.7063 19.8C75.7063 20.928 75.9543 21.844 76.4503 22.548C76.9543 23.244 77.6983 23.592 78.6823 23.592C79.4183 23.592 79.9783 23.424 80.3623 23.088C80.7463 22.752 81.0343 22.272 81.2263 21.648L84.5623 22.344C84.1943 23.72 83.4983 24.78 82.4743 25.524C81.4503 26.268 80.1863 26.64 78.6823 26.64Z" fill="white"/>
            <path id="Vector_3" d="M62.0565 26.664C61.0405 26.664 60.2125 26.492 59.5725 26.148C58.9325 25.804 58.4325 25.368 58.0725 24.84C57.7205 24.312 57.4685 23.764 57.3165 23.196C57.1645 22.62 57.0725 22.096 57.0405 21.624C57.0085 21.152 56.9925 20.808 56.9925 20.592V13.32H60.3045V19.44C60.3045 19.736 60.3205 20.116 60.3525 20.58C60.3845 21.036 60.4845 21.496 60.6525 21.96C60.8205 22.424 61.0925 22.812 61.4685 23.124C61.8525 23.436 62.3925 23.592 63.0885 23.592C63.3685 23.592 63.6685 23.548 63.9885 23.46C64.3085 23.372 64.6085 23.204 64.8885 22.956C65.1685 22.7 65.3965 22.328 65.5725 21.84C65.7565 21.344 65.8485 20.696 65.8485 19.896L67.7205 20.784C67.7205 21.808 67.5125 22.768 67.0965 23.664C66.6805 24.56 66.0525 25.284 65.2125 25.836C64.3805 26.388 63.3285 26.664 62.0565 26.664ZM66.2565 26.28V21.984H65.8485V13.32H69.1365V26.28H66.2565Z" fill="white"/>
            <path id="Vector_4" d="M47.0085 26.64C45.8165 26.64 44.7725 26.34 43.8765 25.74C42.9805 25.14 42.2805 24.324 41.7765 23.292C41.2805 22.26 41.0325 21.096 41.0325 19.8C41.0325 18.48 41.2845 17.308 41.7885 16.284C42.3005 15.252 43.0165 14.44 43.9365 13.848C44.8565 13.256 45.9365 12.96 47.1765 12.96C48.4085 12.96 49.4445 13.26 50.2845 13.86C51.1245 14.46 51.7605 15.276 52.1925 16.308C52.6245 17.34 52.8405 18.504 52.8405 19.8C52.8405 21.096 52.6205 22.26 52.1805 23.292C51.7485 24.324 51.1005 25.14 50.2365 25.74C49.3725 26.34 48.2965 26.64 47.0085 26.64ZM47.5365 23.736C48.2645 23.736 48.8445 23.572 49.2765 23.244C49.7165 22.916 50.0325 22.456 50.2245 21.864C50.4165 21.272 50.5125 20.584 50.5125 19.8C50.5125 19.016 50.4165 18.328 50.2245 17.736C50.0325 17.144 49.7245 16.684 49.3005 16.356C48.8845 16.028 48.3365 15.864 47.6565 15.864C46.9285 15.864 46.3285 16.044 45.8565 16.404C45.3925 16.756 45.0485 17.232 44.8245 17.832C44.6005 18.424 44.4885 19.08 44.4885 19.8C44.4885 20.528 44.5965 21.192 44.8125 21.792C45.0285 22.384 45.3605 22.856 45.8085 23.208C46.2565 23.56 46.8325 23.736 47.5365 23.736ZM50.5125 26.28V17.4H50.1045V9H53.3925V26.28H50.5125Z" fill="white"/>
            <path id="Vector_5" d="M32.0576 26.64C30.7536 26.64 29.6096 26.348 28.6256 25.764C27.6416 25.18 26.8736 24.376 26.3216 23.352C25.7776 22.32 25.5056 21.136 25.5056 19.8C25.5056 18.448 25.7856 17.26 26.3456 16.236C26.9056 15.204 27.6776 14.4 28.6616 13.824C29.6456 13.248 30.7776 12.96 32.0576 12.96C33.3616 12.96 34.5056 13.252 35.4896 13.836C36.4816 14.42 37.2536 15.228 37.8056 16.26C38.3576 17.284 38.6336 18.464 38.6336 19.8C38.6336 21.144 38.3536 22.332 37.7936 23.364C37.2416 24.388 36.4696 25.192 35.4776 25.776C34.4936 26.352 33.3536 26.64 32.0576 26.64ZM32.0576 23.592C33.1056 23.592 33.8856 23.24 34.3976 22.536C34.9176 21.824 35.1776 20.912 35.1776 19.8C35.1776 18.648 34.9136 17.728 34.3856 17.04C33.8656 16.352 33.0896 16.008 32.0576 16.008C31.3456 16.008 30.7616 16.168 30.3056 16.488C29.8496 16.808 29.5096 17.252 29.2856 17.82C29.0696 18.388 28.9616 19.048 28.9616 19.8C28.9616 20.96 29.2216 21.884 29.7416 22.572C30.2696 23.252 31.0416 23.592 32.0576 23.592Z" fill="white"/>
            <path id="Vector_6" d="M16.0894 26.28V13.32H18.9694V16.488L18.6574 16.08C18.8254 15.632 19.0494 15.224 19.3294 14.856C19.6094 14.488 19.9534 14.184 20.3614 13.944C20.6734 13.752 21.0134 13.604 21.3814 13.5C21.7494 13.388 22.1294 13.32 22.5214 13.296C22.9134 13.264 23.3054 13.272 23.6974 13.32V16.368C23.3374 16.256 22.9174 16.22 22.4374 16.26C21.9654 16.292 21.5374 16.4 21.1534 16.584C20.7694 16.76 20.4454 16.996 20.1814 17.292C19.9174 17.58 19.7174 17.924 19.5814 18.324C19.4454 18.716 19.3774 19.16 19.3774 19.656V26.28H16.0894Z" fill="white"/>
            <path id="Vector_7" d="M0 26.28V9H7.296C7.464 9 7.688 9.008 7.968 9.024C8.256 9.032 8.512 9.056 8.736 9.096C9.768 9.256 10.612 9.596 11.268 10.116C11.932 10.636 12.42 11.292 12.732 12.084C13.044 12.868 13.2 13.744 13.2 14.712C13.2 15.68 13.04 16.56 12.72 17.352C12.408 18.136 11.92 18.788 11.256 19.308C10.6 19.828 9.76 20.168 8.736 20.328C8.512 20.36 8.256 20.384 7.968 20.4C7.68 20.416 7.456 20.424 7.296 20.424H3.264V26.28H0ZM3.264 17.376H7.152C7.32 17.376 7.504 17.368 7.704 17.352C7.904 17.336 8.088 17.304 8.256 17.256C8.696 17.136 9.036 16.936 9.276 16.656C9.516 16.368 9.68 16.052 9.768 15.708C9.864 15.356 9.912 15.024 9.912 14.712C9.912 14.4 9.864 14.072 9.768 13.728C9.68 13.376 9.516 13.06 9.276 12.78C9.036 12.492 8.696 12.288 8.256 12.168C8.088 12.12 7.904 12.088 7.704 12.072C7.504 12.056 7.32 12.048 7.152 12.048H3.264V17.376Z" fill="white"/>
        </g>
    </g>
</svg>
