<svg width="24" height="24" viewBox="0 0 24 24" fill="none" xmlns="http://www.w3.org/2000/svg">
<g id="Question">
<g id="Vector">
<path d="M12 3C16.96 3 21 7.04 21 12C21 16.96 16.96 21 12 21C7.04 21 3 16.96 3 12C3 7.04 7.04 3 12 3ZM12 1C5.92 1 1 5.92 1 12C1 18.08 5.92 23 12 23C18.08 23 23 18.08 23 12C23 5.92 18.08 1 12 1Z" fill="#003EDE"/>
<path d="M11.98 19.1C12.5323 19.1 12.98 18.6523 12.98 18.1C12.98 17.5477 12.5323 17.1 11.98 17.1C11.4277 17.1 10.98 17.5477 10.98 18.1C10.98 18.6523 11.4277 19.1 11.98 19.1Z" fill="#003EDE"/>
<path d="M12.38 15.83H11.58C11.25 15.83 10.98 15.56 10.98 15.23V12.57C10.98 12.24 11.25 11.97 11.58 11.97H11.83C13.16 11.97 14.37 11.02 14.5 9.7C14.65 8.18 13.46 6.9 11.98 6.9C10.75 6.9 9.70996 7.79 9.48996 8.96C9.43996 9.24 9.18996 9.44 8.90996 9.44H8.09996C7.72996 9.44 7.43996 9.1 7.49996 8.73C7.88996 6.26 10.28 4.44 12.96 5C14.73 5.37 16.13 6.84 16.45 8.61C16.89 11.12 15.26 13.34 12.98 13.86V15.23C12.98 15.56 12.71 15.83 12.38 15.83Z" fill="#003EDE"/>
</g>
</g>
</svg>
