<svg width="22" height="22" viewBox="0 0 22 22" fill="none" xmlns="http://www.w3.org/2000/svg">
<g clip-path="url(#clip0_521_75)">
<path d="M11 18.7C15.2526 18.7 18.7 15.2526 18.7 11C18.7 6.74741 15.2526 3.3 11 3.3C6.7474 3.3 3.29999 6.74741 3.29999 11C3.29999 15.2526 6.7474 18.7 11 18.7Z" fill="#1D1D1B"/>
<path d="M11 2C15.96 2 20 6.04 20 11C20 15.96 15.96 20 11 20C6.04 20 2 15.96 2 11C2 6.04 6.04 2 11 2ZM11 0C4.92 0 0 4.92 0 11C0 17.08 4.92 22 11 22C17.08 22 22 17.08 22 11C22 4.92 17.08 0 11 0Z" fill="#1D1D1B"/>
</g>
<defs>
<clipPath id="clip0_521_75">
<rect width="22" height="22" fill="white"/>
</clipPath>
</defs>
</svg>
