<svg width="16" height="16" viewBox="0 0 16 16" fill="none" xmlns="http://www.w3.org/2000/svg">
<g id="Review " clip-path="url(#clip0_1092_1673)">
<g id="Vector">
<path d="M8.00008 1.99996C11.3067 1.99996 14.0001 4.69329 14.0001 7.99996C14.0001 11.3066 11.3067 14 8.00008 14C4.69341 14 2.00008 11.3066 2.00008 7.99996C2.00008 4.69329 4.69341 1.99996 8.00008 1.99996ZM8.00008 0.666626C3.94675 0.666626 0.666748 3.94663 0.666748 7.99996C0.666748 12.0533 3.94675 15.3333 8.00008 15.3333C12.0534 15.3333 15.3334 12.0533 15.3334 7.99996C15.3334 3.94663 12.0534 0.666626 8.00008 0.666626Z" fill="#003EDE"/>
<path d="M8.00008 10.6666C6.52675 10.6666 5.33341 9.47329 5.33341 7.99996C5.33341 6.52663 6.52675 5.33329 8.00008 5.33329C9.47341 5.33329 10.6667 6.52663 10.6667 7.99996C10.6667 9.47329 9.47341 10.6666 8.00008 10.6666ZM8.00008 6.66663C7.26675 6.66663 6.66675 7.26663 6.66675 7.99996C6.66675 8.73329 7.26675 9.33329 8.00008 9.33329C8.73341 9.33329 9.33341 8.73329 9.33341 7.99996C9.33341 7.26663 8.73341 6.66663 8.00008 6.66663Z" fill="#003EDE"/>
</g>
</g>
<defs>
<clipPath id="clip0_1092_1673">
<rect width="16" height="16" fill="white"/>
</clipPath>
</defs>
</svg>
