<svg width="16" height="16" viewBox="0 0 16 16" fill="none" xmlns="http://www.w3.org/2000/svg">
<g id="Ruble">
<g id="Vector">
<path d="M6.9799 7.66665V13.2666C6.9799 13.4866 6.7999 13.6666 6.5799 13.6666H6.04657C5.82657 13.6666 5.64657 13.4866 5.64657 13.2666V3.13331C5.64657 2.73998 5.93323 2.40665 6.31323 2.34665V7.66665H6.9799Z" fill="#070707"/>
<path d="M8.8065 2.33331H6.3265L6.31323 2.34665V7.66665H4.31317C4.09317 7.66665 3.91317 7.84665 3.91317 8.06665V8.59998C3.91317 8.81998 4.09317 8.99998 4.31317 8.99998H8.65983C10.3998 8.99998 11.9532 7.72665 12.1265 5.99998C12.3198 4.01331 10.7532 2.33331 8.8065 2.33331ZM10.7665 6.06665C10.5865 7.01331 9.69317 7.66665 8.7265 7.66665H7.37983C7.15983 7.66665 6.97983 7.48665 6.97983 7.26665V4.06665C6.97983 3.84665 7.15983 3.66665 7.37983 3.66665H8.8065C10.0398 3.66665 11.0198 4.78665 10.7665 6.06665Z" fill="#070707"/>
<path d="M9.5732 10.02H4.25986C4.03895 10.02 3.85986 10.1991 3.85986 10.42V10.9533C3.85986 11.1742 4.03895 11.3533 4.25986 11.3533H9.5732C9.79411 11.3533 9.9732 11.1742 9.9732 10.9533V10.42C9.9732 10.1991 9.79411 10.02 9.5732 10.02Z" fill="#070707"/>
</g>
</g>
</svg>
