<svg width="20" height="20" viewBox="0 0 20 20" fill="none" xmlns="http://www.w3.org/2000/svg">
<g clip-path="url(#clip0_2001_554)">
<path d="M8.95834 17.075C4.47501 17.075 0.833344 13.4333 0.833344 8.95831C0.833344 4.48331 4.47501 0.833313 8.95834 0.833313C13.4417 0.833313 17.0833 4.47498 17.0833 8.95831C17.0833 13.4416 13.4417 17.0833 8.95834 17.0833V17.075ZM8.95834 2.49998C5.40001 2.49998 2.50001 5.39998 2.50001 8.95831C2.50001 12.5166 5.40001 15.4166 8.95834 15.4166C12.5167 15.4166 15.4167 12.5166 15.4167 8.95831C15.4167 5.39998 12.5167 2.49998 8.95834 2.49998Z" fill="#070707"/>
<path d="M8.95834 17.075C4.47501 17.075 0.833344 13.4333 0.833344 8.95831C0.833344 4.48331 4.47501 0.833313 8.95834 0.833313C13.4417 0.833313 17.0833 4.47498 17.0833 8.95831C17.0833 13.4416 13.4417 17.0833 8.95834 17.0833V17.075ZM8.95834 2.49998C5.40001 2.49998 2.50001 5.39998 2.50001 8.95831C2.50001 12.5166 5.40001 15.4166 8.95834 15.4166C12.5167 15.4166 15.4167 12.5166 15.4167 8.95831C15.4167 5.39998 12.5167 2.49998 8.95834 2.49998Z" fill="white" fill-opacity="0.4"/>
<path d="M17.9583 19.1166L13.7 14.8583L14.875 13.6833L19.1333 17.9416C19.325 18.1333 19.325 18.45 19.1333 18.65L18.6583 19.125C18.4666 19.3166 18.15 19.3166 17.95 19.125L17.9583 19.1166Z" fill="#070707"/>
<path d="M17.9583 19.1166L13.7 14.8583L14.875 13.6833L19.1333 17.9416C19.325 18.1333 19.325 18.45 19.1333 18.65L18.6583 19.125C18.4666 19.3166 18.15 19.3166 17.95 19.125L17.9583 19.1166Z" fill="white" fill-opacity="0.4"/>
</g>
<defs>
<clipPath id="clip0_2001_554">
<rect width="20" height="20" fill="white"/>
</clipPath>
</defs>
</svg>
