<svg width="20" height="20" viewBox="0 0 20 20" fill="none" xmlns="http://www.w3.org/2000/svg">
<g id="Settings ">
<g id="Vector">
<path d="M17.7667 10.8667H15.8167V9.2H17.7667C18.0417 9.2 18.2667 9.425 18.2667 9.7V10.3667C18.2667 10.6417 18.0417 10.8667 17.7667 10.8667Z" fill="white"/>
<path d="M11.8916 10.8667H2.23331C1.95831 10.8667 1.73331 10.6417 1.73331 10.3667V9.7C1.73331 9.425 1.95831 9.2 2.23331 9.2H11.8916V10.8667Z" fill="white"/>
<path d="M13.8333 12.6167C12.3916 12.6167 11.2166 11.4417 11.2166 10C11.2166 8.55833 12.3916 7.38333 13.8333 7.38333C15.275 7.38333 16.45 8.55833 16.45 10C16.45 11.4417 15.275 12.6167 13.8333 12.6167ZM13.8333 9.05C13.3083 9.05 12.8833 9.475 12.8833 10C12.8833 10.525 13.3083 10.95 13.8333 10.95C14.3583 10.95 14.7833 10.525 14.7833 10C14.7833 9.475 14.3583 9.05 13.8333 9.05Z" fill="white"/>
<path d="M17.7666 17.3833H8.0416V15.7167H17.7666C18.0416 15.7167 18.2666 15.9417 18.2666 16.2167V16.8833C18.2666 17.1583 18.0416 17.3833 17.7666 17.3833Z" fill="white"/>
<path d="M4.38331 17.3833H2.23331C1.95831 17.3833 1.73331 17.1583 1.73331 16.8833V16.2167C1.73331 15.9417 1.95831 15.7167 2.23331 15.7167H4.38331V17.3833Z" fill="white"/>
<path d="M6.25834 19.1667C4.81667 19.1667 3.64167 17.9917 3.64167 16.55C3.64167 15.1083 4.81667 13.9333 6.25834 13.9333C7.70001 13.9333 8.87501 15.1083 8.87501 16.55C8.87501 17.9917 7.70001 19.1667 6.25834 19.1667ZM6.25834 15.6C5.73334 15.6 5.30834 16.025 5.30834 16.55C5.30834 17.075 5.73334 17.5 6.25834 17.5C6.78334 17.5 7.20834 17.075 7.20834 16.55C7.20834 16.025 6.78334 15.6 6.25834 15.6Z" fill="white"/>
<path d="M17.7667 4.28333H8.01667V2.61667H17.7667C18.0417 2.61667 18.2667 2.84167 18.2667 3.11667V3.78333C18.2667 4.05833 18.0417 4.28333 17.7667 4.28333Z" fill="white"/>
<path d="M4.31664 4.28333H2.23331C1.95831 4.28333 1.73331 4.05833 1.73331 3.78333V3.11667C1.73331 2.84167 1.95831 2.61667 2.23331 2.61667H4.31664V4.28333Z" fill="white"/>
<path d="M6.16668 6.06667C4.74168 6.06667 3.56668 4.90833 3.55002 3.48333V3.45C3.55002 2.00833 4.72502 0.833334 6.16668 0.833334C7.60835 0.833334 8.78335 2.00833 8.78335 3.45C8.78335 4.89167 7.60835 6.06667 6.16668 6.06667ZM6.16668 2.5C5.64168 2.5 5.21668 2.925 5.21668 3.45V3.475C5.21668 3.98333 5.65002 4.4 6.16668 4.4C6.68335 4.4 7.11668 3.975 7.11668 3.45C7.11668 2.925 6.69168 2.5 6.16668 2.5Z" fill="white"/>
</g>
</g>
</svg>
