<svg width="24" height="24" viewBox="0 0 24 24" fill="none" xmlns="http://www.w3.org/2000/svg">
<g id="Sorting-arrow-down">
<g id="Vector">
<path d="M8.45001 14.1675L12.21 17.9275L15.76 14.3775C15.88 14.2575 16.07 14.2575 16.18 14.3775L17.17 15.3675C17.29 15.4875 17.29 15.6775 17.17 15.7875L12.63 20.3275C12.4 20.5575 12.02 20.5575 11.78 20.3275L7.03001 15.5775C6.91001 15.4575 6.91001 15.2675 7.03001 15.1575L8.02001 14.1675C8.14001 14.0475 8.33001 14.0475 8.44001 14.1675L8.45001 14.1675Z" fill="#070707"/>
<path d="M11.81 3.5075L12.61 3.5075C12.94 3.5075 13.21 3.7775 13.21 4.1075L13.21 19.0975L11.21 19.0975L11.21 4.1075C11.21 3.7775 11.48 3.5075 11.81 3.5075Z" fill="#070707"/>
</g>
</g>
</svg>
