<svg width="24" height="24" viewBox="0 0 24 24" fill="none" xmlns="http://www.w3.org/2000/svg">
<g id="Sorting-arrows">
<g id="Vector">
<path d="M10.39 9.84L6.63002 6.08L3.08002 9.63C2.96002 9.75 2.77002 9.75 2.66002 9.63L1.67002 8.64C1.55002 8.52 1.55002 8.33 1.67002 8.22L6.20002 3.67C6.43002 3.44 6.81002 3.44 7.05002 3.67L11.8 8.42C11.92 8.54 11.92 8.73 11.8 8.84L10.81 9.83C10.69 9.95 10.5 9.95 10.39 9.83V9.84Z" fill="#070707"/>
<path d="M7.03002 20.5H6.23002C5.90002 20.5 5.63002 20.23 5.63002 19.9V4.91H7.63002V19.9C7.63002 20.23 7.36002 20.5 7.03002 20.5Z" fill="#070707"/>
<path d="M13.61 14.16L17.37 17.92L20.92 14.37C21.04 14.25 21.23 14.25 21.34 14.37L22.33 15.36C22.45 15.48 22.45 15.67 22.33 15.78L17.79 20.32C17.56 20.55 17.18 20.55 16.94 20.32L12.19 15.57C12.07 15.45 12.07 15.26 12.19 15.15L13.18 14.16C13.3 14.04 13.49 14.04 13.6 14.16H13.61Z" fill="#070707"/>
<path d="M16.97 3.5H17.77C18.1 3.5 18.37 3.77 18.37 4.1V19.09H16.37V4.1C16.37 3.77 16.64 3.5 16.97 3.5Z" fill="#070707"/>
</g>
</g>
</svg>
