<svg width="24" height="24" viewBox="0 0 24 24" fill="none" xmlns="http://www.w3.org/2000/svg">
<path d="M17.81 3.5H3.44998C3.1186 3.5 2.84998 3.76863 2.84998 4.1V4.9C2.84998 5.23137 3.1186 5.5 3.44998 5.5H17.81C18.1413 5.5 18.41 5.23137 18.41 4.9V4.1C18.41 3.76863 18.1413 3.5 17.81 3.5Z" fill="#070707"/>
<path d="M11.1 8.16H3.44998C3.1186 8.16 2.84998 8.42863 2.84998 8.76V9.56C2.84998 9.89137 3.1186 10.16 3.44998 10.16H11.1C11.4313 10.16 11.7 9.89137 11.7 9.56V8.76C11.7 8.42863 11.4313 8.16 11.1 8.16Z" fill="#070707"/>
<path d="M7.81998 12.81H3.44998C3.1186 12.81 2.84998 13.0786 2.84998 13.41V14.21C2.84998 14.5414 3.1186 14.81 3.44998 14.81H7.81998C8.15135 14.81 8.41998 14.5414 8.41998 14.21V13.41C8.41998 13.0786 8.15135 12.81 7.81998 12.81Z" fill="#070707"/>
<path d="M15.67 20.32L10.92 15.57C10.8 15.45 10.8 15.26 10.92 15.15L11.91 14.16C12.03 14.04 12.22 14.04 12.33 14.16L16.09 17.92L19.64 14.37C19.76 14.25 19.95 14.25 20.06 14.37L21.05 15.36C21.17 15.48 21.17 15.67 21.05 15.78L16.51 20.32C16.28 20.55 15.9 20.55 15.66 20.32H15.67Z" fill="#070707"/>
<path d="M17.09 19.6H15.09V8.75C15.09 8.42 15.36 8.15 15.69 8.15H16.49C16.82 8.15 17.09 8.42 17.09 8.75V19.6Z" fill="#070707"/>
</svg>
