<svg width="24" height="24" viewBox="0 0 24 24" fill="none" xmlns="http://www.w3.org/2000/svg">
<g id="Sorting-arrow-up">
<g id="Vector">
<path d="M15.75 9.84L11.99 6.08L8.44 9.63C8.32 9.75 8.13 9.75 8.02 9.63L7.03 8.64C6.91 8.52 6.91 8.33 7.03 8.22L11.57 3.68C11.8 3.45 12.18 3.45 12.42 3.68L17.17 8.43C17.29 8.55 17.29 8.74 17.17 8.85L16.18 9.84C16.06 9.96 15.87 9.96 15.76 9.84H15.75Z" fill="#070707"/>
<path d="M12.39 20.5H11.59C11.26 20.5 10.99 20.23 10.99 19.9V4.91H12.99V19.9C12.99 20.23 12.72 20.5 12.39 20.5Z" fill="#070707"/>
</g>
</g>
</svg>
