<svg width="24" height="24" viewBox="0 0 24 24" fill="none" xmlns="http://www.w3.org/2000/svg">
<g id="Statistics">
<g id="Vector">
<path d="M21.41 21H2.58999C2.42431 21 2.28999 21.1343 2.28999 21.3V22.7C2.28999 22.8657 2.42431 23 2.58999 23H21.41C21.5757 23 21.71 22.8657 21.71 22.7V21.3C21.71 21.1343 21.5757 21 21.41 21Z" fill="#070707"/>
<path d="M9.98996 19.06H8.58996C8.41996 19.06 8.28996 18.93 8.28996 18.76V3.6C8.28996 3.27 8.01996 3 7.68996 3H6.43996C6.10996 3 5.83996 3.27 5.83996 3.6V18.71C5.83996 18.88 5.70996 19.01 5.53996 19.01H4.13996C3.96996 19.01 3.83996 18.88 3.83996 18.71V2.2C3.83996 1.54 4.37996 1 5.03996 1H9.08996C9.74996 1 10.29 1.54 10.29 2.2V18.76C10.29 18.93 10.16 19.06 9.98996 19.06Z" fill="#070707"/>
<path d="M19.86 19.06H18.46C18.29 19.06 18.16 18.93 18.16 18.76V8.87C18.16 8.54 17.89 8.27 17.56 8.27H16.31C15.98 8.27 15.71 8.54 15.71 8.87V18.73C15.71 18.9 15.58 19.03 15.41 19.03H14.01C13.84 19.03 13.71 18.9 13.71 18.73V7.47C13.71 6.81 14.25 6.27 14.91 6.27H18.96C19.62 6.27 20.16 6.81 20.16 7.47V18.76C20.16 18.93 20.03 19.06 19.86 19.06Z" fill="#070707"/>
</g>
</g>
</svg>
