<svg width="20" height="20" viewBox="0 0 20 20" fill="none" xmlns="http://www.w3.org/2000/svg">
<g id="Success" clip-path="url(#clip0_755_4091)">
<path id="Ellipse" d="M10 2.49992C14.1334 2.49992 17.5 5.86658 17.5 9.99992C17.5 14.1333 14.1334 17.4999 10 17.4999C5.86671 17.4999 2.50004 14.1333 2.50004 9.99992C2.50004 5.86658 5.86671 2.49992 10 2.49992ZM10 0.833252C4.93337 0.833252 0.833374 4.93325 0.833374 9.99992C0.833374 15.0666 4.93337 19.1666 10 19.1666C15.0667 19.1666 19.1667 15.0666 19.1667 9.99992C19.1667 4.93325 15.0667 0.833252 10 0.833252Z" fill="#070707"/>
<path id="Vector" d="M8.15008 12.7501L5.02508 9.70843C4.82508 9.51676 4.82508 9.2001 5.01675 9.0001L5.48341 8.5251C5.67508 8.3251 5.99175 8.3251 6.19175 8.51676L8.50008 10.7668L13.8084 5.5251C14.0084 5.33343 14.3251 5.33343 14.5167 5.5251L14.9834 6.0001C15.1751 6.2001 15.1751 6.51676 14.9834 6.70843L8.85842 12.7501C8.66675 12.9418 8.35008 12.9418 8.15842 12.7501H8.15008Z" fill="#070707"/>
</g>
<defs>
<clipPath id="clip0_755_4091">
<rect width="20" height="20" fill="white"/>
</clipPath>
</defs>
</svg>
