<svg width="24" height="24" viewBox="0 0 24 24" fill="none" xmlns="http://www.w3.org/2000/svg">
<g id="Telephone ">
<path id="Vector" d="M17.9302 20.5C17.8702 20.5 17.8002 20.5 17.7402 20.49C8.20016 19.33 4.62016 11.79 4.45016 5.13C4.44016 4.66 4.64016 4.21 4.99016 3.9C5.34016 3.59 5.82016 3.45 6.29016 3.52L9.16016 3.95C9.72016 4.03 10.1602 4.47 10.2502 5.03L10.7902 8.47C10.8602 8.91 10.7002 9.35 10.3702 9.64L8.01016 11.72C8.77016 13.28 9.88016 14.83 11.5402 16.07L14.0902 13.92C14.4302 13.64 14.8902 13.54 15.3102 13.68L18.6402 14.72C19.1902 14.9 19.5502 15.39 19.5502 15.95V18.89C19.5502 19.35 19.3502 19.78 19.0102 20.09C18.7202 20.35 18.3402 20.49 17.9502 20.49L17.9302 20.5ZM13.7502 17.37C14.7502 17.82 15.8802 18.16 17.1702 18.38C17.3502 18.41 17.5302 18.27 17.5302 18.08V16.69C17.5302 16.56 17.4402 16.44 17.3202 16.4L15.2202 15.74C15.1202 15.71 15.0202 15.74 14.9402 15.8L13.6902 16.86C13.5202 17 13.5502 17.28 13.7502 17.37ZM6.49016 5.93C6.56016 6.82 6.72016 8.01 7.08016 9.29C7.14016 9.5 7.41016 9.58 7.57016 9.43L8.62016 8.5C8.70016 8.43 8.73016 8.33 8.72016 8.23L8.38016 6.06C8.36016 5.93 8.26016 5.83 8.13016 5.81L6.84016 5.61C6.65016 5.58 6.48016 5.73 6.49016 5.92V5.93Z" fill="#070707"/>
</g>
</svg>
