<svg width="16" height="16" viewBox="0 0 16 16" fill="none" xmlns="http://www.w3.org/2000/svg">
<g id="Time " clip-path="url(#clip0_1092_1664)">
<g id="Vector">
<path d="M8.00008 1.99996C11.3067 1.99996 14.0001 4.69329 14.0001 7.99996C14.0001 11.3066 11.3067 14 8.00008 14C4.69341 14 2.00008 11.3066 2.00008 7.99996C2.00008 4.69329 4.69341 1.99996 8.00008 1.99996ZM8.00008 0.666626C3.94675 0.666626 0.666748 3.94663 0.666748 7.99996C0.666748 12.0533 3.94675 15.3333 8.00008 15.3333C12.0534 15.3333 15.3334 12.0533 15.3334 7.99996C15.3334 3.94663 12.0534 0.666626 8.00008 0.666626Z" fill="#070707"/>
<path d="M9.82675 10.7866L7.33341 8.29329V4.61996C7.33341 4.39996 7.51341 4.21996 7.73341 4.21996H8.26675C8.48675 4.21996 8.66675 4.39996 8.66675 4.61996V7.73996L10.7734 9.84663C10.9267 9.99996 10.9267 10.2533 10.7734 10.4133L10.3934 10.7933C10.2401 10.9466 9.98675 10.9466 9.82675 10.7933V10.7866Z" fill="#070707"/>
</g>
</g>
<defs>
<clipPath id="clip0_1092_1664">
<rect width="16" height="16" fill="white"/>
</clipPath>
</defs>
</svg>
