<svg width="46" height="6" viewBox="0 0 46 6" fill="none" xmlns="http://www.w3.org/2000/svg">
<path id="Transfer" d="M0.333333 3C0.333333 4.47276 1.52724 5.66667 3 5.66667C4.47276 5.66667 5.66667 4.47276 5.66667 3C5.66667 1.52724 4.47276 0.333333 3 0.333333C1.52724 0.333333 0.333333 1.52724 0.333333 3ZM3 3.5H5.15V2.5H3V3.5ZM9.45 3.5H13.75V2.5H9.45V3.5ZM18.05 3.5H22.35V2.5H18.05V3.5ZM26.65 3.5H30.95V2.5H26.65V3.5ZM35.25 3.5H39.55V2.5H35.25V3.5ZM43.85 3.5H46V2.5H43.85V3.5ZM0.333333 3C0.333333 4.47276 1.52724 5.66667 3 5.66667C4.47276 5.66667 5.66667 4.47276 5.66667 3C5.66667 1.52724 4.47276 0.333333 3 0.333333C1.52724 0.333333 0.333333 1.52724 0.333333 3ZM3 3.5H5.15V2.5H3V3.5ZM9.45 3.5H13.75V2.5H9.45V3.5ZM18.05 3.5H22.35V2.5H18.05V3.5ZM26.65 3.5H30.95V2.5H26.65V3.5ZM35.25 3.5H39.55V2.5H35.25V3.5ZM43.85 3.5H46V2.5H43.85V3.5Z" fill="#393939"/>
</svg>
