<svg width="24" height="24" viewBox="0 0 24 24" fill="none" xmlns="http://www.w3.org/2000/svg">
<path d="M12 10.81C9.29003 10.81 7.09003 8.61 7.09003 5.9C7.09003 3.19 9.29003 1 12 1C14.71 1 16.91 3.2 16.91 5.91C16.91 8.62 14.71 10.82 12 10.82V10.81ZM12 3C10.4 3 9.09003 4.3 9.09003 5.91C9.09003 7.52 10.39 8.82 12 8.82C13.61 8.82 14.91 7.52 14.91 5.91C14.91 4.3 13.61 3 12 3Z" fill="#003EDE"/>
<path d="M20.02 23H3.98003C3.32003 23 2.78003 22.46 2.78003 21.8V21C2.78003 16.16 3.49003 12.81 12 12.81C20.51 12.81 21.22 16.16 21.22 21V21.8C21.22 22.46 20.68 23 20.02 23ZM5.41003 21H18.58C18.92 21 19.2 20.72 19.18 20.38C18.99 16.88 17.87 14.81 12 14.81C6.13003 14.81 5.00003 16.88 4.81003 20.38C4.79003 20.72 5.07003 21 5.41003 21Z" fill="#003EDE"/>
</svg>
