<svg width="24" height="24" viewBox="0 0 24 24" fill="none" xmlns="http://www.w3.org/2000/svg">
<g id="User-rounded">
<g id="Vector">
<path d="M12 10.81C9.29002 10.81 7.09002 8.61 7.09002 5.9C7.09002 3.19 9.29002 1 12 1C14.71 1 16.91 3.2 16.91 5.91C16.91 8.62 14.71 10.82 12 10.82V10.81ZM12 3C10.4 3 9.09002 4.3 9.09002 5.91C9.09002 7.52 10.39 8.82 12 8.82C13.61 8.82 14.91 7.52 14.91 5.91C14.91 4.3 13.61 3 12 3Z" fill="#003EDE"/>
<path d="M12 23C7.46002 23 4.64002 21.18 3.63002 20.4C3.08002 19.97 2.77002 19.32 2.78002 18.63C2.87002 14.15 5.02002 12.78 12 12.78C18.98 12.78 21.12 14.15 21.22 18.63C21.23 19.31 20.92 19.97 20.37 20.4C19.37 21.18 16.55 23 12 23ZM12 14.78C4.86002 14.78 4.83002 16.24 4.78002 18.67C4.78002 18.75 4.83002 18.8 4.86002 18.82C5.70002 19.47 8.07002 21 11.99 21C15.91 21 18.29 19.48 19.13 18.82C19.18 18.78 19.21 18.72 19.21 18.67C19.16 16.33 19.13 14.78 11.99 14.78H12Z" fill="#003EDE"/>
</g>
</g>
</svg>
