<svg width="24" height="24" viewBox="0 0 24 24" fill="none" xmlns="http://www.w3.org/2000/svg">
<g id="Woman">
<g id="Vector">
<path d="M12 4.39001C14.79 4.39001 17.06 6.66001 17.06 9.45001C17.06 12.24 14.79 14.51 12 14.51C9.21 14.51 6.94 12.24 6.94 9.45001C6.94 6.66001 9.21 4.39001 12 4.39001ZM12 2.39001C8.1 2.39001 4.94 5.55001 4.94 9.45001C4.94 13.35 8.1 16.51 12 16.51C15.9 16.51 19.06 13.35 19.06 9.45001C19.06 5.55001 15.9 2.39001 12 2.39001Z" fill="#003EDE"/>
<path d="M12.4 22.11H11.6C11.27 22.11 11 21.84 11 21.51V14.88H13V21.51C13 21.84 12.73 22.11 12.4 22.11Z" fill="#003EDE"/>
<path d="M15.81 18.75H8.2C7.86863 18.75 7.6 19.0186 7.6 19.35V20.15C7.6 20.4814 7.86863 20.75 8.2 20.75H15.81C16.1414 20.75 16.41 20.4814 16.41 20.15V19.35C16.41 19.0186 16.1414 18.75 15.81 18.75Z" fill="#003EDE"/>
</g>
</g>
</svg>
